<?xml version="1.0" encoding="UTF-8"?>
<!--Generator: Apple Native CoreSVG 149-->
<!DOCTYPE svg
PUBLIC "-//W3C//DTD SVG 1.1//EN"
       "http://www.w3.org/Graphics/SVG/1.1/DTD/svg11.dtd">
<svg version="1.1" xmlns="http://www.w3.org/2000/svg" xmlns:xlink="http://www.w3.org/1999/xlink" width="3300" height="2200">
 <!--glyph: "uni100ED2.medium", point size: 100.0, font version: "17.0d9e1", template writer version: "59"-->
 <g id="Notes">
  <rect height="2200" id="artboard" style="fill:white;opacity:1" width="3300" x="0" y="0"/>
  <line style="fill:none;stroke:black;opacity:1;stroke-width:0.5;" x1="263" x2="3036" y1="292" y2="292"/>
  <text style="stroke:none;fill:black;font-family:sans-serif;font-size:13;font-weight:bold;" transform="matrix(1 0 0 1 263 322)">Weight/Scale Variations</text>
  <text style="stroke:none;fill:black;font-family:sans-serif;font-size:13;text-anchor:middle;" transform="matrix(1 0 0 1 559.711 322)">Ultralight</text>
  <text style="stroke:none;fill:black;font-family:sans-serif;font-size:13;text-anchor:middle;" transform="matrix(1 0 0 1 856.422 322)">Thin</text>
  <text style="stroke:none;fill:black;font-family:sans-serif;font-size:13;text-anchor:middle;" transform="matrix(1 0 0 1 1153.13 322)">Light</text>
  <text style="stroke:none;fill:black;font-family:sans-serif;font-size:13;text-anchor:middle;" transform="matrix(1 0 0 1 1449.84 322)">Regular</text>
  <text style="stroke:none;fill:black;font-family:sans-serif;font-size:13;text-anchor:middle;" transform="matrix(1 0 0 1 1746.56 322)">Medium</text>
  <text style="stroke:none;fill:black;font-family:sans-serif;font-size:13;text-anchor:middle;" transform="matrix(1 0 0 1 2043.27 322)">Semibold</text>
  <text style="stroke:none;fill:black;font-family:sans-serif;font-size:13;text-anchor:middle;" transform="matrix(1 0 0 1 2339.98 322)">Bold</text>
  <text style="stroke:none;fill:black;font-family:sans-serif;font-size:13;text-anchor:middle;" transform="matrix(1 0 0 1 2636.69 322)">Heavy</text>
  <text style="stroke:none;fill:black;font-family:sans-serif;font-size:13;text-anchor:middle;" transform="matrix(1 0 0 1 2933.4 322)">Black</text>
  <line style="fill:none;stroke:black;opacity:1;stroke-width:0.5;" x1="263" x2="3036" y1="1903" y2="1903"/>
  <g transform="matrix(1 0 0 1 263 1933)">
   <path d="M9.24805 0.830078Q10.8691 0.830078 12.2949 0.214844Q13.7207-0.400391 14.8096-1.49414Q15.8984-2.58789 16.5186-4.01367Q17.1387-5.43945 17.1387-7.05078Q17.1387-8.66211 16.5186-10.0879Q15.8984-11.5137 14.8047-12.6074Q13.7109-13.7012 12.2852-14.3164Q10.8594-14.9316 9.23828-14.9316Q7.62695-14.9316 6.20117-14.3164Q4.77539-13.7012 3.69141-12.6074Q2.60742-11.5137 1.9873-10.0879Q1.36719-8.66211 1.36719-7.05078Q1.36719-5.43945 1.9873-4.01367Q2.60742-2.58789 3.69629-1.49414Q4.78516-0.400391 6.21094 0.214844Q7.63672 0.830078 9.24805 0.830078ZM9.24805-0.654297Q7.91992-0.654297 6.7627-1.14746Q5.60547-1.64062 4.73145-2.51953Q3.85742-3.39844 3.36426-4.56055Q2.87109-5.72266 2.87109-7.05078Q2.87109-8.37891 3.35938-9.54102Q3.84766-10.7031 4.72168-11.582Q5.5957-12.4609 6.75293-12.9541Q7.91016-13.4473 9.23828-13.4473Q10.5762-13.4473 11.7334-12.9541Q12.8906-12.4609 13.7695-11.582Q14.6484-10.7031 15.1465-9.54102Q15.6445-8.37891 15.6445-7.05078Q15.6445-5.72266 15.1514-4.56055Q14.6582-3.39844 13.7842-2.51953Q12.9102-1.64062 11.748-1.14746Q10.5859-0.654297 9.24805-0.654297ZM5.83984-7.04102Q5.83984-6.71875 6.04492-6.51855Q6.25-6.31836 6.5918-6.31836L8.50586-6.31836L8.50586-4.39453Q8.50586-4.0625 8.70605-3.85742Q8.90625-3.65234 9.22852-3.65234Q9.56055-3.65234 9.76562-3.85742Q9.9707-4.0625 9.9707-4.39453L9.9707-6.31836L11.8945-6.31836Q12.2266-6.31836 12.4316-6.51855Q12.6367-6.71875 12.6367-7.04102Q12.6367-7.37305 12.4316-7.57812Q12.2266-7.7832 11.8945-7.7832L9.9707-7.7832L9.9707-9.69727Q9.9707-10.0391 9.76562-10.2441Q9.56055-10.4492 9.22852-10.4492Q8.90625-10.4492 8.70605-10.2441Q8.50586-10.0391 8.50586-9.69727L8.50586-7.7832L6.5918-7.7832Q6.25-7.7832 6.04492-7.57812Q5.83984-7.37305 5.83984-7.04102Z"/>
  </g>
  <g transform="matrix(1 0 0 1 281.867 1933)">
   <path d="M11.709 2.91016Q13.75 2.91016 15.5518 2.12891Q17.3535 1.34766 18.7305-0.0292969Q20.1074-1.40625 20.8887-3.20801Q21.6699-5.00977 21.6699-7.05078Q21.6699-9.0918 20.8887-10.8936Q20.1074-12.6953 18.7305-14.0723Q17.3535-15.4492 15.5469-16.2305Q13.7402-17.0117 11.6992-17.0117Q9.6582-17.0117 7.85645-16.2305Q6.05469-15.4492 4.68262-14.0723Q3.31055-12.6953 2.5293-10.8936Q1.74805-9.0918 1.74805-7.05078Q1.74805-5.00977 2.5293-3.20801Q3.31055-1.40625 4.6875-0.0292969Q6.06445 1.34766 7.86621 2.12891Q9.66797 2.91016 11.709 2.91016ZM11.709 1.25Q9.98047 1.25 8.47656 0.605469Q6.97266-0.0390625 5.83496-1.17676Q4.69727-2.31445 4.05762-3.81836Q3.41797-5.32227 3.41797-7.05078Q3.41797-8.7793 4.05762-10.2832Q4.69727-11.7871 5.83008-12.9297Q6.96289-14.0723 8.4668-14.7119Q9.9707-15.3516 11.6992-15.3516Q13.4277-15.3516 14.9316-14.7119Q16.4355-14.0723 17.5781-12.9297Q18.7207-11.7871 19.3652-10.2832Q20.0098-8.7793 20.0098-7.05078Q20.0098-5.32227 19.3701-3.81836Q18.7305-2.31445 17.5928-1.17676Q16.4551-0.0390625 14.9463 0.605469Q13.4375 1.25 11.709 1.25ZM7.39258-7.04102Q7.39258-6.68945 7.62695-6.46484Q7.86133-6.24023 8.23242-6.24023L10.8789-6.24023L10.8789-3.57422Q10.8789-3.21289 11.1035-2.9834Q11.3281-2.75391 11.6797-2.75391Q12.0508-2.75391 12.2852-2.9834Q12.5195-3.21289 12.5195-3.57422L12.5195-6.24023L15.1758-6.24023Q15.5371-6.24023 15.7715-6.46484Q16.0059-6.68945 16.0059-7.04102Q16.0059-7.41211 15.7715-7.6416Q15.5371-7.87109 15.1758-7.87109L12.5195-7.87109L12.5195-10.5176Q12.5195-10.8984 12.2852-11.1279Q12.0508-11.3574 11.6797-11.3574Q11.3281-11.3574 11.1035-11.1279Q10.8789-10.8984 10.8789-10.5176L10.8789-7.87109L8.23242-7.87109Q7.85156-7.87109 7.62207-7.6416Q7.39258-7.41211 7.39258-7.04102Z"/>
  </g>
  <g transform="matrix(1 0 0 1 305.646 1933)">
   <path d="M14.9707 5.66406Q17.0605 5.66406 18.96 5.01465Q20.8594 4.36523 22.4512 3.19336Q24.043 2.02148 25.2197 0.429688Q26.3965-1.16211 27.0459-3.06641Q27.6953-4.9707 27.6953-7.05078Q27.6953-9.14062 27.0459-11.04Q26.3965-12.9395 25.2197-14.5312Q24.043-16.123 22.4512-17.2998Q20.8594-18.4766 18.9551-19.126Q17.0508-19.7754 14.9609-19.7754Q12.8711-19.7754 10.9717-19.126Q9.07227-18.4766 7.48535-17.2998Q5.89844-16.123 4.72168-14.5312Q3.54492-12.9395 2.90039-11.04Q2.25586-9.14062 2.25586-7.05078Q2.25586-4.9707 2.90527-3.06641Q3.55469-1.16211 4.72656 0.429688Q5.89844 2.02148 7.49023 3.19336Q9.08203 4.36523 10.9814 5.01465Q12.8809 5.66406 14.9707 5.66406ZM14.9707 3.84766Q13.1641 3.84766 11.5283 3.2959Q9.89258 2.74414 8.53516 1.74805Q7.17773 0.751953 6.17676-0.610352Q5.17578-1.97266 4.62891-3.6084Q4.08203-5.24414 4.08203-7.05078Q4.08203-8.86719 4.62891-10.5029Q5.17578-12.1387 6.17188-13.501Q7.16797-14.8633 8.52539-15.8594Q9.88281-16.8555 11.5186-17.4023Q13.1543-17.9492 14.9609-17.9492Q16.7773-17.9492 18.4131-17.4023Q20.0488-16.8555 21.4111-15.8594Q22.7734-14.8633 23.7695-13.501Q24.7656-12.1387 25.3174-10.5029Q25.8691-8.86719 25.8691-7.05078Q25.8789-5.24414 25.332-3.6084Q24.7852-1.97266 23.7842-0.610352Q22.7832 0.751953 21.4209 1.74805Q20.0586 2.74414 18.4229 3.2959Q16.7871 3.84766 14.9707 3.84766ZM9.45312-7.04102Q9.45312-6.66016 9.71191-6.41113Q9.9707-6.16211 10.3711-6.16211L14.0625-6.16211L14.0625-2.46094Q14.0625-2.06055 14.3115-1.80664Q14.5605-1.55273 14.9414-1.55273Q15.3516-1.55273 15.6055-1.80664Q15.8594-2.06055 15.8594-2.46094L15.8594-6.16211L19.5605-6.16211Q19.9609-6.16211 20.2148-6.41113Q20.4688-6.66016 20.4688-7.04102Q20.4688-7.45117 20.2148-7.70508Q19.9609-7.95898 19.5605-7.95898L15.8594-7.95898L15.8594-11.6504Q15.8594-12.0605 15.6055-12.3145Q15.3516-12.5684 14.9414-12.5684Q14.5605-12.5684 14.3115-12.3096Q14.0625-12.0508 14.0625-11.6504L14.0625-7.95898L10.3711-7.95898Q9.96094-7.95898 9.70703-7.70508Q9.45312-7.45117 9.45312-7.04102Z"/>
  </g>
  <text style="stroke:none;fill:black;font-family:sans-serif;font-size:13;font-weight:bold;" transform="matrix(1 0 0 1 263 1953)">Design Variations</text>
  <text style="stroke:none;fill:black;font-family:sans-serif;font-size:13;" transform="matrix(1 0 0 1 263 1971)">Symbols are supported in up to nine weights and three scales.</text>
  <text style="stroke:none;fill:black;font-family:sans-serif;font-size:13;" transform="matrix(1 0 0 1 263 1989)">For optimal layout with text and other symbols, vertically align</text>
  <text style="stroke:none;fill:black;font-family:sans-serif;font-size:13;" transform="matrix(1 0 0 1 263 2007)">symbols with the adjacent text.</text>
  <line style="fill:none;stroke:#00AEEF;stroke-width:0.5;opacity:1.0;" x1="776" x2="776" y1="1919" y2="1933"/>
  <g transform="matrix(1 0 0 1 776 1933)">
   <path d="M3.31055 0.15625Q3.70117 0.15625 3.91602-0.00976562Q4.13086-0.175781 4.26758-0.585938L5.52734-4.0332L11.2891-4.0332L12.5488-0.585938Q12.6855-0.175781 12.9004-0.00976562Q13.1152 0.15625 13.4961 0.15625Q13.8867 0.15625 14.1162-0.0585938Q14.3457-0.273438 14.3457-0.644531Q14.3457-0.869141 14.2383-1.17188L9.6582-13.3691Q9.48242-13.8184 9.17969-14.043Q8.87695-14.2676 8.4082-14.2676Q7.5-14.2676 7.17773-13.3789L2.59766-1.16211Q2.49023-0.859375 2.49023-0.634766Q2.49023-0.263672 2.70996-0.0537109Q2.92969 0.15625 3.31055 0.15625ZM6.00586-5.51758L8.37891-12.0898L8.42773-12.0898L10.8008-5.51758Z"/>
  </g>
  <line style="fill:none;stroke:#00AEEF;stroke-width:0.5;opacity:1.0;" x1="793.197" x2="793.197" y1="1919" y2="1933"/>
  <text style="stroke:none;fill:black;font-family:sans-serif;font-size:13;font-weight:bold;" transform="matrix(1 0 0 1 776 1953)">Margins</text>
  <text style="stroke:none;fill:black;font-family:sans-serif;font-size:13;" transform="matrix(1 0 0 1 776 1971)">Leading and trailing margins on the left and right side of each symbol</text>
  <text style="stroke:none;fill:black;font-family:sans-serif;font-size:13;" transform="matrix(1 0 0 1 776 1989)">can be adjusted by modifying the x-location of the margin guidelines.</text>
  <text style="stroke:none;fill:black;font-family:sans-serif;font-size:13;" transform="matrix(1 0 0 1 776 2007)">Modifications are automatically applied proportionally to all</text>
  <text style="stroke:none;fill:black;font-family:sans-serif;font-size:13;" transform="matrix(1 0 0 1 776 2025)">scales and weights.</text>
  <g transform="matrix(1 0 0 1 1289 1933)">
   <path d="M2.8418 1.86523L4.54102 3.57422Q5.18555 4.22852 5.90332 4.17969Q6.62109 4.13086 7.31445 3.35938L18.0078-8.42773L17.041-9.4043L6.42578 2.27539Q6.16211 2.57812 5.89355 2.61719Q5.625 2.65625 5.27344 2.30469L4.10156 1.14258Q3.75 0.791016 3.79395 0.522461Q3.83789 0.253906 4.14062-0.0195312L15.6152-10.8203L14.6387-11.7871L3.04688-0.898438Q2.30469-0.214844 2.25098 0.498047Q2.19727 1.21094 2.8418 1.86523ZM9.25781-16.3281Q8.94531-16.0254 8.90625-15.6348Q8.86719-15.2441 9.04297-14.9512Q9.21875-14.6777 9.55566-14.541Q9.89258-14.4043 10.3809-14.5215Q11.4746-14.7754 12.5977-14.7314Q13.7207-14.6875 14.7949-13.9844L14.209-12.5293Q13.9551-11.9043 14.0674-11.4404Q14.1797-10.9766 14.5801-10.5664L16.875-8.25195Q17.2363-7.88086 17.5781-7.82227Q17.9199-7.76367 18.3398-7.8418L19.4043-8.03711L20.0684-7.36328L20.0293-6.80664Q20-6.43555 20.1221-6.12305Q20.2441-5.81055 20.6055-5.44922L21.3672-4.70703Q21.7285-4.3457 22.1533-4.33105Q22.5781-4.31641 22.9297-4.66797L25.8398-7.58789Q26.1914-7.93945 26.1816-8.35449Q26.1719-8.76953 25.8105-9.13086L25.0391-9.89258Q24.6875-10.2539 24.3799-10.3857Q24.0723-10.5176 23.7109-10.4883L23.1348-10.4395L22.4902-11.0742L22.7344-12.1973Q22.832-12.6172 22.6953-12.9834Q22.5586-13.3496 22.1191-13.7891L19.9219-15.9766Q18.6719-17.2168 17.2607-17.8369Q15.8496-18.457 14.4189-18.4814Q12.9883-18.5059 11.665-17.959Q10.3418-17.4121 9.25781-16.3281ZM10.752-15.957Q11.6602-16.6211 12.7002-16.9043Q13.7402-17.1875 14.8047-17.085Q15.8691-16.9824 16.8701-16.5137Q17.8711-16.0449 18.7012-15.2051L21.1328-12.793Q21.3086-12.6172 21.3525-12.4512Q21.3965-12.2852 21.3379-12.0312L21.0156-10.5469L22.5195-9.0625L23.5059-9.12109Q23.6914-9.13086 23.7891-9.09668Q23.8867-9.0625 24.0332-8.91602L24.6094-8.33984L22.168-5.89844L21.5918-6.47461Q21.4453-6.62109 21.4062-6.71875Q21.3672-6.81641 21.377-7.01172L21.4453-7.98828L19.9512-9.47266L18.4277-9.21875Q18.1836-9.16992 18.042-9.2041Q17.9004-9.23828 17.7148-9.41406L15.7129-11.416Q15.5176-11.5918 15.4932-11.7529Q15.4688-11.9141 15.5859-12.1875L16.4648-14.2773Q15.293-15.3711 13.8281-15.791Q12.3633-16.2109 10.8398-15.7617Q10.7227-15.7324 10.6885-15.8057Q10.6543-15.8789 10.752-15.957Z"/>
  </g>
  <text style="stroke:none;fill:black;font-family:sans-serif;font-size:13;font-weight:bold;" transform="matrix(1 0 0 1 1289 1953)">Exporting</text>
  <text style="stroke:none;fill:black;font-family:sans-serif;font-size:13;" transform="matrix(1 0 0 1 1289 1971)">Symbols should be outlined when exporting to ensure the</text>
  <text style="stroke:none;fill:black;font-family:sans-serif;font-size:13;" transform="matrix(1 0 0 1 1289 1989)">design is preserved when submitting to Xcode.</text>
  <text id="template-version" style="stroke:none;fill:black;font-family:sans-serif;font-size:13;text-anchor:end;" transform="matrix(1 0 0 1 3036 1933)">Template v.3.0</text>
  <text style="stroke:none;fill:black;font-family:sans-serif;font-size:13;text-anchor:end;" transform="matrix(1 0 0 1 3036 1951)">Requires Xcode 13 or greater</text>
  <text id="descriptive-name" style="stroke:none;fill:black;font-family:sans-serif;font-size:13;text-anchor:end;" transform="matrix(1 0 0 1 3036 1969)">Generated from menucard</text>
  <text style="stroke:none;fill:black;font-family:sans-serif;font-size:13;text-anchor:end;" transform="matrix(1 0 0 1 3036 1987)">Typeset at 100 points</text>
  <text style="stroke:none;fill:black;font-family:sans-serif;font-size:13;" transform="matrix(1 0 0 1 263 726)">Small</text>
  <text style="stroke:none;fill:black;font-family:sans-serif;font-size:13;" transform="matrix(1 0 0 1 263 1156)">Medium</text>
  <text style="stroke:none;fill:black;font-family:sans-serif;font-size:13;" transform="matrix(1 0 0 1 263 1586)">Large</text>
 </g>
 <g id="Guides">
  <g id="H-reference" style="fill:#27AAE1;stroke:none;" transform="matrix(1 0 0 1 339 696)">
   <path d="M0.993347 0L3.6377 0L29.3282-67.1326L30.0301-67.1326L30.0301-70.459L28.1227-70.459ZM11.6882-24.4797L46.9818-24.4797L46.2311-26.7288L12.4382-26.7288ZM55.1193 0L57.7637 0L30.6381-70.459L29.4327-70.459L29.4327-67.1326Z"/>
  </g>
  <line id="Baseline-S" style="fill:none;stroke:#27AAE1;opacity:1;stroke-width:0.5;" x1="263" x2="3036" y1="696" y2="696"/>
  <line id="Capline-S" style="fill:none;stroke:#27AAE1;opacity:1;stroke-width:0.5;" x1="263" x2="3036" y1="625.541" y2="625.541"/>
  <g id="H-reference" style="fill:#27AAE1;stroke:none;" transform="matrix(1 0 0 1 339 1126)">
   <path d="M0.993347 0L3.6377 0L29.3282-67.1326L30.0301-67.1326L30.0301-70.459L28.1227-70.459ZM11.6882-24.4797L46.9818-24.4797L46.2311-26.7288L12.4382-26.7288ZM55.1193 0L57.7637 0L30.6381-70.459L29.4327-70.459L29.4327-67.1326Z"/>
  </g>
  <line id="Baseline-M" style="fill:none;stroke:#27AAE1;opacity:1;stroke-width:0.5;" x1="263" x2="3036" y1="1126" y2="1126"/>
  <line id="Capline-M" style="fill:none;stroke:#27AAE1;opacity:1;stroke-width:0.5;" x1="263" x2="3036" y1="1055.54" y2="1055.54"/>
  <g id="H-reference" style="fill:#27AAE1;stroke:none;" transform="matrix(1 0 0 1 339 1556)">
   <path d="M0.993347 0L3.6377 0L29.3282-67.1326L30.0301-67.1326L30.0301-70.459L28.1227-70.459ZM11.6882-24.4797L46.9818-24.4797L46.2311-26.7288L12.4382-26.7288ZM55.1193 0L57.7637 0L30.6381-70.459L29.4327-70.459L29.4327-67.1326Z"/>
  </g>
  <line id="Baseline-L" style="fill:none;stroke:#27AAE1;opacity:1;stroke-width:0.5;" x1="263" x2="3036" y1="1556" y2="1556"/>
  <line id="Capline-L" style="fill:none;stroke:#27AAE1;opacity:1;stroke-width:0.5;" x1="263" x2="3036" y1="1485.54" y2="1485.54"/>
  <line id="left-margin-Regular-M" style="fill:none;stroke:#00AEEF;stroke-width:0.5;opacity:1.0;" x1="1396.82" x2="1396.82" y1="1030.79" y2="1150.12"/>
  <line id="right-margin-Regular-M" style="fill:none;stroke:#00AEEF;stroke-width:0.5;opacity:1.0;" x1="1502.87" x2="1502.87" y1="1030.79" y2="1150.12"/>
 </g>
 <g id="Symbols">
  <g id="Black-L" transform="matrix(1 0 0 1 2859.35 1556)">
   <path d="M33.1055 29.7363L105.322 42.5293Q113.428 43.9453 119.434 41.3818Q125.439 38.8184 128.735 32.8613Q132.031 26.9043 132.031 18.1152L132.031-58.4473Q132.031-66.6504 129.517-71.9727Q127.002-77.2949 121.631-80.3955Q116.26-83.4961 107.764-85.0098L37.9395-97.3145Q31.6406-98.4375 26.709-96.3867Q21.7773-94.3359 18.9209-89.7949Q16.0645-85.2539 16.0645-78.8574L16.0645 10.0098Q16.0645 18.0664 20.5078 23.1689Q24.9512 28.2715 33.1055 29.7363ZM40.8691 9.52148Q39.0625 9.22852 38.2568 8.05664Q37.4512 6.88477 37.4512 5.37109L37.4512-71.5332Q37.4512-73.4863 38.623-74.4873Q39.7949-75.4883 41.7969-75.0977L105.469-63.8672Q108.008-63.4277 109.326-62.1826Q110.645-60.9375 110.645-58.5938L110.645 16.4062Q110.645 18.8965 109.204 20.1416Q107.764 21.3867 105.322 20.9473ZM107.91-67.041L126.416-67.041L126.416-86.1816Q126.416-94.7266 122.607-100.366Q118.799-106.006 111.768-108.228Q104.736-110.449 95.0684-108.789L29.5898-97.2656L34.8145-80.5176L100.244-91.7969Q103.564-92.3828 105.737-91.1621Q107.91-89.9414 107.91-87.207ZM51.6602-46.6309L92.9688-39.2578Q96.0449-38.7207 98.0713-40.4785Q100.098-42.2363 100.098-45.2637Q100.098-50.4883 95.0684-51.416L54.1016-58.6426Q50.9277-59.2285 48.8281-57.5195Q46.7285-55.8105 46.7285-52.832Q46.7285-50.3906 48.0225-48.7061Q49.3164-47.0215 51.6602-46.6309ZM51.6602-22.9492L92.9688-15.5762Q96.0449-14.9902 98.0713-16.7969Q100.098-18.6035 100.098-21.6309Q100.098-26.8066 95.0684-27.7344L54.1016-34.9609Q50.9277-35.498 48.8281-33.7891Q46.7285-32.0801 46.7285-29.1504Q46.7285-26.709 48.0713-25.0244Q49.4141-23.3398 51.6602-22.9492Z"/>
  </g>
  <g id="Heavy-L" transform="matrix(1 0 0 1 2564.14 1556)">
   <path d="M31.8726 28.3531L103.835 41.0889Q111.503 42.4355 117.169 40.0448Q122.835 37.6541 125.929 32.0545Q129.023 26.4549 129.023 18.1381L129.023-58.7814Q129.023-66.4658 126.612-71.431Q124.201-76.3962 119.118-79.2664Q114.036-82.1365 106.093-83.5579L36.3953-95.8397Q30.4764-96.8933 25.8965-95.0268Q21.3165-93.1602 18.6905-88.9767Q16.0645-84.7931 16.0645-78.846L16.0645 10.0555Q16.0645 17.5827 20.1565 22.2816Q24.2485 26.9806 31.8726 28.3531ZM38.2759 10.8932Q36.2732 10.5652 35.358 9.30138Q34.4429 8.03757 34.4429 6.2355L34.4429-72.905Q34.4429-75.0771 35.7704-76.1642Q37.0979-77.2514 39.3654-76.8265L104.236-65.3885Q107.397-64.8338 109.021-63.3236Q110.645-61.8134 110.645-58.9508L110.645 16.6367Q110.645 19.8875 108.789 21.4725Q106.934 23.0576 103.79 22.4915ZM107.23-68.1587L123.408-68.1587L123.408-86.3083Q123.408-94.323 119.859-99.5766Q116.309-104.83 109.745-106.879Q103.181-108.928 94.1231-107.36L28.5408-95.8138L33.2703-81.2439L98.7808-92.4767Q102.539-93.1206 104.885-91.7095Q107.23-90.2985 107.23-87.149ZM49.0211-48.5321L92.3698-40.8249Q95.1805-40.3343 96.9936-41.925Q98.8068-43.5158 98.8068-46.2204Q98.8068-50.9148 94.2505-51.7616L51.2093-59.3338Q48.3345-59.8625 46.4481-58.3263Q44.5618-56.7902 44.5618-54.1229Q44.5618-51.9119 45.7291-50.4002Q46.8964-48.8884 49.0211-48.5321ZM49.0211-24.7009L92.3698-16.9937Q95.1805-16.4658 96.9936-18.0935Q98.8068-19.7212 98.8068-22.4373Q98.8068-27.095 94.2505-27.9305L51.2093-35.5026Q48.3345-35.994 46.4481-34.4578Q44.5618-32.9216 44.5618-30.291Q44.5618-28.0807 45.7664-26.569Q46.9711-25.0572 49.0211-24.7009Z"/>
  </g>
  <g id="Bold-L" transform="matrix(1 0 0 1 2269.12 1556)">
   <path d="M30.4932 26.8066L102.173 39.4775Q109.351 40.7471 114.636 38.5498Q119.922 36.3525 122.791 31.1523Q125.659 25.9521 125.659 18.1641L125.659-59.1553Q125.659-66.2598 123.364-70.8252Q121.069-75.3906 116.309-78.0029Q111.548-80.6152 104.224-81.9336L34.668-94.1895Q29.1748-95.166 24.9878-93.5059Q20.8008-91.8457 18.4326-88.0615Q16.0645-84.2773 16.0645-78.833L16.0645 10.1074Q16.0645 17.041 19.7632 21.2891Q23.4619 25.5371 30.4932 26.8066ZM35.376 12.4268Q33.1543 12.0605 32.1167 10.6934Q31.0791 9.32617 31.0791 7.20215L31.0791-74.4385Q31.0791-76.8555 32.5806-78.0396Q34.082-79.2236 36.6455-78.7598L102.856-67.0898Q106.714-66.4062 108.679-64.5996Q110.645-62.793 110.645-59.3506L110.645 16.8945Q110.645 20.9961 108.325 22.9614Q106.006 24.9268 102.075 24.2188ZM106.47-69.4092L120.044-69.4092L120.044-86.4502Q120.044-93.8721 116.785-98.6938Q113.525-103.516 107.483-105.371Q101.44-107.227 93.0664-105.762L27.3682-94.1895L31.543-82.0557L97.1436-93.2373Q101.392-93.9453 103.931-92.3218Q106.47-90.6982 106.47-87.085ZM46.0693-50.6592L91.6992-42.5781Q94.2139-42.1387 95.7886-43.5425Q97.3633-44.9463 97.3633-47.29Q97.3633-51.3916 93.335-52.1484L47.9736-60.1074Q45.4346-60.5713 43.7866-59.2285Q42.1387-57.8857 42.1387-55.5664Q42.1387-53.6133 43.1641-52.2949Q44.1895-50.9766 46.0693-50.6592ZM46.0693-26.6602L91.6992-18.5791Q94.2139-18.1152 95.7886-19.5435Q97.3633-20.9717 97.3633-23.3398Q97.3633-27.417 93.335-28.1494L47.9736-36.1084Q45.4346-36.5479 43.7866-35.2051Q42.1387-33.8623 42.1387-31.5674Q42.1387-29.6143 43.1885-28.2959Q44.2383-26.9775 46.0693-26.6602Z"/>
  </g>
  <g id="Semibold-L" transform="matrix(1 0 0 1 1973.56 1556)">
   <path d="M29.5425 25.7401L101.026 38.3667Q107.867 39.5828 112.89 37.5191Q117.913 35.4553 120.626 30.5305Q123.34 25.6058 123.34 18.1816L123.34-59.4131Q123.34-66.1179 121.125-70.4075Q118.909-74.6971 114.371-77.1317Q109.833-79.5662 102.935-80.8136L33.477-93.0519Q28.2776-93.9751 24.3614-92.4572Q20.4453-90.9393 18.2549-87.4306Q16.0645-83.9218 16.0645-78.8239L16.0645 10.1433Q16.0645 16.6679 19.492 20.6047Q22.9195 24.5415 29.5425 25.7401ZM33.3763 13.4842Q31.0036 13.0913 29.8817 11.6531Q28.7598 10.215 28.7598 7.86896L28.7598-75.4959Q28.7598-78.0815 30.381-79.3324Q32.0023-80.5832 34.7702-80.0926L101.906-68.2632Q106.243-67.4904 108.444-65.4793Q110.645-63.4682 110.645-59.626L110.645 17.0723Q110.645 21.7606 108.005 23.988Q105.366 26.2154 100.893 25.4097ZM105.946-70.2713L117.725-70.2713L117.725-86.5479Q117.725-93.5608 114.665-98.085Q111.606-102.609 105.923-104.331Q100.24-106.053 92.3378-104.66L26.5594-93.0695L30.352-82.6157L96.0152-93.7614Q100.6-94.5145 103.273-92.7441Q105.946-90.9737 105.946-87.0407ZM44.0346-52.1255L91.2369-43.7866Q93.5471-43.383 94.9574-44.6579Q96.3676-45.9328 96.3676-48.0278Q96.3676-51.7204 92.704-52.4147L45.7428-60.6407Q43.4349-61.0603 41.9514-59.8507Q40.4678-58.6411 40.4678-56.562Q40.4678-54.7867 41.3956-53.6015Q42.3233-52.4162 44.0346-52.1255ZM44.0346-28.0113L91.2369-19.6724Q93.5471-19.2528 94.9574-20.5433Q96.3676-21.8338 96.3676-23.9616Q96.3676-27.639 92.704-28.3005L45.7428-36.5257Q43.4349-36.9301 41.9514-35.7204Q40.4678-34.5108 40.4678-32.4471Q40.4678-30.6717 41.4112-29.4868Q42.3546-28.302 44.0346-28.0113Z"/>
  </g>
  <g id="Medium-L" transform="matrix(1 0 0 1 1677.73 1556)">
   <path d="M28.8216 24.9313L100.157 37.5244Q106.741 38.7001 111.566 36.7371Q116.39 34.774 118.986 30.0583Q121.581 25.3426 121.581 18.1953L121.581-59.6085Q121.581-66.0095 119.427-70.0909Q117.272-74.1722 112.902-76.4717Q108.532-78.7712 101.958-79.9644L32.5745-92.1898Q27.5963-93.0725 23.8861-91.6622Q20.1759-90.2519 18.1202-86.9522Q16.0645-83.6525 16.0645-78.8177L16.0645 10.17Q16.0645 16.3849 19.2867 20.0859Q22.509 23.7869 28.8216 24.9313ZM31.8604 14.286Q29.3732 13.8733 28.1872 12.381Q27.0012 10.8887 27.0012 8.37402L27.0012-76.2978Q27.0012-79.0115 28.7136-80.3131Q30.426-81.6147 33.3488-81.1035L101.185-69.1521Q105.886-68.3128 108.265-66.1469Q110.645-63.9809 110.645-59.8351L110.645 17.2073Q110.645 22.3396 107.763 24.7662Q104.881 27.1927 99.9969 26.3123ZM105.548-70.9251L115.966-70.9251L115.966-86.6219Q115.966-93.325 113.058-97.6234Q110.15-101.922 104.741-103.543Q99.3309-105.164 91.7854-103.824L25.946-92.2203L29.4495-83.0399L95.1591-94.1589Q100.001-94.9455 102.774-93.0641Q105.548-91.1827 105.548-87.0071ZM42.4911-53.2372L90.8867-44.7029Q93.042-44.326 94.3275-45.5032Q95.6131-46.6805 95.6131-48.587Q95.6131-51.9699 92.2256-52.6169L44.0514-61.0451Q41.9189-61.4304 40.5602-60.3222Q39.2014-59.214 39.2014-57.3166Q39.2014-55.6755 40.0547-54.5918Q40.9081-53.508 42.4911-53.2372ZM42.4911-29.0352L90.8867-20.5009Q93.042-20.1157 94.3275-21.3017Q95.6131-22.4876 95.6131-24.4339Q95.6131-27.8076 92.2256-28.4149L44.0514-36.8431Q41.9189-37.22 40.5602-36.1115Q39.2014-35.0029 39.2014-33.1146Q39.2014-31.4735 40.0635-30.3898Q40.9256-29.306 42.4911-29.0352Z"/>
  </g>
  <g id="Regular-L" transform="matrix(1 0 0 1 1382.17 1556)">
   <path d="M27.8809 23.877L99.0234 36.4258Q105.273 37.5488 109.839 35.7178Q114.404 33.8867 116.846 29.4434Q119.287 25 119.287 18.2129L119.287-59.8633Q119.287-65.8691 117.212-69.6777Q115.137-73.4863 110.986-75.6104Q106.836-77.7344 100.684-78.8574L31.3965-91.0645Q26.709-91.8945 23.2666-90.625Q19.8242-89.3555 17.9443-86.3281Q16.0645-83.3008 16.0645-78.8086L16.0645 10.2051Q16.0645 16.0156 19.0186 19.4092Q21.9727 22.8027 27.8809 23.877ZM29.8828 15.332Q27.2461 14.8926 25.9766 13.3301Q24.707 11.7676 24.707 9.0332L24.707-77.3438Q24.707-80.2246 26.5381-81.5918Q28.3691-82.959 31.4941-82.4219L100.244-70.3125Q105.42-69.3848 108.032-67.0166Q110.645-64.6484 110.645-60.1074L110.645 17.3828Q110.645 23.0957 107.446 25.7812Q104.248 28.4668 98.8281 27.4902ZM105.029-71.7773L113.672-71.7773L113.672-86.7188Q113.672-93.0176 110.962-97.0215Q108.252-101.025 103.198-102.515Q98.1445-104.004 91.0645-102.734L25.1465-91.1133L28.2715-83.5938L94.043-94.6777Q99.2188-95.5078 102.124-93.4814Q105.029-91.4551 105.029-86.9629ZM40.4785-54.6875L90.4297-45.8984Q92.3828-45.5566 93.5059-46.6064Q94.6289-47.6562 94.6289-49.3164Q94.6289-52.2949 91.6016-52.8809L41.8457-61.5723Q39.9414-61.9141 38.7451-60.9375Q37.5488-59.9609 37.5488-58.3008Q37.5488-56.8359 38.3057-55.8838Q39.0625-54.9316 40.4785-54.6875ZM40.4785-30.3711L90.4297-21.582Q92.3828-21.2402 93.5059-22.29Q94.6289-23.3398 94.6289-25.0488Q94.6289-28.0273 91.6016-28.5645L41.8457-37.2559Q39.9414-37.5977 38.7451-36.6211Q37.5488-35.6445 37.5488-33.9844Q37.5488-32.5195 38.3057-31.5674Q39.0625-30.6152 40.4785-30.3711Z"/>
  </g>
  <g id="Light-L" transform="matrix(1 0 0 1 1086.47 1556)">
   <path d="M27.0485 23.1049L97.5555 35.5324Q103.578 36.6257 108.015 34.893Q112.452 33.1604 114.855 28.9364Q117.258 24.7124 117.258 18.2732L117.258-59.9846Q117.258-65.4755 115.327-69.0796Q113.396-72.6837 109.488-74.77Q105.579-76.8562 99.7147-77.919L30.7457-90.0803Q26.2093-90.8806 22.9183-89.7472Q19.6274-88.6139 17.8459-85.8135Q16.0645-83.0132 16.0645-78.7628L16.0645 10.3111Q16.0645 15.7738 18.7763 18.9476Q21.4882 22.1214 27.0485 23.1049ZM28.4752 16.5886Q25.5203 16.0881 24.0993 14.344Q22.6784 12.5999 22.6784 9.48715L22.6784-77.6466Q22.6784-81.0272 24.7898-82.6061Q26.9012-84.185 30.6007-83.5266L99.4118-71.402Q105.087-70.3987 107.866-67.7505Q110.645-65.1024 110.645-60.3798L110.645 17.7765Q110.645 24.0036 107.091 26.9165Q103.537 29.8294 97.6173 28.7766ZM105.029-71.8376L111.629-71.8376L111.629-87.0514Q111.629-92.8665 109.115-96.5675Q106.602-100.269 101.896-101.644Q97.1909-103.02 90.5952-101.826L24.6017-90.1749L26.8639-84.3506L92.8169-95.6467Q98.568-96.6125 101.799-94.3668Q105.029-92.1211 105.029-87.1445ZM38.4499-55.8228L90.2931-46.701Q91.8678-46.4195 92.7715-47.2725Q93.6752-48.1255 93.6752-49.4225Q93.6752-51.7799 91.1774-52.2453L39.4241-61.2999Q37.8983-61.5814 36.9514-60.7788Q36.0046-59.9762 36.0046-58.6792Q36.0046-57.5172 36.6329-56.7692Q37.2612-56.0211 38.4499-55.8228ZM38.4499-31.8695L90.2931-22.7631Q91.8678-22.4815 92.7715-23.3345Q93.6752-24.1875 93.6752-25.5028Q93.6752-27.8763 91.1774-28.3073L39.4241-37.3466Q37.8983-37.6434 36.9514-36.8332Q36.0046-36.0229 36.0046-34.7412Q36.0046-33.564 36.6329-32.8163Q37.2612-32.0686 38.4499-31.8695Z"/>
  </g>
  <g id="Thin-L" transform="matrix(1 0 0 1 791.102 1556)">
   <path d="M25.9476 22.084L95.6131 34.3513Q101.336 35.4042 105.603 33.8017Q109.869 32.1991 112.223 28.2658Q114.577 24.3324 114.577 18.3533L114.577-60.1448Q114.577-64.9551 112.835-68.2892Q111.094-71.6232 107.506-73.6591Q103.918-75.695 98.4337-76.6777L29.8851-88.7794Q25.5486-89.5393 22.4579-88.586Q19.3672-87.6328 17.7158-85.133Q16.0645-82.6332 16.0645-78.7033L16.0645 10.4515Q16.0645 15.4533 18.4563 18.3369Q20.8481 21.2204 25.9476 22.084ZM26.6136 18.2495Q23.2384 17.6697 21.6175 15.6853Q19.9966 13.7009 19.9966 10.0876L19.9966-78.0472Q19.9966-82.0877 22.4777-83.947Q24.9588-85.8063 29.4197-84.9884L98.3109-72.8439Q104.646-71.74 107.645-68.7214Q110.645-65.7028 110.645-60.7399L110.645 18.2968Q110.645 25.2052 106.62 28.418Q102.596 31.6307 96.0159 30.4787ZM105.029-71.9177L108.926-71.9177L108.926-87.4924Q108.926-92.6659 106.673-95.9667Q104.42-99.2676 100.175-100.493Q95.9297-101.719 89.975-100.625L23.8808-88.9336L25.0023-85.3516L91.1957-96.9276Q97.7074-98.0743 101.368-95.5379Q105.029-93.0016 105.029-87.3848ZM35.7681-57.3242L90.1131-47.7615Q91.1873-47.5601 91.8007-48.1529Q92.4141-48.7457 92.4141-49.5628Q92.4141-51.0994 90.6174-51.4046L36.2213-60.9398Q35.1952-61.1404 34.5791-60.5682Q33.963-59.996 33.963-59.1797Q33.963-58.4183 34.4212-57.9407Q34.8793-57.4631 35.7681-57.3242ZM35.7681-33.8516L90.1131-24.324Q91.1873-24.1226 91.8007-24.7154Q92.4141-25.3082 92.4141-26.1032Q92.4141-27.6756 90.6174-27.9671L36.2213-37.4664Q35.1952-37.7029 34.5791-37.1132Q33.963-36.5234 33.963-35.7422Q33.963-34.9449 34.4212-34.4677Q34.8793-33.9905 35.7681-33.8516Z"/>
  </g>
  <g id="Ultralight-L" transform="matrix(1 0 0 1 495.078 1556)">
   <path d="M25.383 21.5614L94.619 33.7463Q100.188 34.7786 104.367 33.2428Q108.546 31.707 110.874 27.9221Q113.202 24.1371 113.202 18.3945L113.202-60.2264Q113.202-64.6881 111.558-67.8837Q109.914-71.0793 106.491-73.09Q103.067-75.1007 97.7776-76.0422L29.4441-88.1126Q25.2106-88.8519 22.2221-87.9913Q19.2337-87.1307 17.6491-84.7843Q16.0645-82.4379 16.0645-78.672L16.0645 10.5232Q16.0645 15.2893 18.2919 18.0244Q20.5193 20.7596 25.383 21.5614ZM25.6599 19.101Q22.0695 18.4799 20.3457 16.3727Q18.6218 14.2654 18.6218 10.3958L18.6218-78.2516Q18.6218-82.6317 21.2933-84.6344Q23.9647-86.6371 28.8147-85.7368L97.7463-73.5817Q104.421-72.4274 107.533-69.2192Q110.645-66.011 110.645-60.9245L110.645 18.5638Q110.645 25.8202 106.379 29.187Q102.114 32.5539 95.195 31.3499ZM105.029-71.9589L107.542-71.9589L107.542-87.7174Q107.542-92.5636 105.422-95.6593Q103.302-98.7549 99.2928-99.9035Q95.2835-101.052 89.6568-100.01L23.5115-88.298L24.0486-85.8643L90.3648-97.5838Q97.2664-98.8228 101.148-96.138Q105.029-93.4532 105.029-87.5076ZM34.3933-58.0933L90.0208-48.3055Q90.8386-48.1453 91.3033-48.6046Q91.7679-49.0639 91.7679-49.6346Q91.7679-50.7507 90.3297-50.9735L34.5802-60.7552Q33.8112-60.9154 33.3641-60.461Q32.917-60.0067 32.917-59.436Q32.917-58.8791 33.2878-58.54Q33.6586-58.2008 34.3933-58.0933ZM34.3933-34.8663L90.0208-25.1244Q90.8386-24.9641 91.3033-25.4234Q91.7679-25.8827 91.7679-26.4114Q91.7679-27.5734 90.3297-27.7924L34.5802-37.5282Q33.8112-37.7342 33.3641-37.257Q32.917-36.7798 32.917-36.2549Q32.917-35.6529 33.2878-35.3138Q33.6586-34.9747 34.3933-34.8663Z"/>
  </g>
  <g id="Black-M" transform="matrix(1 0 0 1 2875.05 1126)">
   <path d="M26.416 16.0645L82.4219 25.9766Q88.9648 27.0996 93.8721 25.0244Q98.7793 22.9492 101.514 18.0908Q104.248 13.2324 104.248 6.10352L104.248-53.0273Q104.248-62.8906 99.6582-67.8955Q95.0684-72.9004 84.6191-74.7559L30.5176-84.2773Q25.3418-85.2051 21.2646-83.4961Q17.1875-81.7871 14.8193-78.0518Q12.4512-74.3164 12.4512-69.043L12.4512-0.195312Q12.4512 6.39648 16.1133 10.6201Q19.7754 14.8438 26.416 16.0645ZM33.4473-1.26953Q32.0312-1.51367 31.4697-2.41699Q30.9082-3.32031 30.9082-4.3457L30.9082-62.3047Q30.9082-63.7695 31.7871-64.5508Q32.666-65.332 34.1797-65.0391L82.5195-56.4941Q84.082-56.25 84.9121-55.3955Q85.7422-54.541 85.7422-53.125L85.7422 4.73633Q85.7422 6.20117 84.8633 6.93359Q83.9844 7.66602 82.5195 7.37305ZM84.2285-58.9355L99.8535-58.9355L99.8535-74.707Q99.8535-85.1074 92.9688-90.1611Q86.084-95.2148 74.3652-93.1152L23.6816-84.2285L27.832-69.9707L78.5156-78.8086Q80.9082-79.248 82.5684-78.3936Q84.2285-77.5391 84.2285-75.5859ZM41.6016-42.8223L72.5098-37.3047Q75-36.8164 76.6846-38.2812Q78.3691-39.7461 78.3691-42.2363Q78.3691-46.5332 74.2188-47.2656L43.5547-52.6855Q41.0156-53.1738 39.2822-51.7578Q37.5488-50.3418 37.5488-47.9004Q37.5488-45.8984 38.623-44.5068Q39.6973-43.1152 41.6016-42.8223ZM41.6016-24.7559L72.5098-19.1895Q75-18.7012 76.6846-20.1904Q78.3691-21.6797 78.3691-24.1699Q78.3691-28.3691 74.2188-29.1504L43.5547-34.5703Q41.0156-35.0586 39.2822-33.6426Q37.5488-32.2266 37.5488-29.7852Q37.5488-27.832 38.6719-26.4404Q39.7949-25.0488 41.6016-24.7559Z"/>
  </g>
  <g id="Heavy-M" transform="matrix(1 0 0 1 2579.6 1126)">
   <path d="M25.3906 14.8659L81.2813 24.7551Q87.455 25.8202 92.0509 23.8892Q96.6469 21.9582 99.1913 17.3992Q101.736 12.8403 101.736 6.11496L101.736-53.3157Q101.736-62.6137 97.3301-67.2096Q92.9245-71.8056 83.1902-73.5229L29.1458-83.0444Q24.3164-83.9027 20.5502-82.3551Q16.7839-80.8075 14.6175-77.3659Q12.4512-73.9243 12.4512-69.0315L12.4512-0.172424Q12.4512 5.97 15.8195 9.85374Q19.1879 13.7375 25.3906 14.8659ZM31.2119-0.209045Q29.6921-0.46463 29.0497-1.41411Q28.4073-2.36359 28.4073-3.60794L28.4073-63.5727Q28.4073-65.1527 29.3728-65.974Q30.3383-66.7953 32.0015-66.4795L81.4941-57.7507Q83.5632-57.4028 84.6527-56.3522Q85.7422-55.3017 85.7422-53.4134L85.7422 4.87442Q85.7422 6.97327 84.5348 7.9937Q83.3275 9.01413 81.2752 8.6174ZM83.5602-60.0189L97.3526-60.0189L97.3526-74.765Q97.3526-84.5314 90.9405-89.2105Q84.5284-93.8896 73.5237-91.9281L22.76-83.007L26.622-70.5124L77.3514-79.258Q80.0438-79.744 81.802-78.7453Q83.5602-77.7466 83.5602-75.5051ZM39.4577-44.4359L71.9566-38.6528Q74.2622-38.2111 75.7854-39.5489Q77.3087-40.8867 77.3087-43.1465Q77.3087-47.0634 73.5161-47.7379L41.2498-53.4233Q38.9183-53.8651 37.3405-52.5818Q35.7628-51.2985 35.7628-49.0761Q35.7628-47.2466 36.739-45.9763Q37.7151-44.706 39.4577-44.4359ZM39.4577-26.1391L71.9566-20.3186Q74.2622-19.8769 75.7854-21.2334Q77.3087-22.5899 77.3087-24.8497Q77.3087-28.6919 73.5161-29.4037L41.2498-35.0891Q38.9183-35.5309 37.3405-34.2419Q35.7628-32.9529 35.7628-30.7419Q35.7628-28.9383 36.7764-27.6733Q37.7899-26.4084 39.4577-26.1391Z"/>
  </g>
  <g id="Bold-M" transform="matrix(1 0 0 1 2284.29 1126)">
   <path d="M24.2432 13.5254L80.0049 23.3887Q85.7666 24.3896 90.0146 22.6196Q94.2627 20.8496 96.5942 16.626Q98.9258 12.4023 98.9258 6.12793L98.9258-53.6377Q98.9258-62.3047 94.7266-66.4429Q90.5273-70.5811 81.5918-72.1436L27.6123-81.665Q23.1689-82.4463 19.751-81.0791Q16.333-79.7119 14.3921-76.5991Q12.4512-73.4863 12.4512-69.0186L12.4512-0.146484Q12.4512 5.49316 15.4907 8.99658Q18.5303 12.5 24.2432 13.5254ZM28.7109 0.976562Q27.0752 0.708008 26.3428-0.292969Q25.6104-1.29395 25.6104-2.7832L25.6104-64.9902Q25.6104-66.6992 26.6724-67.5659Q27.7344-68.4326 29.5654-68.0908L80.3467-59.1553Q82.9834-58.6914 84.3628-57.4219Q85.7422-56.1523 85.7422-53.7354L85.7422 5.0293Q85.7422 7.83691 84.1675 9.17969Q82.5928 10.5225 79.8828 10.0098ZM82.8125-61.2305L94.5557-61.2305L94.5557-74.8291Q94.5557-83.8867 88.6719-88.147Q82.7881-92.4072 72.583-90.6006L21.7285-81.6406L25.2686-71.1182L76.0498-79.7607Q79.0771-80.2979 80.9448-79.1382Q82.8125-77.9785 82.8125-75.415ZM37.0605-46.2402L71.3379-40.1611Q73.4375-39.7705 74.7803-40.9668Q76.123-42.1631 76.123-44.165Q76.123-47.6562 72.7295-48.2666L38.6719-54.248Q36.5723-54.6387 35.1685-53.5034Q33.7646-52.3682 33.7646-50.3906Q33.7646-48.7549 34.6313-47.6196Q35.498-46.4844 37.0605-46.2402ZM37.0605-27.6855L71.3379-21.582Q73.4375-21.1914 74.7803-22.3999Q76.123-23.6084 76.123-25.6104Q76.123-29.0527 72.7295-29.6875L38.6719-35.6689Q36.5723-36.0596 35.1685-34.9121Q33.7646-33.7646 33.7646-31.8115Q33.7646-30.1758 34.6558-29.0527Q35.5469-27.9297 37.0605-27.6855Z"/>
  </g>
  <g id="Semibold-M" transform="matrix(1 0 0 1 1988.55 1126)">
   <path d="M23.452 12.6015L79.1252 22.4464Q84.6024 23.4032 88.6105 21.7442Q92.6186 20.0851 94.8036 16.0927Q96.9887 12.1002 96.9887 6.13708L96.9887-53.8597Q96.9887-62.0911 92.9314-65.9138Q88.8741-69.7365 80.4901-71.1929L26.5549-80.7144Q22.3778-81.4423 19.1998-80.1994Q16.0217-78.9566 14.2365-76.0704Q12.4512-73.1842 12.4512-69.0094L12.4512-0.128937Q12.4512 5.16434 15.2641 8.40569Q18.0771 11.647 23.452 12.6015ZM26.9867 1.79443Q25.2708 1.51672 24.4762 0.48027Q23.6816-0.556183 23.6816-2.21481L23.6816-65.9676Q23.6816-67.7658 24.8104-68.6634Q25.9392-69.561 27.8854-69.2017L79.5555-60.1242Q82.5836-59.5802 84.1629-58.1596Q85.7422-56.739 85.7422-53.9574L85.7422 5.13611Q85.7422 8.43201 83.9142 9.99718Q82.0862 11.5623 78.923 10.9695ZM82.2968-62.0659L92.627-62.0659L92.627-74.8734Q92.627-83.4427 87.1075-87.4138Q81.588-91.3849 71.9345-89.6851L21.0175-80.6984L24.3355-71.5355L75.1526-80.1071Q78.4103-80.6801 80.3535-79.4094Q82.2968-78.1387 82.2968-75.3525ZM35.4073-47.4846L70.9114-41.201Q72.8691-40.8455 74.0871-41.9441Q75.3052-43.0428 75.3052-44.8669Q75.3052-48.0652 72.187-48.6313L36.8942-54.8172Q34.9548-55.172 33.6708-54.1389Q32.3868-53.1059 32.3868-51.297Q32.3868-49.7948 33.1779-48.7526Q33.9691-47.7104 35.4073-47.4846ZM35.4073-28.7521L70.9114-22.4533Q72.8691-22.0978 74.0871-23.204Q75.3052-24.3103 75.3052-26.1345Q75.3052-29.3015 72.187-29.8828L36.8942-36.0687Q34.9548-36.4243 33.6708-35.3745Q32.3868-34.3246 32.3868-32.5493Q32.3868-31.0287 33.1936-30.0037Q34.0004-28.9787 35.4073-28.7521Z"/>
  </g>
  <g id="Medium-M" transform="matrix(1 0 0 1 1692.57 1126)">
   <path d="M22.8523 11.9003L78.4576 21.7323Q83.7196 22.6555 87.5458 21.0808Q91.3719 19.5061 93.4456 15.6887Q95.5193 11.8713 95.5193 6.14319L95.5193-54.0283Q95.5193-61.9293 91.5703-65.5128Q87.6213-69.0964 79.6539-70.472L25.753-79.9934Q21.7781-80.6808 18.782-79.5322Q15.786-78.3836 14.1186-75.6695Q12.4512-72.9553 12.4512-69.0033L12.4512-0.115204Q12.4512 4.91486 15.0921 7.95746Q17.733 11.0001 22.8523 11.9003ZM25.6798 2.41394Q23.9029 2.13013 23.0614 1.06659Q22.2198 0.00305176 22.2198-1.78299L22.2198-66.7091Q22.2198-68.5745 23.399-69.4958Q24.5781-70.417 26.6121-70.0439L78.9558-60.8582Q82.28-60.2539 84.0111-58.7189Q85.7422-57.1838 85.7422-54.126L85.7422 5.21698Q85.7422 8.88367 83.7223 10.6171Q81.7024 12.3505 78.1952 11.6974ZM81.9061-62.6991L91.1652-62.6991L91.1652-74.9069Q91.1652-83.1055 85.9219-86.858Q80.6786-90.6105 71.4424-88.9915L20.4788-79.9843L23.6282-71.8529L74.4713-80.3703Q77.9053-80.97 79.9057-79.615Q81.9061-78.26 81.9061-75.3059ZM34.1545-48.4276L70.5879-41.9891Q72.4373-41.6611 73.5615-42.6857Q74.6857-43.7103 74.6857-45.3995Q74.6857-48.3749 71.7766-48.9075L35.5469-55.2483Q33.7288-55.5763 32.5359-54.6207Q31.3431-53.6652 31.3431-51.9844Q31.3431-50.5829 32.0766-49.6117Q32.8102-48.6404 34.1545-48.4276ZM34.1545-29.5609L70.5879-23.1133Q72.4373-22.7852 73.5615-23.814Q74.6857-24.8428 74.6857-26.532Q74.6857-29.4899 71.7766-30.0316L35.5469-36.3724Q33.7288-36.7004 32.5359-35.7246Q31.3431-34.7488 31.3431-33.1085Q31.3431-31.6757 32.0854-30.7247Q32.8278-29.7737 34.1545-29.5609Z"/>
  </g>
  <g id="Regular-M" transform="matrix(1 0 0 1 1396.82 1126)">
   <path d="M22.0703 10.9863L77.5879 20.8008Q82.5684 21.6797 86.1572 20.2148Q89.7461 18.75 91.6748 15.1611Q93.6035 11.5723 93.6035 6.15234L93.6035-54.248Q93.6035-61.7188 89.7949-64.9902Q85.9863-68.2617 78.5645-69.5312L24.707-79.0527Q20.9961-79.6875 18.2373-78.6621Q15.4785-77.6367 13.9648-75.1465Q12.4512-72.6562 12.4512-68.9941L12.4512-0.0976562Q12.4512 4.58984 14.8682 7.37305Q17.2852 10.1562 22.0703 10.9863ZM23.9746 3.22266Q22.1191 2.92969 21.2158 1.83105Q20.3125 0.732422 20.3125-1.2207L20.3125-67.6758Q20.3125-69.6289 21.5576-70.5811Q22.8027-71.5332 24.9512-71.1426L78.1738-61.8164Q81.8848-61.1328 83.8135-59.4482Q85.7422-57.7637 85.7422-54.3457L85.7422 5.32227Q85.7422 9.47266 83.4717 11.4258Q81.2012 13.3789 77.2461 12.6465ZM81.3965-63.5254L89.2578-63.5254L89.2578-74.9512Q89.2578-82.666 84.375-86.1328Q79.4922-89.5996 70.8008-88.0859L19.7754-79.0527L22.7051-72.2656L73.584-80.7129Q77.2461-81.3477 79.3213-79.8828Q81.3965-78.418 81.3965-75.2441ZM32.5195-49.6582L70.166-43.0176Q71.875-42.7246 72.876-43.6523Q73.877-44.5801 73.877-46.0938Q73.877-48.7793 71.2402-49.2676L33.7891-55.8105Q32.1289-56.1035 31.0547-55.249Q29.9805-54.3945 29.9805-52.8809Q29.9805-51.6113 30.6396-50.7324Q31.2988-49.8535 32.5195-49.6582ZM32.5195-30.6152L70.166-23.9746Q71.875-23.6816 72.876-24.6094Q73.877-25.5371 73.877-27.0508Q73.877-29.7363 71.2402-30.2246L33.7891-36.7676Q32.1289-37.0605 31.0547-36.1816Q29.9805-35.3027 29.9805-33.8379Q29.9805-32.5195 30.6396-31.665Q31.2988-30.8105 32.5195-30.6152Z"/>
  </g>
  <g id="Light-M" transform="matrix(1 0 0 1 1101.01 1126)">
   <path d="M21.3287 10.305L76.2711 20.0134Q81.0394 20.8473 84.5222 19.4733Q88.0051 18.0992 89.896 14.7148Q91.787 11.3304 91.787 6.21262L91.787-54.3541Q91.787-61.1282 88.2584-64.3089Q84.7298-67.4896 77.7016-68.7141L24.1165-78.1746Q20.5421-78.7941 17.9195-77.8748Q15.2969-76.9554 13.8741-74.6696Q12.4512-72.3839 12.4512-68.9636L12.4512 0.00839233Q12.4512 4.37775 14.6561 6.95686Q16.861 9.53598 21.3287 10.305ZM22.7028 4.35791Q20.5597 4.00467 19.5278 2.73933Q18.4959 1.474 18.4959-0.796509L18.4959-67.9482Q18.4959-70.3552 19.9986-71.489Q21.5012-72.6227 24.1341-72.1413L77.417-62.7853Q81.5819-62.0407 83.662-60.1067Q85.7422-58.1726 85.7422-54.5876L85.7422 5.68542Q85.7422 10.2753 83.1539 12.4325Q80.5656 14.5897 76.1711 13.797ZM81.3965-63.5712L87.426-63.5712L87.426-75.2541Q87.426-82.3181 82.9216-85.4973Q78.4172-88.6765 70.3918-87.2688L19.2909-78.2204L21.4485-72.9469L72.4792-81.591Q76.6708-82.3318 79.0337-80.6778Q81.3965-79.0237 81.3965-75.3952ZM30.703-50.6721L70.0447-43.7439Q71.4211-43.512 72.2176-44.2581Q73.0141-45.0043 73.0141-46.1845Q73.0141-48.3101 70.8466-48.7076L31.6246-55.5687Q30.2826-55.8006 29.443-55.0976Q28.6034-54.3945 28.6034-53.2288Q28.6034-52.2171 29.1489-51.5274Q29.6944-50.8377 30.703-50.6721ZM30.703-31.9626L70.0447-25.0343Q71.4211-24.7864 72.2176-25.5402Q73.0141-26.2939 73.0141-27.475Q73.0141-29.5998 70.8466-29.9828L31.6246-36.8431Q30.2826-37.0911 29.443-36.3708Q28.6034-35.6506 28.6034-34.5192Q28.6034-33.4732 29.1489-32.8003Q29.6944-32.1274 30.703-31.9626Z"/>
  </g>
  <g id="Thin-M" transform="matrix(1 0 0 1 805.504 1126)">
   <path d="M20.3476 9.40399L74.5293 18.9728Q79.0176 19.7464 82.3605 18.4925Q85.7033 17.2386 87.5443 14.1243Q89.3852 11.01 89.3852 6.29272L89.3852-54.4945Q89.3852-60.3477 86.227-63.4083Q83.0688-66.4688 76.561-67.6331L23.336-77.0134Q19.9417-77.6131 17.4992-76.8337Q15.0566-76.0544 13.7539-74.0391Q12.4512-72.0238 12.4512-68.924L12.4512 0.148773Q12.4512 4.09775 14.3761 6.4064Q16.301 8.71506 20.3476 9.40399ZM21.0213 5.85938Q18.4982 5.42603 17.2962 3.94058Q16.0942 2.45514 16.0942-0.236511L16.0942-68.3083Q16.0942-71.3165 17.9367-72.6906Q19.7792-74.0646 23.053-73.4627L76.416-64.0663Q81.1813-63.2423 83.4618-60.9776Q85.7422-58.7128 85.7422-54.908L85.7422 6.16608Q85.7422 11.3358 82.7335 13.7634Q79.7249 16.1911 74.7498 15.3183ZM81.3965-63.6307L85.0044-63.6307L85.0044-75.6546Q85.0044-81.8573 81.0001-84.6561Q76.9958-87.455 69.8517-86.1877L18.6508-77.1194L19.7876-73.848L71.0175-82.7522Q75.9102-83.6327 78.6533-81.7284Q81.3965-79.8241 81.3965-75.5959ZM28.3012-52.0134L69.8845-44.7052Q70.8206-44.5526 71.347-45.0584Q71.8735-45.5643 71.8735-46.3043Q71.8735-47.6898 70.3262-47.9668L28.7621-55.2483Q27.8397-55.4001 27.3106-54.8973Q26.7815-54.3945 26.7815-53.6896Q26.7815-53.0174 27.177-52.578Q27.5726-52.1385 28.3012-52.0134ZM28.3012-33.744L69.8845-26.4351Q70.8206-26.2482 71.347-26.7715Q71.8735-27.2949 71.8735-28.035Q71.8735-29.4197 70.3262-29.6623L28.7621-36.9431Q27.8397-37.1307 27.3106-36.6211Q26.7815-36.1115 26.7815-35.4202Q26.7815-34.7343 27.177-34.3018Q27.5726-33.8692 28.3012-33.744Z"/>
  </g>
  <g id="Ultralight-M" transform="matrix(1 0 0 1 509.408 1126)">
   <path d="M19.8456 8.94318L73.6374 18.4395Q77.9823 19.1818 81.2531 17.9897Q84.5238 16.7976 86.3392 13.8218Q88.1546 10.8459 88.1546 6.33392L88.1546-54.5662Q88.1546-59.948 85.186-62.9471Q82.2174-65.9462 75.9758-67.0792L22.9362-76.4191Q19.6335-77.0081 17.2836-76.3008Q14.9338-75.5936 13.6925-73.7164Q12.4512-71.8391 12.4512-68.9034L12.4512 0.22049Q12.4512 3.95432 14.2323 6.1245Q16.0133 8.29468 19.8456 8.94318ZM20.1599 6.62842Q17.4416 6.15387 16.1526 4.55551Q14.8636 2.95715 14.8636 0.0511169L14.8636-68.4929Q14.8636-71.8086 16.8804-73.3055Q18.8972-74.8024 22.4991-74.1394L75.9033-64.7224Q80.9769-63.8573 83.3595-61.4235Q85.7422-58.9897 85.7422-55.072L85.7422 6.41174Q85.7422 11.8797 82.518 14.4459Q79.2938 17.012 74.0219 16.0973ZM81.3965-63.662L83.7631-63.662L83.7631-75.8591Q83.7631-81.6216 80.0156-84.2255Q76.268-86.8294 69.5747-85.6339L18.322-76.5549L18.9362-74.3088L70.269-83.3466Q75.5203-84.2995 78.4584-82.267Q81.3965-80.2345 81.3965-75.6981ZM27.0706-52.7008L69.8029-45.1973Q70.5124-45.0859 70.9003-45.4689Q71.2883-45.8519 71.2883-46.3661Q71.2883-47.3717 70.0592-47.5876L27.2957-55.0842Q26.5892-55.1956 26.2188-54.7951Q25.8484-54.3945 25.8484-53.9253Q25.8484-53.4279 26.1669-53.1166Q26.4854-52.8053 27.0706-52.7008ZM27.0706-34.6565L69.8029-27.153Q70.5124-26.9966 70.9003-27.4021Q71.2883-27.8076 71.2883-28.3226Q71.2883-29.3274 70.0592-29.4983L27.2957-36.9949Q26.5892-37.1513 26.2188-36.7493Q25.8484-36.3472 25.8484-35.881Q25.8484-35.3806 26.1669-35.0708Q26.4854-34.761 27.0706-34.6565Z"/>
  </g>
  <g id="Black-S" transform="matrix(1 0 0 1 2887.36 696)">
   <path d="M20.9961 5.27344L64.8438 13.0371Q72.7051 14.4043 77.5146 10.0342Q82.3242 5.66406 82.3242-2.83203L82.3242-49.0723Q82.3242-56.9336 78.7109-60.9863Q75.0977-65.0391 66.6992-66.5039L24.3164-73.9746Q20.166-74.707 16.8701-73.3398Q13.5742-71.9727 11.6699-68.9697Q9.76562-65.9668 9.76562-61.7188L9.76562-7.76367Q9.76562-2.49023 12.7197 0.90332Q15.6738 4.29688 20.9961 5.27344ZM26.8066-8.88672Q25.7324-9.08203 25.3174-9.76562Q24.9023-10.4492 24.9023-11.2305L24.9023-56.0547Q24.9023-57.2266 25.5615-57.8369Q26.2207-58.4473 27.3926-58.2031L64.9414-51.5625Q66.0645-51.3672 66.626-50.7568Q67.1875-50.1465 67.1875-49.1699L67.1875-3.95508Q67.1875-2.97852 66.5771-2.46582Q65.9668-1.95312 64.9902-2.14844ZM66.2109-53.4668L78.9062-53.4668L78.9062-66.1621Q78.9062-74.4629 73.3887-78.5156Q67.8711-82.5684 58.4961-80.9082L18.7988-73.9258L22.1191-62.3047L61.8164-69.2871Q63.6719-69.6289 64.9414-68.9941Q66.2109-68.3594 66.2109-66.8945ZM33.1543-40.7227L56.9824-36.4746Q58.9844-36.1328 60.3271-37.3047Q61.6699-38.4766 61.6699-40.4297Q61.6699-43.8965 58.3496-44.4824L34.7168-48.6816Q32.666-49.0723 31.2744-47.9248Q29.8828-46.7773 29.8828-44.8242Q29.8828-41.2598 33.1543-40.7227ZM33.1543-26.6602L56.9824-22.3633Q58.9844-22.0215 60.3271-23.2178Q61.6699-24.4141 61.6699-26.3672Q61.6699-29.7852 58.3496-30.3711L34.7168-34.5703Q32.666-34.9609 31.2744-33.8135Q29.8828-32.666 29.8828-30.7129Q29.8828-29.1504 30.7861-28.0273Q31.6895-26.9043 33.1543-26.6602Z"/>
  </g>
  <g id="Heavy-S" transform="matrix(1 0 0 1 2591.6 696)">
   <path d="M20.2126 4.3396L64.0373 12.0918Q71.4607 13.3904 75.9357 9.30252Q80.4108 5.21469 80.4108-2.83203L80.4108-49.3027Q80.4108-56.7726 76.9188-60.4851Q73.4268-64.1975 65.5815-65.5586L23.2101-73.0293Q19.3481-73.716 16.3055-72.464Q13.2629-71.212 11.5143-68.4395Q9.76562-65.667 9.76562-61.7188L9.76562-7.76367Q9.76562-2.8244 12.495 0.304031Q15.2245 3.43246 20.2126 4.3396ZM25.0549-8.11462Q23.9349-8.32138 23.4619-9.02786Q22.9889-9.73434 22.9889-10.6544L22.9889-57.1152Q22.9889-58.3214 23.6942-58.9375Q24.3996-59.5535 25.6294-59.3094L64.1579-52.5078Q65.6494-52.243 66.4185-51.4942Q67.1875-50.7454 67.1875-49.3889L67.1875-3.88565Q67.1875-2.42538 66.341-1.69373Q65.4945-0.962067 64.0686-1.22681ZM65.6349-54.3884L76.9928-54.3884L76.9928-66.1736Q76.9928-74.0135 71.8327-77.784Q66.6725-81.5544 57.8392-79.9866L18.0725-72.9919L21.2433-62.6846L60.9634-69.5641Q63.0035-69.9173 64.3192-69.1902Q65.6349-68.4631 65.6349-66.8022ZM31.5521-41.9785L56.5331-37.5351Q58.4084-37.2162 59.6416-38.3015Q60.8749-39.3867 60.8749-41.2018Q60.8749-44.4038 57.7965-44.9547L33.0223-49.3385Q31.1104-49.6948 29.8225-48.645Q28.5347-47.5952 28.5347-45.7809Q28.5347-42.4812 31.5521-41.9785ZM31.5521-27.6741L56.5331-23.1934Q58.4084-22.8745 59.6416-23.9784Q60.8749-25.0824 60.8749-26.8974Q60.8749-30.0621 57.7965-30.6129L33.0223-34.9968Q31.1104-35.3531 29.8225-34.3033Q28.5347-33.2535 28.5347-31.4392Q28.5347-29.9805 29.3571-28.9436Q30.1796-27.9068 31.5521-27.6741Z"/>
  </g>
  <g id="Bold-S" transform="matrix(1 0 0 1 2295.96 696)">
   <path d="M19.3359 3.2959L63.1348 11.0352Q70.0684 12.2559 74.1699 8.48389Q78.2715 4.71191 78.2715-2.83203L78.2715-49.5605Q78.2715-56.5918 74.9146-59.9243Q71.5576-63.2568 64.3311-64.502L21.9727-71.9727Q18.4326-72.6074 15.6738-71.4844Q12.915-70.3613 11.3403-67.8467Q9.76562-65.332 9.76562-61.7188L9.76562-7.76367Q9.76562-3.19824 12.2437-0.366211Q14.7217 2.46582 19.3359 3.2959ZM23.0957-7.25098Q21.9238-7.4707 21.3867-8.20312Q20.8496-8.93555 20.8496-10.0098L20.8496-58.3008Q20.8496-59.5459 21.6064-60.1685Q22.3633-60.791 23.6572-60.5469L63.2812-53.5645Q65.1855-53.2227 66.1865-52.3193Q67.1875-51.416 67.1875-49.6338L67.1875-3.80859Q67.1875-1.80664 66.0767-0.830078Q64.9658 0.146484 63.0371-0.195312ZM64.9902-55.4199L74.8535-55.4199L74.8535-66.1865Q74.8535-73.5107 70.0928-76.9653Q65.332-80.4199 57.1045-78.9551L17.2607-71.9482L20.2637-63.1104L60.0098-69.873Q62.2559-70.2393 63.623-69.4092Q64.9902-68.5791 64.9902-66.6992ZM29.7607-43.3838L56.0303-38.7207Q57.7637-38.4277 58.8745-39.4165Q59.9854-40.4053 59.9854-42.0654Q59.9854-44.9707 57.1777-45.4834L31.1279-50.0732Q29.3701-50.3906 28.1982-49.4507Q27.0264-48.5107 27.0264-46.8506Q27.0264-43.8477 29.7607-43.3838ZM29.7607-28.8086L56.0303-24.1211Q57.7637-23.8281 58.8745-24.8291Q59.9854-25.8301 59.9854-27.4902Q59.9854-30.3711 57.1777-30.8838L31.1279-35.4736Q29.3701-35.791 28.1982-34.8511Q27.0264-33.9111 27.0264-32.251Q27.0264-30.9082 27.7588-29.9683Q28.4912-29.0283 29.7607-28.8086Z"/>
  </g>
  <g id="Semibold-S" transform="matrix(1 0 0 1 1999.99 696)">
   <path d="M18.7317 2.57568L62.513 10.3065Q69.1086 11.4738 72.9523 7.91969Q76.796 4.36554 76.796-2.83203L76.796-49.7383Q76.796-56.4674 73.5325-59.5379Q70.269-62.6083 63.4689-63.7733L21.1197-71.244Q17.8017-71.843 15.2382-70.8088Q12.6747-69.7746 11.2202-67.4377Q9.76562-65.1009 9.76562-61.7188L9.76562-7.76367Q9.76562-3.45612 12.0705-0.828552Q14.3753 1.79901 18.7317 2.57568ZM21.7445-6.65588Q20.5376-6.884 19.9558-7.63435Q19.3741-8.3847 19.3741-9.56573L19.3741-59.1187Q19.3741-60.3905 20.1668-61.0172Q20.9595-61.644 22.2977-61.3998L62.677-54.2931Q64.8659-53.8979 66.0267-52.8881Q67.1875-51.8784 67.1875-49.8024L67.1875-3.75519Q67.1875-1.38016 65.8943-0.234604Q64.6011 0.91095 62.326 0.515747ZM64.5462-56.131L73.378-56.131L73.378-66.1957Q73.378-73.1644 68.8931-76.4011Q64.4081-79.6379 56.5979-78.244L16.7007-71.228L19.5885-63.4033L59.3521-70.0867Q61.7401-70.4613 63.1432-69.5602Q64.5462-68.6592 64.5462-66.6283ZM28.5255-44.3527L55.6839-39.5386Q57.3196-39.2632 58.3458-40.1852Q59.3719-41.1072 59.3719-42.6605Q59.3719-45.3621 56.7513-45.8481L29.8218-50.5798Q28.17-50.8705 27.0782-50.0061Q25.9865-49.1417 25.9865-47.5883Q25.9865-44.7899 28.5255-44.3527ZM28.5255-29.5906L55.6839-24.7612Q57.3196-24.4858 58.3458-25.4158Q59.3719-26.3458 59.3719-27.8992Q59.3719-30.5847 56.7513-31.0707L29.8218-35.8025Q28.17-36.0931 27.0782-35.2287Q25.9865-34.3643 25.9865-32.811Q25.9865-31.5483 26.6567-30.6747Q27.327-29.8012 28.5255-29.5906Z"/>
  </g>
  <g id="Medium-S" transform="matrix(1 0 0 1 1703.83 696)">
   <path d="M18.2732 2.03018L62.0407 9.75418Q68.3807 10.881 72.0291 7.49168Q75.6775 4.10233 75.6775-2.83203L75.6775-49.8734Q75.6775-56.3728 72.4846-59.2445Q69.2917-62.1162 62.8151-63.221L20.4727-70.6917Q17.3233-71.2639 14.9082-70.2969Q12.4931-69.3298 11.1294-67.128Q9.76562-64.9261 9.76562-61.7188L9.76562-7.76367Q9.76562-3.65143 11.9389-1.17874Q14.1121 1.29395 18.2732 2.03018ZM20.7207-6.20422Q19.4862-6.43921 18.8709-7.20291Q18.2556-7.96661 18.2556-9.22852L18.2556-59.7382Q18.2556-61.0306 19.075-61.6608Q19.8944-62.291 21.2662-62.0468L62.2185-54.8454Q64.6233-54.4106 65.9054-53.3195Q67.1875-52.2285 67.1875-49.9306L67.1875-3.71475Q67.1875-1.05667 65.7562 0.216675Q64.325 1.49002 61.7874 1.05438ZM64.209-56.6696L72.2595-56.6696L72.2595-66.2018Q72.2595-72.9012 67.9832-75.9731Q63.707-79.0451 56.2141-77.7054L16.2766-70.6825L19.0758-63.6261L58.8531-70.2484Q61.3495-70.6299 62.7792-69.6747Q64.209-68.7195 64.209-66.5741ZM27.5887-45.0867L55.4207-40.1581Q56.9824-39.8964 57.9449-40.7681Q58.9073-41.6397 58.9073-43.1122Q58.9073-45.6581 56.4278-46.1243L28.8307-50.9636Q27.2606-51.2344 26.2295-50.4272Q25.1984-49.6201 25.1984-48.1476Q25.1984-45.504 27.5887-45.0867ZM27.5887-30.1834L55.4207-25.2464Q56.9824-24.9847 57.9449-25.8606Q58.9073-26.7365 58.9073-28.2089Q58.9073-30.7465 56.4278-31.2119L28.8307-36.0519Q27.2606-36.322 26.2295-35.5152Q25.1984-34.7084 25.1984-33.2352Q25.1984-32.0335 25.8213-31.2107Q26.4442-30.3879 27.5887-30.1834Z"/>
  </g>
  <g id="Regular-S" transform="matrix(1 0 0 1 1407.85 696)">
   <path d="M17.6758 1.31836L61.4258 9.0332Q67.4316 10.1074 70.8252 6.93359Q74.2188 3.75977 74.2188-2.83203L74.2188-50.0488Q74.2188-56.25 71.1182-58.8623Q68.0176-61.4746 61.9629-62.5L19.6289-69.9707Q16.6992-70.5078 14.4775-69.6289Q12.2559-68.75 11.0107-66.7236Q9.76562-64.6973 9.76562-61.7188L9.76562-7.76367Q9.76562-3.90625 11.7676-1.63574Q13.7695 0.634766 17.6758 1.31836ZM19.3848-5.61523Q18.1152-5.85938 17.4561-6.64062Q16.7969-7.42188 16.7969-8.78906L16.7969-60.5469Q16.7969-61.8652 17.6514-62.5Q18.5059-63.1348 19.9219-62.8906L61.6211-55.5664Q64.3066-55.0781 65.7471-53.8818Q67.1875-52.6855 67.1875-50.0977L67.1875-3.66211Q67.1875-0.634766 65.5762 0.805664Q63.9648 2.24609 61.084 1.75781ZM63.7695-57.373L70.8008-57.373L70.8008-66.2109Q70.8008-72.5586 66.7969-75.415Q62.793-78.2715 55.7129-77.002L15.7227-69.9707L18.4082-63.916L58.2031-70.459Q60.8398-70.8496 62.3047-69.8242Q63.7695-68.7988 63.7695-66.5039ZM26.3672-46.0449L55.0781-40.9668Q56.543-40.7227 57.4219-41.5283Q58.3008-42.334 58.3008-43.7012Q58.3008-46.0449 56.0059-46.4844L27.5391-51.4648Q26.0742-51.709 25.1221-50.9766Q24.1699-50.2441 24.1699-48.877Q24.1699-46.4355 26.3672-46.0449ZM26.3672-30.957L55.0781-25.8789Q56.543-25.6348 57.4219-26.4404Q58.3008-27.2461 58.3008-28.6133Q58.3008-30.957 56.0059-31.3965L27.5391-36.377Q26.0742-36.6211 25.1221-35.8887Q24.1699-35.1562 24.1699-33.7891Q24.1699-32.666 24.7314-31.9092Q25.293-31.1523 26.3672-30.957Z"/>
  </g>
  <g id="Light-S" transform="matrix(1 0 0 1 1111.94 696)">
   <path d="M17.0097 0.712585L60.26 8.33664Q65.9935 9.36584 69.3039 6.38885Q72.6143 3.41187 72.6143-2.78625L72.6143-50.1549Q72.6143-55.7205 69.7559-58.2569Q66.8976-60.7933 61.2061-61.7737L19.1139-69.1986Q16.2903-69.7052 14.1899-68.9323Q12.0895-68.1595 10.9276-66.3074Q9.76562-64.4554 9.76562-61.6882L9.76562-7.67288Q9.76562-4.10309 11.5784-2.00653Q13.3911 0.0900269 17.0097 0.712585ZM18.2648-4.63104Q16.7381-4.9057 15.9653-5.83839Q15.1924-6.77109 15.1924-8.41064L15.1924-60.7742Q15.1924-62.4855 16.2739-63.2946Q17.3553-64.1037 19.2108-63.7688L60.955-56.4293Q64.0495-55.8807 65.6185-54.4647Q67.1875-53.0487 67.1875-50.3098L67.1875-3.34396Q67.1875 0.0915527 65.2885 1.71356Q63.3896 3.33557 60.1303 2.7565ZM63.7695-57.4188L69.1963-57.4188L69.1963-66.468Q69.1963-72.2557 65.5254-74.855Q61.8546-77.4544 55.3345-76.2909L15.2985-69.2291L17.2882-64.5218L57.2342-71.2311Q60.3249-71.7278 62.0472-70.528Q63.7695-69.3283 63.7695-66.6405ZM24.7627-46.9383L54.9568-41.6176Q56.134-41.4192 56.839-42.0658Q57.5439-42.7124 57.5439-43.7767Q57.5439-45.636 55.6732-45.9846L25.6165-51.2527Q24.4392-51.4519 23.6916-50.848Q22.9439-50.2441 22.9439-49.1798Q22.9439-47.2527 24.7627-46.9383ZM24.7627-32.1526L54.9568-26.8173Q56.134-26.619 56.839-27.2732Q57.5439-27.9274 57.5439-28.9917Q57.5439-30.8357 55.6732-31.1996L25.6165-36.4525Q24.4392-36.6516 23.6916-36.0554Q22.9439-35.4591 22.9439-34.3948Q22.9439-33.4984 23.407-32.9006Q23.8701-32.3029 24.7627-32.1526Z"/>
  </g>
  <g id="Thin-S" transform="matrix(1 0 0 1 816.293 696)">
   <path d="M16.1293-0.087738L58.7189 7.41577Q64.0923 8.3847 67.2924 5.66788Q70.4926 2.95105 70.4926-2.72675L70.4926-50.2953Q70.4926-55.0194 67.9543-57.4558Q65.416-59.8923 60.2051-60.8124L18.4334-68.1778Q15.7501-68.6447 13.8096-68.0119Q11.869-67.379 10.8173-65.757Q9.76562-64.135 9.76562-61.6486L9.76562-7.5531Q9.76562-4.36325 11.3281-2.4971Q12.8906-0.630951 16.1293-0.087738ZM16.7831-3.33023Q14.9162-3.64456 13.9935-4.77753Q13.0707-5.91049 13.0707-7.91016L13.0707-61.0741Q13.0707-63.3064 14.4524-64.3456Q15.834-65.3847 18.2693-64.93L60.0746-57.5699Q63.7093-56.9412 65.4484-55.2353Q67.1875-53.5294 67.1875-50.5898L67.1875-2.92358Q67.1875 1.05286 64.9082 2.91519Q62.6289 4.77753 58.8692 4.07791ZM63.7695-57.4783L67.0746-57.4783L67.0746-66.8083Q67.0746-71.8552 63.8439-74.1142Q60.6133-76.3733 54.834-75.3494L14.7385-68.248L15.8066-65.3221L55.9532-72.2519Q59.6443-72.8889 61.7069-71.4592Q63.7695-70.0294 63.7695-66.8205ZM22.641-48.1194L54.7966-42.4782Q55.5939-42.3401 56.0684-42.7765Q56.543-43.2129 56.543-43.8766Q56.543-45.0958 55.2322-45.3239L23.0743-50.9727Q22.2778-51.1116 21.8002-50.6779Q21.3226-50.2441 21.3226-49.5804Q21.3226-48.3337 22.641-48.1194ZM22.641-33.7341L54.7966-28.0586Q55.5939-27.9198 56.0684-28.3741Q56.543-28.8284 56.543-29.4922Q56.543-30.6755 55.2322-30.9395L23.0743-36.5524Q22.2778-36.6913 21.8002-36.2755Q21.3226-35.8597 21.3226-35.1952Q21.3226-34.5993 21.6557-34.2117Q21.9887-33.8242 22.641-33.7341Z"/>
  </g>
  <g id="Ultralight-S" transform="matrix(1 0 0 1 520.126 696)">
   <path d="M15.6776-0.498199L57.9292 6.94427Q63.118 7.88269 66.2617 5.299Q69.4054 2.7153 69.4054-2.69547L69.4054-50.367Q69.4054-54.6608 67.0315-57.0461Q64.6576-59.4315 59.6924-60.3203L18.0847-67.6552Q15.4732-68.1007 13.6147-67.54Q11.7561-66.9792 10.7609-65.4751Q9.76562-63.9709 9.76562-61.628L9.76562-7.4913Q9.76562-4.49677 11.2-2.74849Q12.6343-1.00021 15.6776-0.498199ZM16.0248-2.66342Q13.9832-2.99835 12.9833-4.23393Q11.9835-5.46951 11.9835-7.65381L11.9835-61.2282Q11.9835-63.7268 13.5193-64.8838Q15.0551-66.0408 17.7879-65.5243L59.623-58.1551Q63.5345-57.4852 65.361-55.6301Q67.1875-53.775 67.1875-50.7332L67.1875-2.70844Q67.1875 1.54495 64.7133 3.53012Q62.2391 5.51529 58.223 4.75464ZM63.7695-57.5096L65.9874-57.5096L65.9874-66.983Q65.9874-71.6507 62.9826-73.735Q59.9777-75.8194 54.5776-74.868L14.4508-67.746L15.0482-65.7326L55.2971-72.7753Q59.2957-73.4833 61.5326-71.9357Q63.7695-70.388 63.7695-66.9128ZM21.5538-48.7244L54.715-42.9192Q55.3169-42.8116 55.6736-43.1404Q56.0303-43.4692 56.0303-43.9285Q56.0303-44.8189 55.0072-44.986L21.772-50.8293Q21.17-50.9369 20.8309-50.5905Q20.4918-50.2441 20.4918-49.7849Q20.4918-48.8876 21.5538-48.7244ZM21.5538-34.5444L54.715-28.6942Q55.3169-28.5866 55.6736-28.9379Q56.0303-29.2892 56.0303-29.7485Q56.0303-30.5939 55.0072-30.806L21.772-36.6043Q21.17-36.7119 20.8309-36.388Q20.4918-36.0641 20.4918-35.6056Q20.4918-35.1639 20.7581-34.8835Q21.0243-34.6031 21.5538-34.5444Z"/>
  </g>
 </g>
</svg>
