<?xml version="1.0" encoding="UTF-8"?>
<!--Generator: Apple Native CoreSVG 149-->
<!DOCTYPE svg
PUBLIC "-//W3C//DTD SVG 1.1//EN"
       "http://www.w3.org/Graphics/SVG/1.1/DTD/svg11.dtd">
<svg version="1.1" xmlns="http://www.w3.org/2000/svg" xmlns:xlink="http://www.w3.org/1999/xlink" width="3300" height="2200">
 <!--glyph: "uni10036A.medium", point size: 100.0, font version: "17.0d9e1", template writer version: "59"-->
 <g id="Notes">
  <rect height="2200" id="artboard" style="fill:white;opacity:1" width="3300" x="0" y="0"/>
  <line style="fill:none;stroke:black;opacity:1;stroke-width:0.5;" x1="263" x2="3036" y1="292" y2="292"/>
  <text style="stroke:none;fill:black;font-family:sans-serif;font-size:13;font-weight:bold;" transform="matrix(1 0 0 1 263 322)">Weight/Scale Variations</text>
  <text style="stroke:none;fill:black;font-family:sans-serif;font-size:13;text-anchor:middle;" transform="matrix(1 0 0 1 559.711 322)">Ultralight</text>
  <text style="stroke:none;fill:black;font-family:sans-serif;font-size:13;text-anchor:middle;" transform="matrix(1 0 0 1 856.422 322)">Thin</text>
  <text style="stroke:none;fill:black;font-family:sans-serif;font-size:13;text-anchor:middle;" transform="matrix(1 0 0 1 1153.13 322)">Light</text>
  <text style="stroke:none;fill:black;font-family:sans-serif;font-size:13;text-anchor:middle;" transform="matrix(1 0 0 1 1449.84 322)">Regular</text>
  <text style="stroke:none;fill:black;font-family:sans-serif;font-size:13;text-anchor:middle;" transform="matrix(1 0 0 1 1746.56 322)">Medium</text>
  <text style="stroke:none;fill:black;font-family:sans-serif;font-size:13;text-anchor:middle;" transform="matrix(1 0 0 1 2043.27 322)">Semibold</text>
  <text style="stroke:none;fill:black;font-family:sans-serif;font-size:13;text-anchor:middle;" transform="matrix(1 0 0 1 2339.98 322)">Bold</text>
  <text style="stroke:none;fill:black;font-family:sans-serif;font-size:13;text-anchor:middle;" transform="matrix(1 0 0 1 2636.69 322)">Heavy</text>
  <text style="stroke:none;fill:black;font-family:sans-serif;font-size:13;text-anchor:middle;" transform="matrix(1 0 0 1 2933.4 322)">Black</text>
  <line style="fill:none;stroke:black;opacity:1;stroke-width:0.5;" x1="263" x2="3036" y1="1903" y2="1903"/>
  <g transform="matrix(1 0 0 1 263 1933)">
   <path d="M9.24805 0.830078Q10.8691 0.830078 12.2949 0.214844Q13.7207-0.400391 14.8096-1.49414Q15.8984-2.58789 16.5186-4.01367Q17.1387-5.43945 17.1387-7.05078Q17.1387-8.66211 16.5186-10.0879Q15.8984-11.5137 14.8047-12.6074Q13.7109-13.7012 12.2852-14.3164Q10.8594-14.9316 9.23828-14.9316Q7.62695-14.9316 6.20117-14.3164Q4.77539-13.7012 3.69141-12.6074Q2.60742-11.5137 1.9873-10.0879Q1.36719-8.66211 1.36719-7.05078Q1.36719-5.43945 1.9873-4.01367Q2.60742-2.58789 3.69629-1.49414Q4.78516-0.400391 6.21094 0.214844Q7.63672 0.830078 9.24805 0.830078ZM9.24805-0.654297Q7.91992-0.654297 6.7627-1.14746Q5.60547-1.64062 4.73145-2.51953Q3.85742-3.39844 3.36426-4.56055Q2.87109-5.72266 2.87109-7.05078Q2.87109-8.37891 3.35938-9.54102Q3.84766-10.7031 4.72168-11.582Q5.5957-12.4609 6.75293-12.9541Q7.91016-13.4473 9.23828-13.4473Q10.5762-13.4473 11.7334-12.9541Q12.8906-12.4609 13.7695-11.582Q14.6484-10.7031 15.1465-9.54102Q15.6445-8.37891 15.6445-7.05078Q15.6445-5.72266 15.1514-4.56055Q14.6582-3.39844 13.7842-2.51953Q12.9102-1.64062 11.748-1.14746Q10.5859-0.654297 9.24805-0.654297ZM5.83984-7.04102Q5.83984-6.71875 6.04492-6.51855Q6.25-6.31836 6.5918-6.31836L8.50586-6.31836L8.50586-4.39453Q8.50586-4.0625 8.70605-3.85742Q8.90625-3.65234 9.22852-3.65234Q9.56055-3.65234 9.76562-3.85742Q9.9707-4.0625 9.9707-4.39453L9.9707-6.31836L11.8945-6.31836Q12.2266-6.31836 12.4316-6.51855Q12.6367-6.71875 12.6367-7.04102Q12.6367-7.37305 12.4316-7.57812Q12.2266-7.7832 11.8945-7.7832L9.9707-7.7832L9.9707-9.69727Q9.9707-10.0391 9.76562-10.2441Q9.56055-10.4492 9.22852-10.4492Q8.90625-10.4492 8.70605-10.2441Q8.50586-10.0391 8.50586-9.69727L8.50586-7.7832L6.5918-7.7832Q6.25-7.7832 6.04492-7.57812Q5.83984-7.37305 5.83984-7.04102Z"/>
  </g>
  <g transform="matrix(1 0 0 1 281.867 1933)">
   <path d="M11.709 2.91016Q13.75 2.91016 15.5518 2.12891Q17.3535 1.34766 18.7305-0.0292969Q20.1074-1.40625 20.8887-3.20801Q21.6699-5.00977 21.6699-7.05078Q21.6699-9.0918 20.8887-10.8936Q20.1074-12.6953 18.7305-14.0723Q17.3535-15.4492 15.5469-16.2305Q13.7402-17.0117 11.6992-17.0117Q9.6582-17.0117 7.85645-16.2305Q6.05469-15.4492 4.68262-14.0723Q3.31055-12.6953 2.5293-10.8936Q1.74805-9.0918 1.74805-7.05078Q1.74805-5.00977 2.5293-3.20801Q3.31055-1.40625 4.6875-0.0292969Q6.06445 1.34766 7.86621 2.12891Q9.66797 2.91016 11.709 2.91016ZM11.709 1.25Q9.98047 1.25 8.47656 0.605469Q6.97266-0.0390625 5.83496-1.17676Q4.69727-2.31445 4.05762-3.81836Q3.41797-5.32227 3.41797-7.05078Q3.41797-8.7793 4.05762-10.2832Q4.69727-11.7871 5.83008-12.9297Q6.96289-14.0723 8.4668-14.7119Q9.9707-15.3516 11.6992-15.3516Q13.4277-15.3516 14.9316-14.7119Q16.4355-14.0723 17.5781-12.9297Q18.7207-11.7871 19.3652-10.2832Q20.0098-8.7793 20.0098-7.05078Q20.0098-5.32227 19.3701-3.81836Q18.7305-2.31445 17.5928-1.17676Q16.4551-0.0390625 14.9463 0.605469Q13.4375 1.25 11.709 1.25ZM7.39258-7.04102Q7.39258-6.68945 7.62695-6.46484Q7.86133-6.24023 8.23242-6.24023L10.8789-6.24023L10.8789-3.57422Q10.8789-3.21289 11.1035-2.9834Q11.3281-2.75391 11.6797-2.75391Q12.0508-2.75391 12.2852-2.9834Q12.5195-3.21289 12.5195-3.57422L12.5195-6.24023L15.1758-6.24023Q15.5371-6.24023 15.7715-6.46484Q16.0059-6.68945 16.0059-7.04102Q16.0059-7.41211 15.7715-7.6416Q15.5371-7.87109 15.1758-7.87109L12.5195-7.87109L12.5195-10.5176Q12.5195-10.8984 12.2852-11.1279Q12.0508-11.3574 11.6797-11.3574Q11.3281-11.3574 11.1035-11.1279Q10.8789-10.8984 10.8789-10.5176L10.8789-7.87109L8.23242-7.87109Q7.85156-7.87109 7.62207-7.6416Q7.39258-7.41211 7.39258-7.04102Z"/>
  </g>
  <g transform="matrix(1 0 0 1 305.646 1933)">
   <path d="M14.9707 5.66406Q17.0605 5.66406 18.96 5.01465Q20.8594 4.36523 22.4512 3.19336Q24.043 2.02148 25.2197 0.429688Q26.3965-1.16211 27.0459-3.06641Q27.6953-4.9707 27.6953-7.05078Q27.6953-9.14062 27.0459-11.04Q26.3965-12.9395 25.2197-14.5312Q24.043-16.123 22.4512-17.2998Q20.8594-18.4766 18.9551-19.126Q17.0508-19.7754 14.9609-19.7754Q12.8711-19.7754 10.9717-19.126Q9.07227-18.4766 7.48535-17.2998Q5.89844-16.123 4.72168-14.5312Q3.54492-12.9395 2.90039-11.04Q2.25586-9.14062 2.25586-7.05078Q2.25586-4.9707 2.90527-3.06641Q3.55469-1.16211 4.72656 0.429688Q5.89844 2.02148 7.49023 3.19336Q9.08203 4.36523 10.9814 5.01465Q12.8809 5.66406 14.9707 5.66406ZM14.9707 3.84766Q13.1641 3.84766 11.5283 3.2959Q9.89258 2.74414 8.53516 1.74805Q7.17773 0.751953 6.17676-0.610352Q5.17578-1.97266 4.62891-3.6084Q4.08203-5.24414 4.08203-7.05078Q4.08203-8.86719 4.62891-10.5029Q5.17578-12.1387 6.17188-13.501Q7.16797-14.8633 8.52539-15.8594Q9.88281-16.8555 11.5186-17.4023Q13.1543-17.9492 14.9609-17.9492Q16.7773-17.9492 18.4131-17.4023Q20.0488-16.8555 21.4111-15.8594Q22.7734-14.8633 23.7695-13.501Q24.7656-12.1387 25.3174-10.5029Q25.8691-8.86719 25.8691-7.05078Q25.8789-5.24414 25.332-3.6084Q24.7852-1.97266 23.7842-0.610352Q22.7832 0.751953 21.4209 1.74805Q20.0586 2.74414 18.4229 3.2959Q16.7871 3.84766 14.9707 3.84766ZM9.45312-7.04102Q9.45312-6.66016 9.71191-6.41113Q9.9707-6.16211 10.3711-6.16211L14.0625-6.16211L14.0625-2.46094Q14.0625-2.06055 14.3115-1.80664Q14.5605-1.55273 14.9414-1.55273Q15.3516-1.55273 15.6055-1.80664Q15.8594-2.06055 15.8594-2.46094L15.8594-6.16211L19.5605-6.16211Q19.9609-6.16211 20.2148-6.41113Q20.4688-6.66016 20.4688-7.04102Q20.4688-7.45117 20.2148-7.70508Q19.9609-7.95898 19.5605-7.95898L15.8594-7.95898L15.8594-11.6504Q15.8594-12.0605 15.6055-12.3145Q15.3516-12.5684 14.9414-12.5684Q14.5605-12.5684 14.3115-12.3096Q14.0625-12.0508 14.0625-11.6504L14.0625-7.95898L10.3711-7.95898Q9.96094-7.95898 9.70703-7.70508Q9.45312-7.45117 9.45312-7.04102Z"/>
  </g>
  <text style="stroke:none;fill:black;font-family:sans-serif;font-size:13;font-weight:bold;" transform="matrix(1 0 0 1 263 1953)">Design Variations</text>
  <text style="stroke:none;fill:black;font-family:sans-serif;font-size:13;" transform="matrix(1 0 0 1 263 1971)">Symbols are supported in up to nine weights and three scales.</text>
  <text style="stroke:none;fill:black;font-family:sans-serif;font-size:13;" transform="matrix(1 0 0 1 263 1989)">For optimal layout with text and other symbols, vertically align</text>
  <text style="stroke:none;fill:black;font-family:sans-serif;font-size:13;" transform="matrix(1 0 0 1 263 2007)">symbols with the adjacent text.</text>
  <line style="fill:none;stroke:#00AEEF;stroke-width:0.5;opacity:1.0;" x1="776" x2="776" y1="1919" y2="1933"/>
  <g transform="matrix(1 0 0 1 776 1933)">
   <path d="M3.31055 0.15625Q3.70117 0.15625 3.91602-0.00976562Q4.13086-0.175781 4.26758-0.585938L5.52734-4.0332L11.2891-4.0332L12.5488-0.585938Q12.6855-0.175781 12.9004-0.00976562Q13.1152 0.15625 13.4961 0.15625Q13.8867 0.15625 14.1162-0.0585938Q14.3457-0.273438 14.3457-0.644531Q14.3457-0.869141 14.2383-1.17188L9.6582-13.3691Q9.48242-13.8184 9.17969-14.043Q8.87695-14.2676 8.4082-14.2676Q7.5-14.2676 7.17773-13.3789L2.59766-1.16211Q2.49023-0.859375 2.49023-0.634766Q2.49023-0.263672 2.70996-0.0537109Q2.92969 0.15625 3.31055 0.15625ZM6.00586-5.51758L8.37891-12.0898L8.42773-12.0898L10.8008-5.51758Z"/>
  </g>
  <line style="fill:none;stroke:#00AEEF;stroke-width:0.5;opacity:1.0;" x1="793.197" x2="793.197" y1="1919" y2="1933"/>
  <text style="stroke:none;fill:black;font-family:sans-serif;font-size:13;font-weight:bold;" transform="matrix(1 0 0 1 776 1953)">Margins</text>
  <text style="stroke:none;fill:black;font-family:sans-serif;font-size:13;" transform="matrix(1 0 0 1 776 1971)">Leading and trailing margins on the left and right side of each symbol</text>
  <text style="stroke:none;fill:black;font-family:sans-serif;font-size:13;" transform="matrix(1 0 0 1 776 1989)">can be adjusted by modifying the x-location of the margin guidelines.</text>
  <text style="stroke:none;fill:black;font-family:sans-serif;font-size:13;" transform="matrix(1 0 0 1 776 2007)">Modifications are automatically applied proportionally to all</text>
  <text style="stroke:none;fill:black;font-family:sans-serif;font-size:13;" transform="matrix(1 0 0 1 776 2025)">scales and weights.</text>
  <g transform="matrix(1 0 0 1 1289 1933)">
   <path d="M2.8418 1.86523L4.54102 3.57422Q5.18555 4.22852 5.90332 4.17969Q6.62109 4.13086 7.31445 3.35938L18.0078-8.42773L17.041-9.4043L6.42578 2.27539Q6.16211 2.57812 5.89355 2.61719Q5.625 2.65625 5.27344 2.30469L4.10156 1.14258Q3.75 0.791016 3.79395 0.522461Q3.83789 0.253906 4.14062-0.0195312L15.6152-10.8203L14.6387-11.7871L3.04688-0.898438Q2.30469-0.214844 2.25098 0.498047Q2.19727 1.21094 2.8418 1.86523ZM9.25781-16.3281Q8.94531-16.0254 8.90625-15.6348Q8.86719-15.2441 9.04297-14.9512Q9.21875-14.6777 9.55566-14.541Q9.89258-14.4043 10.3809-14.5215Q11.4746-14.7754 12.5977-14.7314Q13.7207-14.6875 14.7949-13.9844L14.209-12.5293Q13.9551-11.9043 14.0674-11.4404Q14.1797-10.9766 14.5801-10.5664L16.875-8.25195Q17.2363-7.88086 17.5781-7.82227Q17.9199-7.76367 18.3398-7.8418L19.4043-8.03711L20.0684-7.36328L20.0293-6.80664Q20-6.43555 20.1221-6.12305Q20.2441-5.81055 20.6055-5.44922L21.3672-4.70703Q21.7285-4.3457 22.1533-4.33105Q22.5781-4.31641 22.9297-4.66797L25.8398-7.58789Q26.1914-7.93945 26.1816-8.35449Q26.1719-8.76953 25.8105-9.13086L25.0391-9.89258Q24.6875-10.2539 24.3799-10.3857Q24.0723-10.5176 23.7109-10.4883L23.1348-10.4395L22.4902-11.0742L22.7344-12.1973Q22.832-12.6172 22.6953-12.9834Q22.5586-13.3496 22.1191-13.7891L19.9219-15.9766Q18.6719-17.2168 17.2607-17.8369Q15.8496-18.457 14.4189-18.4814Q12.9883-18.5059 11.665-17.959Q10.3418-17.4121 9.25781-16.3281ZM10.752-15.957Q11.6602-16.6211 12.7002-16.9043Q13.7402-17.1875 14.8047-17.085Q15.8691-16.9824 16.8701-16.5137Q17.8711-16.0449 18.7012-15.2051L21.1328-12.793Q21.3086-12.6172 21.3525-12.4512Q21.3965-12.2852 21.3379-12.0312L21.0156-10.5469L22.5195-9.0625L23.5059-9.12109Q23.6914-9.13086 23.7891-9.09668Q23.8867-9.0625 24.0332-8.91602L24.6094-8.33984L22.168-5.89844L21.5918-6.47461Q21.4453-6.62109 21.4062-6.71875Q21.3672-6.81641 21.377-7.01172L21.4453-7.98828L19.9512-9.47266L18.4277-9.21875Q18.1836-9.16992 18.042-9.2041Q17.9004-9.23828 17.7148-9.41406L15.7129-11.416Q15.5176-11.5918 15.4932-11.7529Q15.4688-11.9141 15.5859-12.1875L16.4648-14.2773Q15.293-15.3711 13.8281-15.791Q12.3633-16.2109 10.8398-15.7617Q10.7227-15.7324 10.6885-15.8057Q10.6543-15.8789 10.752-15.957Z"/>
  </g>
  <text style="stroke:none;fill:black;font-family:sans-serif;font-size:13;font-weight:bold;" transform="matrix(1 0 0 1 1289 1953)">Exporting</text>
  <text style="stroke:none;fill:black;font-family:sans-serif;font-size:13;" transform="matrix(1 0 0 1 1289 1971)">Symbols should be outlined when exporting to ensure the</text>
  <text style="stroke:none;fill:black;font-family:sans-serif;font-size:13;" transform="matrix(1 0 0 1 1289 1989)">design is preserved when submitting to Xcode.</text>
  <text id="template-version" style="stroke:none;fill:black;font-family:sans-serif;font-size:13;text-anchor:end;" transform="matrix(1 0 0 1 3036 1933)">Template v.3.0</text>
  <text style="stroke:none;fill:black;font-family:sans-serif;font-size:13;text-anchor:end;" transform="matrix(1 0 0 1 3036 1951)">Requires Xcode 13 or greater</text>
  <text id="descriptive-name" style="stroke:none;fill:black;font-family:sans-serif;font-size:13;text-anchor:end;" transform="matrix(1 0 0 1 3036 1969)">Generated from cart.fill</text>
  <text style="stroke:none;fill:black;font-family:sans-serif;font-size:13;text-anchor:end;" transform="matrix(1 0 0 1 3036 1987)">Typeset at 100 points</text>
  <text style="stroke:none;fill:black;font-family:sans-serif;font-size:13;" transform="matrix(1 0 0 1 263 726)">Small</text>
  <text style="stroke:none;fill:black;font-family:sans-serif;font-size:13;" transform="matrix(1 0 0 1 263 1156)">Medium</text>
  <text style="stroke:none;fill:black;font-family:sans-serif;font-size:13;" transform="matrix(1 0 0 1 263 1586)">Large</text>
 </g>
 <g id="Guides">
  <g id="H-reference" style="fill:#27AAE1;stroke:none;" transform="matrix(1 0 0 1 339 696)">
   <path d="M0.993347 0L3.6377 0L29.3282-67.1326L30.0301-67.1326L30.0301-70.459L28.1227-70.459ZM11.6882-24.4797L46.9818-24.4797L46.2311-26.7288L12.4382-26.7288ZM55.1193 0L57.7637 0L30.6381-70.459L29.4327-70.459L29.4327-67.1326Z"/>
  </g>
  <line id="Baseline-S" style="fill:none;stroke:#27AAE1;opacity:1;stroke-width:0.5;" x1="263" x2="3036" y1="696" y2="696"/>
  <line id="Capline-S" style="fill:none;stroke:#27AAE1;opacity:1;stroke-width:0.5;" x1="263" x2="3036" y1="625.541" y2="625.541"/>
  <g id="H-reference" style="fill:#27AAE1;stroke:none;" transform="matrix(1 0 0 1 339 1126)">
   <path d="M0.993347 0L3.6377 0L29.3282-67.1326L30.0301-67.1326L30.0301-70.459L28.1227-70.459ZM11.6882-24.4797L46.9818-24.4797L46.2311-26.7288L12.4382-26.7288ZM55.1193 0L57.7637 0L30.6381-70.459L29.4327-70.459L29.4327-67.1326Z"/>
  </g>
  <line id="Baseline-M" style="fill:none;stroke:#27AAE1;opacity:1;stroke-width:0.5;" x1="263" x2="3036" y1="1126" y2="1126"/>
  <line id="Capline-M" style="fill:none;stroke:#27AAE1;opacity:1;stroke-width:0.5;" x1="263" x2="3036" y1="1055.54" y2="1055.54"/>
  <g id="H-reference" style="fill:#27AAE1;stroke:none;" transform="matrix(1 0 0 1 339 1556)">
   <path d="M0.993347 0L3.6377 0L29.3282-67.1326L30.0301-67.1326L30.0301-70.459L28.1227-70.459ZM11.6882-24.4797L46.9818-24.4797L46.2311-26.7288L12.4382-26.7288ZM55.1193 0L57.7637 0L30.6381-70.459L29.4327-70.459L29.4327-67.1326Z"/>
  </g>
  <line id="Baseline-L" style="fill:none;stroke:#27AAE1;opacity:1;stroke-width:0.5;" x1="263" x2="3036" y1="1556" y2="1556"/>
  <line id="Capline-L" style="fill:none;stroke:#27AAE1;opacity:1;stroke-width:0.5;" x1="263" x2="3036" y1="1485.54" y2="1485.54"/>
  <line id="left-margin-Regular-M" style="fill:none;stroke:#00AEEF;stroke-width:0.5;opacity:1.0;" x1="1382.29" x2="1382.29" y1="1030.79" y2="1150.12"/>
  <line id="right-margin-Regular-M" style="fill:none;stroke:#00AEEF;stroke-width:0.5;opacity:1.0;" x1="1517.4" x2="1517.4" y1="1030.79" y2="1150.12"/>
 </g>
 <g id="Symbols">
  <g id="Black-L" transform="matrix(1 0 0 1 2843.97 1556)">
   <path d="M12.8906-85.6445Q12.8906-81.543 15.8447-78.5889Q18.7988-75.6348 22.8027-75.6348L37.5-75.6348L46.1426-17.0898Q47.4121-8.59375 52.124-3.83301Q56.8359 0.927734 65.332 0.927734L137.842 0.927734Q141.357 0.927734 144.092-1.3916Q146.826-3.71094 146.826-7.66602Q146.826-11.6211 144.092-13.8916Q141.357-16.1621 137.842-16.1621L67.8223-16.1621Q66.8945-16.1621 66.333-16.8213Q65.7715-17.4805 65.625-18.457L64.7949-24.4141L139.6-24.4141Q147.949-24.4141 152.71-29.1016Q157.471-33.7891 158.691-42.3828L162.402-68.3105Q162.5-69.0918 162.622-69.9707Q162.744-70.8496 162.744-71.6797Q162.744-75.8789 160.059-78.6133Q157.373-81.3477 152.002-81.3477L56.8848-81.3477L56.4453-84.2773Q55.6641-89.9414 52.5146-92.7979Q49.3652-95.6543 42.5293-95.6543L22.8027-95.6543Q18.7988-95.6543 15.8447-92.7002Q12.8906-89.7461 12.8906-85.6445ZM57.3242 22.0215Q57.3242 25.7324 59.1309 28.7842Q60.9375 31.8359 63.9893 33.6182Q67.041 35.4004 70.7031 35.4004Q74.4141 35.4004 77.4658 33.6182Q80.5176 31.8359 82.2998 28.7842Q84.082 25.7324 84.082 22.0215Q84.082 18.3105 82.2998 15.2832Q80.5176 12.2559 77.4658 10.4492Q74.4141 8.64258 70.7031 8.64258Q67.041 8.64258 63.9893 10.4492Q60.9375 12.2559 59.1309 15.2832Q57.3242 18.3105 57.3242 22.0215ZM113.574 22.0215Q113.574 25.7324 115.381 28.7842Q117.188 31.8359 120.239 33.6182Q123.291 35.4004 126.953 35.4004Q130.664 35.4004 133.691 33.6182Q136.719 31.8359 138.525 28.7842Q140.332 25.7324 140.332 22.0215Q140.332 18.3105 138.525 15.2832Q136.719 12.2559 133.691 10.4492Q130.664 8.64258 126.953 8.64258Q123.291 8.64258 120.239 10.4492Q117.188 12.2559 115.381 15.2832Q113.574 18.3105 113.574 22.0215Z"/>
  </g>
  <g id="Heavy-L" transform="matrix(1 0 0 1 2547.93 1556)">
   <path d="M12.8906-86.2556Q12.8906-82.7415 15.4182-80.1964Q17.9459-77.6512 21.3966-77.6512L37.8342-77.6512L46.8803-16.1911Q48.069-8.22525 52.4754-3.72925Q56.8817 0.766754 64.8827 0.766754L137.796 0.766754Q140.85 0.766754 143.216-1.27602Q145.582-3.31879 145.582-6.75583Q145.582-10.1921 143.216-12.1975Q140.85-14.2029 137.796-14.2029L67.0387-14.2029Q65.6502-14.2029 64.8121-15.1272Q63.974-16.0515 63.7581-17.5117L62.8471-23.8609L139.069-23.8609Q147.004-23.8609 151.448-28.318Q155.892-32.7751 157.043-40.8615L161.1-68.679Q161.198-69.4031 161.308-70.2301Q161.419-71.0571 161.419-71.7834Q161.419-75.4868 159.033-77.8812Q156.647-80.2757 151.968-80.2757L54.9026-80.2757L54.2442-84.6924Q53.5439-89.7453 50.7805-92.3023Q48.0171-94.8593 41.8144-94.8593L21.3966-94.8593Q17.9459-94.8593 15.4182-92.3199Q12.8906-89.7804 12.8906-86.2556ZM57.8079 21.7102Q57.8079 25.2022 59.5051 28.0697Q61.2022 30.9372 64.0697 32.6099Q66.9373 34.2827 70.3918 34.2827Q73.8838 34.2827 76.7456 32.6099Q79.6074 30.9372 81.2859 28.0697Q82.9643 25.2022 82.9643 21.7102Q82.9643 18.2182 81.2859 15.3694Q79.6074 12.5206 76.7456 10.8295Q73.8838 9.13849 70.3918 9.13849Q66.9373 9.13849 64.0697 10.8295Q61.2022 12.5206 59.5051 15.3694Q57.8079 18.2182 57.8079 21.7102ZM114.52 21.7102Q114.52 25.2022 116.222 28.0697Q117.925 30.9372 120.792 32.6099Q123.66 34.2827 127.114 34.2827Q130.606 34.2827 133.455 32.6099Q136.304 30.9372 138.001 28.0697Q139.698 25.2022 139.698 21.7102Q139.698 18.2182 138.001 15.3694Q136.304 12.5206 133.455 10.8295Q130.606 9.13849 127.114 9.13849Q123.66 9.13849 120.792 10.8295Q117.925 12.5206 116.222 15.3694Q114.52 18.2182 114.52 21.7102Z"/>
  </g>
  <g id="Bold-L" transform="matrix(1 0 0 1 2251.97 1556)">
   <path d="M12.8906-86.9385Q12.8906-84.082 14.9414-81.9946Q16.9922-79.9072 19.8242-79.9072L38.208-79.9072L47.7051-15.1855Q48.8037-7.8125 52.8687-3.61328Q56.9336 0.585938 64.3799 0.585938L137.744 0.585938Q140.283 0.585938 142.236-1.14746Q144.189-2.88086 144.189-5.7373Q144.189-8.59375 142.236-10.3027Q140.283-12.0117 137.744-12.0117L66.1621-12.0117Q64.2578-12.0117 63.1104-13.2324Q61.9629-14.4531 61.6699-16.4551L60.6689-23.2422L138.477-23.2422Q145.947-23.2422 150.037-27.4414Q154.126-31.6406 155.2-39.1602L159.644-69.0918Q159.741-69.751 159.839-70.52Q159.937-71.2891 159.937-71.8994Q159.937-75.0488 157.886-77.063Q155.835-79.0771 151.929-79.0771L52.6855-79.0771L51.7822-85.1562Q51.1719-89.5264 48.8403-91.748Q46.5088-93.9697 41.0156-93.9697L19.8242-93.9697Q16.9922-93.9697 14.9414-91.8945Q12.8906-89.8193 12.8906-86.9385ZM58.3496 21.3623Q58.3496 24.6094 59.9243 27.2705Q61.499 29.9316 64.1602 31.4819Q66.8213 33.0322 70.0439 33.0322Q73.291 33.0322 75.9399 31.4819Q78.5889 29.9316 80.1514 27.2705Q81.7139 24.6094 81.7139 21.3623Q81.7139 18.1152 80.1514 15.4663Q78.5889 12.8174 75.9399 11.2549Q73.291 9.69238 70.0439 9.69238Q66.8213 9.69238 64.1602 11.2549Q61.499 12.8174 59.9243 15.4663Q58.3496 18.1152 58.3496 21.3623ZM115.576 21.3623Q115.576 24.6094 117.163 27.2705Q118.75 29.9316 121.411 31.4819Q124.072 33.0322 127.295 33.0322Q130.542 33.0322 133.191 31.4819Q135.84 29.9316 137.415 27.2705Q138.989 24.6094 138.989 21.3623Q138.989 18.1152 137.415 15.4663Q135.84 12.8174 133.191 11.2549Q130.542 9.69238 127.295 9.69238Q124.072 9.69238 121.411 11.2549Q118.75 12.8174 117.163 15.4663Q115.576 18.1152 115.576 21.3623Z"/>
  </g>
  <g id="Semibold-L" transform="matrix(1 0 0 1 1955.77 1556)">
   <path d="M12.8906-87.4092Q12.8906-85.006 14.6126-83.234Q16.3345-81.4621 18.7401-81.4621L38.4659-81.4621L48.2742-14.492Q49.3103-7.52792 53.1399-3.53317Q56.9695 0.461578 64.0335 0.461578L137.708 0.461578Q139.892 0.461578 141.561-1.05858Q143.23-2.57874 143.23-5.0354Q143.23-7.49207 141.561-8.99658Q139.892-10.5011 137.708-10.5011L65.5579-10.5011Q63.298-10.5011 61.9373-11.9263Q60.5766-13.3514 60.2303-15.7265L59.1667-22.8157L138.068-22.8157Q145.219-22.8157 149.063-26.8372Q152.908-30.8586 153.929-37.9868L158.64-69.3764Q158.737-69.9913 158.826-70.7203Q158.914-71.4493 158.914-71.9795Q158.914-74.7467 157.095-76.4988Q155.275-78.2509 151.902-78.2509L51.1566-78.2509L50.0847-85.4759Q49.5369-89.3753 47.5029-91.3658Q45.4689-93.3563 40.4648-93.3563L18.7401-93.3563Q16.3345-93.3563 14.6126-91.6012Q12.8906-89.846 12.8906-87.4092ZM58.7227 21.122Q58.7227 24.2004 60.2131 26.7193Q61.7035 29.2381 64.2223 30.7041Q66.7412 32.1701 69.8036 32.1701Q72.8821 32.1701 75.3845 30.7041Q77.887 29.2381 79.3694 26.7193Q80.8517 24.2004 80.8517 21.122Q80.8517 18.0443 79.3694 15.5331Q77.887 13.0219 75.3845 11.5482Q72.8821 10.0746 69.8036 10.0746Q66.7412 10.0746 64.2223 11.5482Q61.7035 13.0219 60.2131 15.5331Q58.7227 18.0443 58.7227 21.122ZM116.305 21.122Q116.305 24.2004 117.812 26.7193Q119.319 29.2381 121.838 30.7041Q124.357 32.1701 127.419 32.1701Q130.498 32.1701 133.009 30.7041Q135.52 29.2381 137.01 26.7193Q138.5 24.2004 138.5 21.122Q138.5 18.0443 137.01 15.5331Q135.52 13.0219 133.009 11.5482Q130.498 10.0746 127.419 10.0746Q124.357 10.0746 121.838 11.5482Q119.319 13.0219 117.812 15.5331Q116.305 18.0443 116.305 21.122Z"/>
  </g>
  <g id="Medium-L" transform="matrix(1 0 0 1 1659.45 1556)">
   <path d="M12.8906-87.7663Q12.8906-85.7071 14.3631-84.1743Q15.8356-82.6416 17.9176-82.6416L38.6612-82.6416L48.7053-13.9671Q49.6941-7.31277 53.3451-3.4729Q56.9962 0.366974 63.7703 0.366974L137.682 0.366974Q139.596 0.366974 141.049-0.99144Q142.502-2.34985 142.502-4.50287Q142.502-6.65588 141.049-8.00552Q139.596-9.35516 137.682-9.35516L65.0993-9.35516Q62.5702-9.35516 61.0477-10.9352Q59.5253-12.5153 59.1385-15.1741L58.0284-22.4922L137.758-22.4922Q144.666-22.4922 148.326-26.379Q151.985-30.2658 152.966-37.0979L157.878-69.5915Q157.976-70.1729 158.058-70.8717Q158.14-71.5706 158.14-72.0398Q158.14-74.5178 156.495-76.0708Q154.851-77.6237 151.882-77.6237L49.9977-77.6237L48.7976-85.7185Q48.2971-89.2609 46.489-91.0763Q44.6808-92.8917 40.0467-92.8917L17.9176-92.8917Q15.8356-92.8917 14.3631-91.3788Q12.8906-89.8659 12.8906-87.7663ZM59.0057 20.9404Q59.0057 23.8907 60.4321 26.302Q61.8584 28.7132 64.2696 30.1147Q66.6809 31.5163 69.622 31.5163Q72.5723 31.5163 74.9634 30.1147Q77.3544 28.7132 78.7762 26.302Q80.1979 23.8907 80.1979 20.9404Q80.1979 17.9901 78.7762 15.5834Q77.3544 13.1767 74.9634 11.7706Q72.5723 10.3645 69.622 10.3645Q66.6809 10.3645 64.2696 11.7706Q61.8584 13.1767 60.4321 15.5834Q59.0057 17.9901 59.0057 20.9404ZM116.857 20.9404Q116.857 23.8907 118.304 26.302Q119.75 28.7132 122.161 30.1147Q124.572 31.5163 127.514 31.5163Q130.464 31.5163 132.871 30.1147Q135.278 28.7132 136.704 26.302Q138.13 23.8907 138.13 20.9404Q138.13 17.9901 136.704 15.5834Q135.278 13.1767 132.871 11.7706Q130.464 10.3645 127.514 10.3645Q124.572 10.3645 122.161 11.7706Q119.75 13.1767 118.304 15.5834Q116.857 17.9901 116.857 20.9404Z"/>
  </g>
  <g id="Regular-L" transform="matrix(1 0 0 1 1363.25 1556)">
   <path d="M12.8906-88.2324Q12.8906-86.6211 14.0381-85.4004Q15.1855-84.1797 16.8457-84.1797L38.916-84.1797L49.2676-13.2812Q50.1953-7.03125 53.6133-3.39355Q57.0312 0.244141 63.4277 0.244141L137.646 0.244141Q139.209 0.244141 140.381-0.90332Q141.553-2.05078 141.553-3.80859Q141.553-5.56641 140.381-6.71387Q139.209-7.86133 137.646-7.86133L64.502-7.86133Q61.6211-7.86133 59.8877-9.64355Q58.1543-11.4258 57.7148-14.4531L56.543-22.0703L137.354-22.0703Q143.945-22.0703 147.363-25.7812Q150.781-29.4922 151.709-35.9375L156.885-69.873Q156.982-70.4102 157.056-71.0693Q157.129-71.7285 157.129-72.1191Q157.129-74.2188 155.713-75.5127Q154.297-76.8066 151.855-76.8066L48.4863-76.8066L47.1191-86.0352Q46.6797-89.1113 45.166-90.6982Q43.6523-92.2852 39.502-92.2852L16.8457-92.2852Q15.1855-92.2852 14.0381-91.0889Q12.8906-89.8926 12.8906-88.2324ZM59.375 20.7031Q59.375 23.4863 60.7178 25.7568Q62.0605 28.0273 64.3311 29.3457Q66.6016 30.6641 69.3848 30.6641Q72.168 30.6641 74.4141 29.3457Q76.6602 28.0273 78.0029 25.7568Q79.3457 23.4863 79.3457 20.7031Q79.3457 17.9199 78.0029 15.6494Q76.6602 13.3789 74.4141 12.0605Q72.168 10.7422 69.3848 10.7422Q66.6016 10.7422 64.3311 12.0605Q62.0605 13.3789 60.7178 15.6494Q59.375 17.9199 59.375 20.7031ZM117.578 20.7031Q117.578 23.4863 118.945 25.7568Q120.312 28.0273 122.583 29.3457Q124.854 30.6641 127.637 30.6641Q130.42 30.6641 132.69 29.3457Q134.961 28.0273 136.304 25.7568Q137.646 23.4863 137.646 20.7031Q137.646 17.9199 136.304 15.6494Q134.961 13.3789 132.69 12.0605Q130.42 10.7422 127.637 10.7422Q124.854 10.7422 122.583 12.0605Q120.312 13.3789 118.945 15.6494Q117.578 17.9199 117.578 20.7031Z"/>
  </g>
  <g id="Light-L" transform="matrix(1 0 0 1 1067.32 1556)">
   <path d="M12.8906-88.6108Q12.8906-87.3779 13.7505-86.4372Q14.6103-85.4965 15.892-85.4965L39.0373-85.4965L49.7826-12.2971Q50.6195-6.66809 53.6968-3.41644Q56.7741-0.164795 62.5648-0.164795L137.662-0.164795Q138.861-0.164795 139.753-1.04713Q140.645-1.92947 140.645-3.27911Q140.645-4.62799 139.753-5.50308Q138.861-6.37817 137.662-6.37817L63.5941-6.37817Q60.4858-6.37817 58.6163-8.21342Q56.7467-10.0487 56.2469-13.3636L54.863-22.3732L136.839-22.3732Q143.007-22.3732 146.054-25.7206Q149.101-29.068 149.983-35.0296L155.326-69.7823Q155.408-70.2438 155.489-70.8878Q155.57-71.5317 155.57-71.8773Q155.57-73.7495 154.366-74.8768Q153.162-76.004 150.977-76.004L46.8666-76.004L45.2271-86.898Q44.8784-89.2479 43.6901-90.4789Q42.5018-91.7099 39.2601-91.7099L15.892-91.7099Q14.6103-91.7099 13.7505-90.7936Q12.8906-89.8773 12.8906-88.6108ZM60.1776 20.3705Q60.1776 23.0621 61.4746 25.2571Q62.7716 27.4521 64.959 28.7251Q67.1463 29.998 69.8387 29.998Q72.5311 29.998 74.7093 28.7251Q76.8875 27.4521 78.1849 25.2571Q79.4823 23.0621 79.4823 20.3705Q79.4823 17.6781 78.1849 15.4907Q76.8875 13.3034 74.7093 12.0228Q72.5311 10.7422 69.8387 10.7422Q67.1463 10.7422 64.959 12.0228Q62.7716 13.3034 61.4746 15.4907Q60.1776 17.6781 60.1776 20.3705ZM117.457 20.3705Q117.457 23.0621 118.771 25.2571Q120.085 27.4521 122.288 28.7251Q124.49 29.998 127.183 29.998Q129.875 29.998 132.063 28.7251Q134.25 27.4521 135.547 25.2571Q136.844 23.0621 136.844 20.3705Q136.844 17.6781 135.547 15.4907Q134.25 13.3034 132.063 12.0228Q129.875 10.7422 127.183 10.7422Q124.49 10.7422 122.288 12.0228Q120.085 13.3034 118.771 15.4907Q117.457 17.6781 117.457 20.3705Z"/>
  </g>
  <g id="Thin-L" transform="matrix(1 0 0 1 771.636 1556)">
   <path d="M12.8906-89.1113Q12.8906-88.3789 13.3701-87.8086Q13.8496-87.2383 14.6309-87.2383L39.1975-87.2383L50.4631-10.9962Q51.1795-6.18744 53.8067-3.4462Q56.4339-0.704956 61.4243-0.704956L137.682-0.704956Q138.4-0.704956 138.922-1.23711Q139.443-1.76926 139.443-2.57797Q139.443-3.38669 138.922-3.90129Q138.4-4.41589 137.682-4.41589L62.3924-4.41589Q58.9844-4.41589 56.9347-6.32133Q54.8851-8.22678 54.3045-11.9217L52.6405-22.7737L136.158-22.7737Q141.766-22.7737 144.322-25.6409Q146.879-28.508 147.701-33.828L153.264-69.6625Q153.326-70.0233 153.417-70.6474Q153.508-71.2715 153.508-71.5569Q153.508-73.1293 152.584-74.0364Q151.66-74.9435 149.816-74.9435L44.725-74.9435L42.7246-88.0386Q42.4965-89.4279 41.7385-90.1886Q40.9805-90.9492 38.9397-90.9492L14.6309-90.9492Q13.8496-90.9492 13.3701-90.4034Q12.8906-89.8575 12.8906-89.1113ZM61.2381 19.9295Q61.2381 22.5021 62.4756 24.5968Q63.7131 26.6914 65.7902 27.9045Q67.8673 29.1176 70.4391 29.1176Q73.0118 29.1176 75.0996 27.9045Q77.1873 26.6914 78.4248 24.5968Q79.6623 22.5021 79.6623 19.9295Q79.6623 17.3576 78.4248 15.2805Q77.1873 13.2034 75.0996 11.9728Q73.0118 10.7422 70.4391 10.7422Q67.8673 10.7422 65.7902 11.9728Q63.7131 13.2034 62.4756 15.2805Q61.2381 17.3576 61.2381 19.9295ZM117.297 19.9295Q117.297 22.5021 118.541 24.5968Q119.785 26.6914 121.898 27.9045Q124.01 29.1176 126.582 29.1176Q129.154 29.1176 131.231 27.9045Q133.308 26.6914 134.546 24.5968Q135.783 22.5021 135.783 19.9295Q135.783 17.3576 134.546 15.2805Q133.308 13.2034 131.231 11.9728Q129.154 10.7422 126.582 10.7422Q124.01 10.7422 121.898 11.9728Q119.785 13.2034 118.541 15.2805Q117.297 17.3576 117.297 19.9295Z"/>
  </g>
  <g id="Ultralight-L" transform="matrix(1 0 0 1 475.453 1556)">
   <path d="M12.8906-89.3677Q12.8906-88.8916 13.1752-88.5109Q13.4598-88.1302 13.9847-88.1302L39.2792-88.1302L50.8118-10.3294Q51.4671-5.94177 53.8631-3.46184Q56.2592-0.981903 60.8391-0.981903L137.692-0.981903Q138.165-0.981903 138.496-1.33476Q138.828-1.68762 138.828-2.21939Q138.828-2.75116 138.496-3.08113Q138.165-3.4111 137.692-3.4111L61.7775-3.4111Q58.2153-3.4111 56.0734-5.3524Q53.9314-7.2937 53.3104-11.1839L51.5022-22.9782L135.809-22.9782Q141.13-22.9782 143.435-25.5993Q145.741-28.2204 146.532-33.213L152.207-69.6007Q152.26-69.9104 152.356-70.5242Q152.451-71.138 152.451-71.3928Q152.451-72.8111 151.671-73.6053Q150.891-74.3996 149.222-74.3996L43.6272-74.3996L41.4429-88.6238Q41.2758-89.5203 40.7387-90.0398Q40.2016-90.5594 38.7756-90.5594L13.9847-90.5594Q13.4598-90.5594 13.1752-90.2031Q12.8906-89.8468 12.8906-89.3677ZM61.7821 19.7044Q61.7821 22.2145 62.9883 24.258Q64.1945 26.3016 66.2155 27.4837Q68.2365 28.6659 70.7474 28.6659Q73.2574 28.6659 75.2995 27.4837Q77.3415 26.3016 78.548 24.258Q79.7546 22.2145 79.7546 19.7044Q79.7546 17.1936 78.548 15.1726Q77.3415 13.1516 75.2995 11.9469Q73.2574 10.7422 70.7474 10.7422Q68.2365 10.7422 66.2155 11.9469Q64.1945 13.1516 62.9883 15.1726Q61.7821 17.1936 61.7821 19.7044ZM117.215 19.7044Q117.215 22.2145 118.423 24.258Q119.631 26.3016 121.698 27.4837Q123.764 28.6659 126.274 28.6659Q128.785 28.6659 130.806 27.4837Q132.827 26.3016 134.033 24.258Q135.239 22.2145 135.239 19.7044Q135.239 17.1936 134.033 15.1726Q132.827 13.1516 130.806 11.9469Q128.785 10.7422 126.274 10.7422Q123.764 10.7422 121.698 11.9469Q119.631 13.1516 118.423 15.1726Q117.215 17.1936 117.215 19.7044Z"/>
  </g>
  <g id="Black-M" transform="matrix(1 0 0 1 2863.8 1126)">
   <path d="M9.96094-73.877Q9.96094-70.3613 12.5244-67.7979Q15.0879-65.2344 18.5547-65.2344L28.8574-65.2344L35.3027-21.582Q36.3281-14.7949 40.1123-11.0107Q43.8965-7.22656 50.6836-7.22656L106.885-7.22656Q109.863-7.22656 112.207-9.15527Q114.551-11.084 114.551-14.502Q114.551-17.8711 112.207-19.751Q109.863-21.6309 106.885-21.6309L52.9297-21.6309Q52.5391-21.6309 52.2949-21.9238Q52.0508-22.2168 52.002-22.6562L51.3184-27.3926L108.447-27.3926Q115.137-27.3926 118.97-31.1279Q122.803-34.8633 123.779-41.7969L126.465-60.5469Q126.514-61.1328 126.636-61.8408Q126.758-62.5488 126.758-63.3301Q126.758-66.8945 124.487-69.2627Q122.217-71.6309 117.529-71.6309L45.2148-71.6309L45.0195-73.1934Q44.3848-77.832 41.6992-80.1758Q39.0137-82.5195 33.4961-82.5195L18.5547-82.5195Q15.0879-82.5195 12.5244-79.9805Q9.96094-77.4414 9.96094-73.877ZM44.2383 9.27734Q44.2383 12.3535 45.752 14.8438Q47.2656 17.334 49.7559 18.7988Q52.2461 20.2637 55.2246 20.2637Q59.7656 20.2637 62.9639 17.0654Q66.1621 13.8672 66.1621 9.27734Q66.1621 4.78516 62.9639 1.5625Q59.7656-1.66016 55.2246-1.66016Q52.2461-1.66016 49.7559-0.170898Q47.2656 1.31836 45.752 3.80859Q44.2383 6.29883 44.2383 9.27734ZM87.1582 9.27734Q87.1582 13.8672 90.3809 17.0654Q93.6035 20.2637 98.0957 20.2637Q102.637 20.2637 105.835 17.0654Q109.033 13.8672 109.033 9.27734Q109.033 4.78516 105.835 1.5625Q102.637-1.66016 98.0957-1.66016Q95.0684-1.66016 92.5781-0.170898Q90.0879 1.31836 88.623 3.80859Q87.1582 6.29883 87.1582 9.27734Z"/>
  </g>
  <g id="Heavy-M" transform="matrix(1 0 0 1 2567.57 1126)">
   <path d="M9.96094-74.4072Q9.96094-71.3638 12.1731-69.1463Q14.3852-66.9289 17.379-66.9289L29.1458-66.9289L35.9138-20.9251Q36.8813-14.5065 40.4408-10.9013Q44.0002-7.29599 50.4417-7.29599L106.827-7.29599Q109.437-7.29599 111.481-9.01718Q113.525-10.7384 113.525-13.7184Q113.525-16.6611 111.481-18.3449Q109.437-20.0287 106.827-20.0287L52.3537-20.0287Q51.5709-20.0287 51.0792-20.5696Q50.5875-21.1105 50.4807-21.9765L49.7742-26.8051L108.044-26.8051Q114.422-26.8051 118.019-30.3791Q121.616-33.9531 122.546-40.4945L125.52-60.9154Q125.58-61.4784 125.685-62.1403Q125.79-62.8021 125.79-63.4796Q125.79-66.6176 123.767-68.6863Q121.745-70.755 117.69-70.755L43.6363-70.755L43.2564-73.4123Q42.6788-77.6245 40.3103-79.7493Q37.9417-81.8741 32.8392-81.8741L17.379-81.8741Q14.3852-81.8741 12.1731-79.6749Q9.96094-77.4757 9.96094-74.4072ZM44.5496 9.04694Q44.5496 11.9156 45.9595 14.2445Q47.3694 16.5733 49.6925 17.9401Q52.0157 19.3069 54.821 19.3069Q59.063 19.3069 62.0537 16.3219Q65.0444 13.3369 65.0444 9.04694Q65.0444 4.83093 62.0537 1.82724Q59.063-1.17645 54.821-1.17645Q52.0157-1.17645 49.6925 0.209427Q47.3694 1.59531 45.9595 3.92418Q44.5496 6.25305 44.5496 9.04694ZM88.1149 9.04694Q88.1149 13.3369 91.1301 16.3219Q94.1452 19.3069 98.349 19.3069Q102.602 19.3069 105.593 16.3219Q108.584 13.3369 108.584 9.04694Q108.584 4.83093 105.593 1.82724Q102.602-1.17645 98.349-1.17645Q95.5177-1.17645 93.1889 0.209427Q90.86 1.59531 89.4875 3.92418Q88.1149 6.25305 88.1149 9.04694Z"/>
  </g>
  <g id="Bold-M" transform="matrix(1 0 0 1 2271.4 1126)">
   <path d="M9.96094-75Q9.96094-72.4854 11.7798-70.6543Q13.5986-68.8232 16.0645-68.8232L29.4678-68.8232L36.5967-20.1904Q37.5-14.1846 40.8081-10.7788Q44.1162-7.37305 50.1709-7.37305L106.763-7.37305Q108.96-7.37305 110.669-8.8623Q112.378-10.3516 112.378-12.8418Q112.378-15.3076 110.669-16.7725Q108.96-18.2373 106.763-18.2373L51.709-18.2373Q50.4883-18.2373 49.7192-19.0552Q48.9502-19.873 48.7793-21.2158L48.0469-26.1475L107.593-26.1475Q113.623-26.1475 116.956-29.541Q120.288-32.9346 121.167-39.0381L124.463-61.3281Q124.536-61.8652 124.622-62.4756Q124.707-63.0859 124.707-63.6475Q124.707-66.3086 122.961-68.042Q121.216-69.7754 117.871-69.7754L41.8701-69.7754L41.2842-73.6572Q40.7715-77.3926 38.7573-79.2725Q36.7432-81.1523 32.1045-81.1523L16.0645-81.1523Q13.5986-81.1523 11.7798-79.3335Q9.96094-77.5146 9.96094-75ZM44.8975 8.78906Q44.8975 11.4258 46.1914 13.5742Q47.4854 15.7227 49.6216 16.98Q51.7578 18.2373 54.3701 18.2373Q58.2764 18.2373 61.0352 15.4907Q63.7939 12.7441 63.7939 8.78906Q63.7939 4.88281 61.0352 2.12402Q58.2764-0.634766 54.3701-0.634766Q51.7578-0.634766 49.6216 0.634766Q47.4854 1.9043 46.1914 4.05273Q44.8975 6.20117 44.8975 8.78906ZM89.1846 8.78906Q89.1846 12.7441 91.9678 15.4907Q94.751 18.2373 98.6328 18.2373Q102.563 18.2373 105.322 15.4907Q108.081 12.7441 108.081 8.78906Q108.081 4.88281 105.322 2.12402Q102.563-0.634766 98.6328-0.634766Q96.0205-0.634766 93.8721 0.634766Q91.7236 1.9043 90.4541 4.05273Q89.1846 6.20117 89.1846 8.78906Z"/>
  </g>
  <g id="Semibold-M" transform="matrix(1 0 0 1 1975.06 1126)">
   <path d="M9.96094-75.4089Q9.96094-73.2582 11.5086-71.6938Q13.0562-70.1294 15.1581-70.1294L29.6898-70.1294L37.0674-19.6838Q37.9265-13.9626 41.0614-10.6945Q44.1963-7.42645 49.984-7.42645L106.718-7.42645Q108.631-7.42645 110.109-8.75587Q111.587-10.0853 111.587-12.2375Q111.587-14.3745 110.109-15.6883Q108.631-17.0021 106.718-17.0021L51.265-17.0021Q49.7421-17.0021 48.782-18.0111Q47.8218-19.0201 47.6059-20.6917L46.8559-25.6943L107.281-25.6943Q113.072-25.6943 116.222-28.9635Q119.373-32.2327 120.216-38.0341L123.734-61.6127Q123.816-62.1315 123.888-62.7064Q123.961-63.2812 123.961-63.7627Q123.961-66.095 122.406-67.5976Q120.851-69.1002 117.995-69.1002L40.6525-69.1002L39.9246-73.8258Q39.4562-77.2324 37.6865-78.9436Q35.9169-80.6549 31.5979-80.6549L15.1581-80.6549Q13.0562-80.6549 11.5086-79.0981Q9.96094-77.5414 9.96094-75.4089ZM45.1378 8.6113Q45.1378 11.0878 46.3516 13.1119Q47.5655 15.136 49.5728 16.3177Q51.58 17.4995 54.0588 17.4995Q57.7339 17.4995 60.3329 14.9174Q62.9318 12.3352 62.9318 8.6113Q62.9318 4.91867 60.3329 2.32849Q57.7339-0.261688 54.0588-0.261688Q51.58-0.261688 49.5728 0.928116Q47.5655 2.11792 46.3516 4.14162Q45.1378 6.16531 45.1378 8.6113ZM89.9223 8.6113Q89.9223 12.3352 92.5453 14.9174Q95.1683 17.4995 98.8281 17.4995Q102.537 17.4995 105.136 14.9174Q107.735 12.3352 107.735 8.6113Q107.735 4.91867 105.136 2.32849Q102.537-0.261688 98.8281-0.261688Q96.3669-0.261688 94.3428 0.928116Q92.3187 2.11792 91.1205 4.14162Q89.9223 6.16531 89.9223 8.6113Z"/>
  </g>
  <g id="Medium-M" transform="matrix(1 0 0 1 1678.63 1126)">
   <path d="M9.96094-75.7187Q9.96094-73.8449 11.3033-72.4827Q12.6457-71.1205 14.4707-71.1205L29.8584-71.1205L37.4245-19.3001Q38.25-13.7939 41.2533-10.6304Q44.2566-7.46689 49.8428-7.46689L106.685-7.46689Q108.382-7.46689 109.684-8.675Q110.987-9.88312 110.987-11.779Q110.987-13.6673 109.684-14.8663Q108.382-16.0652 106.685-16.0652L50.9277-16.0652Q49.176-16.0652 48.0709-17.2192Q46.9658-18.3731 46.7171-20.2942L45.9534-25.3502L107.046-25.3502Q112.654-25.3502 115.667-28.5252Q118.679-31.7001 119.495-37.2726L123.182-61.8279Q123.27-62.3337 123.333-62.8819Q123.395-63.43 123.395-63.8504Q123.395-65.9332 121.985-67.2604Q120.575-68.5875 118.09-68.5875L39.7293-68.5875L38.8931-73.954Q38.459-77.1111 36.8744-78.6942Q35.2898-80.2773 31.2141-80.2773L14.4707-80.2773Q12.6457-80.2773 11.3033-78.9192Q9.96094-77.5612 9.96094-75.7187ZM45.3194 8.47626Q45.3194 10.8322 46.4725 12.7617Q47.6257 14.6912 49.5354 15.8157Q51.445 16.9403 53.8231 16.9403Q57.3235 16.9403 59.8007 14.4829Q62.278 12.0255 62.278 8.47626Q62.278 4.94537 59.8007 2.48337Q57.3235 0.0213623 53.8231 0.0213623Q51.445 0.0213623 49.5354 1.15051Q47.6257 2.27966 46.4725 4.20914Q45.3194 6.13861 45.3194 8.47626ZM90.4816 8.47626Q90.4816 12.0255 92.9836 14.4829Q95.4857 16.9403 98.9769 16.9403Q102.517 16.9403 104.994 14.4829Q107.471 12.0255 107.471 8.47626Q107.471 4.94537 104.994 2.48337Q102.517 0.0213623 98.9769 0.0213623Q96.6301 0.0213623 94.7002 1.15051Q92.7704 2.27966 91.626 4.20914Q90.4816 6.13861 90.4816 8.47626Z"/>
  </g>
  <g id="Regular-M" transform="matrix(1 0 0 1 1382.29 1126)">
   <path d="M9.96094-76.123Q9.96094-74.6094 11.0352-73.5107Q12.1094-72.4121 13.5742-72.4121L30.0781-72.4121L37.8906-18.7988Q38.6719-13.5742 41.5039-10.5469Q44.3359-7.51953 49.6582-7.51953L106.641-7.51953Q108.057-7.51953 109.131-8.56934Q110.205-9.61914 110.205-11.1816Q110.205-12.7441 109.131-13.7939Q108.057-14.8438 106.641-14.8438L50.4883-14.8438Q48.4375-14.8438 47.1436-16.1865Q45.8496-17.5293 45.5566-19.7754L44.7754-24.9023L106.738-24.9023Q112.109-24.9023 114.941-27.9541Q117.773-31.0059 118.555-36.2793L122.461-62.1094Q122.559-62.5977 122.607-63.1104Q122.656-63.623 122.656-63.9648Q122.656-65.7227 121.436-66.8213Q120.215-67.9199 118.213-67.9199L38.5254-67.9199L37.5488-74.1211Q37.1582-76.9531 35.8154-78.3691Q34.4727-79.7852 30.7129-79.7852L13.5742-79.7852Q12.1094-79.7852 11.0352-78.6865Q9.96094-77.5879 9.96094-76.123ZM45.5566 8.30078Q45.5566 10.498 46.6309 12.3047Q47.7051 14.1113 49.4873 15.1611Q51.2695 16.2109 53.5156 16.2109Q56.7871 16.2109 59.1064 13.916Q61.4258 11.6211 61.4258 8.30078Q61.4258 4.98047 59.1064 2.68555Q56.7871 0.390625 53.5156 0.390625Q51.2695 0.390625 49.4873 1.44043Q47.7051 2.49023 46.6309 4.29688Q45.5566 6.10352 45.5566 8.30078ZM91.2109 8.30078Q91.2109 11.6211 93.5547 13.916Q95.8984 16.2109 99.1699 16.2109Q102.49 16.2109 104.81 13.916Q107.129 11.6211 107.129 8.30078Q107.129 4.98047 104.81 2.68555Q102.49 0.390625 99.1699 0.390625Q96.9727 0.390625 95.166 1.44043Q93.3594 2.49023 92.2852 4.29688Q91.2109 6.10352 91.2109 8.30078Z"/>
  </g>
  <g id="Light-M" transform="matrix(1 0 0 1 1086.28 1126)">
   <path d="M9.96094-76.4557Q9.96094-75.2907 10.7777-74.4419Q11.5944-73.5931 12.7266-73.5931L30.1994-73.5931L38.3598-17.9207Q39.0503-13.2561 41.5794-10.5694Q44.1086-7.88269 48.8861-7.88269L106.656-7.88269Q107.754-7.88269 108.578-8.69026Q109.402-9.49783 109.402-10.6972Q109.402-11.9118 108.578-12.7193Q107.754-13.5269 106.656-13.5269L49.6857-13.5269Q47.4083-13.5269 46.0007-14.9151Q44.593-16.3033 44.2398-18.7912L43.2617-25.1595L106.284-25.1595Q111.262-25.1595 113.768-27.9011Q116.275-30.6427 117.01-35.4622L121.069-62.0338Q121.151-62.4466 121.207-62.9517Q121.264-63.4567 121.264-63.7375Q121.264-65.2985 120.232-66.246Q119.201-67.1936 117.41-67.1936L37.0575-67.1936L35.8688-74.8932Q35.5537-77.0592 34.4986-78.1647Q33.4435-79.2702 30.5008-79.2702L12.7266-79.2702Q11.5944-79.2702 10.7777-78.4214Q9.96094-77.5726 9.96094-76.4557ZM46.283 7.99789Q46.283 10.1196 47.3118 11.858Q48.3406 13.5963 50.0549 14.6084Q51.7693 15.6204 53.9246 15.6204Q57.09 15.6204 59.3185 13.4087Q61.5471 11.1969 61.5471 7.99789Q61.5471 4.81415 59.3185 2.60239Q57.09 0.390625 53.9246 0.390625Q51.7693 0.390625 50.0549 1.40266Q48.3406 2.4147 47.3118 4.15306Q46.283 5.89142 46.283 7.99789ZM91.0896 7.99789Q91.0896 11.1969 93.3502 13.4087Q95.6108 15.6204 98.761 15.6204Q101.961 15.6204 104.189 13.4087Q106.418 11.1969 106.418 7.99789Q106.418 4.81415 104.189 2.60239Q101.961 0.390625 98.761 0.390625Q96.64 0.390625 94.9013 1.40266Q93.1625 2.4147 92.1261 4.15306Q91.0896 5.89142 91.0896 7.99789Z"/>
  </g>
  <g id="Thin-M" transform="matrix(1 0 0 1 790.486 1126)">
   <path d="M9.96094-76.8967Q9.96094-76.1917 10.4374-75.6729Q10.9138-75.1541 11.6058-75.1541L30.3596-75.1541L38.9801-16.7595Q39.5508-12.8357 41.6798-10.5995Q43.8087-8.36334 47.8653-8.36334L106.676-8.36334Q107.353-8.36334 107.848-8.85048Q108.342-9.33762 108.342-10.0571Q108.342-10.8109 107.848-11.298Q107.353-11.7851 106.676-11.7851L48.6252-11.7851Q46.0472-11.7851 44.4897-13.2336Q42.9321-14.682 42.498-17.4904L41.2598-25.4997L105.684-25.4997Q110.141-25.4997 112.217-27.8309Q114.293-30.162 114.969-34.3811L119.227-61.9339Q119.289-62.2459 119.356-62.7411Q119.422-63.2362 119.422-63.4377Q119.422-64.7385 118.641-65.4854Q117.86-66.2323 116.35-66.2323L35.1151-66.2323L33.6464-75.914Q33.432-77.1996 32.7572-77.8946Q32.0824-78.5896 30.2208-78.5896L11.6058-78.5896Q10.9138-78.5896 10.4374-78.0712Q9.96094-77.5528 9.96094-76.8967ZM47.2443 7.59735Q47.2443 9.61914 48.2128 11.2675Q49.1814 12.9158 50.8057 13.8779Q52.43 14.8399 54.4647 14.8399Q57.4905 14.8399 59.5989 12.7384Q61.7073 10.6369 61.7073 7.59735Q61.7073 4.59366 59.5989 2.49214Q57.4905 0.390625 54.4647 0.390625Q52.43 0.390625 50.8057 1.35269Q49.1814 2.31476 48.2128 3.96309Q47.2443 5.61142 47.2443 7.59735ZM90.9294 7.59735Q90.9294 10.6369 93.0801 12.7384Q95.2309 14.8399 98.2208 14.8399Q101.26 14.8399 103.368 12.7384Q105.476 10.6369 105.476 7.59735Q105.476 4.59366 103.368 2.49214Q101.26 0.390625 98.2208 0.390625Q96.199 0.390625 94.5507 1.35269Q92.9024 2.31476 91.9159 3.96309Q90.9294 5.61142 90.9294 7.59735Z"/>
  </g>
  <g id="Ultralight-M" transform="matrix(1 0 0 1 494.246 1126)">
   <path d="M9.96094-77.1217Q9.96094-76.6525 10.2631-76.3035Q10.5652-75.9544 11.0313-75.9544L30.4413-75.9544L39.2982-16.1652Q39.8071-12.6205 41.7309-10.6148Q43.6546-8.60901 47.3427-8.60901L106.686-8.60901Q107.149-8.60901 107.473-8.9325Q107.798-9.25598 107.798-9.72824Q107.798-10.2463 107.473-10.5698Q107.149-10.8932 106.686-10.8932L48.0812-10.8932Q45.3499-10.8932 43.7153-12.3722Q42.0807-13.8512 41.6061-16.8236L40.2344-25.6744L105.376-25.6744Q109.566-25.6744 111.422-27.7954Q113.278-29.9164 113.923-33.8272L118.283-61.882Q118.336-62.1437 118.407-62.6335Q118.478-63.1233 118.478-63.2835Q118.478-64.4508 117.825-65.0955Q117.172-65.7402 115.806-65.7402L34.1209-65.7402L32.5081-76.4374Q32.3448-77.2713 31.8649-77.7561Q31.385-78.241 30.0774-78.241L11.0313-78.241Q10.5652-78.241 10.2631-77.8915Q9.96094-77.5421 9.96094-77.1217ZM47.7364 7.39288Q47.7364 9.36279 48.6744 10.965Q49.6124 12.5671 51.1902 13.5036Q52.7679 14.4402 54.7417 14.4402Q57.695 14.4402 59.742 12.3947Q61.7889 10.3493 61.7889 7.39288Q61.7889 4.48074 59.742 2.43568Q57.695 0.390625 54.7417 0.390625Q52.7679 0.390625 51.1902 1.32675Q49.6124 2.26288 48.6744 3.86543Q47.7364 5.46799 47.7364 7.39288ZM90.8478 7.39288Q90.8478 10.3493 92.9417 12.3947Q95.0356 14.4402 97.9439 14.4402Q100.901 14.4402 102.948 12.3947Q104.995 10.3493 104.995 7.39288Q104.995 4.48074 102.948 2.43568Q100.901 0.390625 97.9439 0.390625Q95.974 0.390625 94.3714 1.32675Q92.7689 2.26288 91.8083 3.86543Q90.8478 5.46799 90.8478 7.39288Z"/>
  </g>
  <g id="Black-S" transform="matrix(1 0 0 1 2878.76 696)">
   <path d="M7.8125-65.3809Q7.8125-62.5 9.91211-60.4004Q12.0117-58.3008 14.8438-58.3008L22.5098-58.3008L27.4902-24.707Q28.3203-19.2871 31.3477-16.2842Q34.375-13.2812 39.7461-13.2812L83.7402-13.2812Q86.1816-13.2812 88.0859-14.8438Q89.9902-16.4062 89.9902-19.1895Q89.9902-21.9238 88.0859-23.4619Q86.1816-25 83.7402-25L41.6016-25Q41.4062-25 41.2842-25.1709Q41.1621-25.3418 41.1133-25.5371L40.5762-29.2969L85.0586-29.2969Q90.3809-29.2969 93.4326-32.251Q96.4844-35.2051 97.2656-40.7227L99.2676-54.9316Q99.3652-55.4199 99.4385-55.9814Q99.5117-56.543 99.5117-57.1777Q99.5117-60.1074 97.6807-62.0361Q95.8496-63.9648 91.9922-63.9648L35.8398-63.9648L35.6934-64.9414Q35.2051-68.7012 33.0322-70.5811Q30.8594-72.4609 26.416-72.4609L14.8438-72.4609Q12.0117-72.4609 9.91211-70.3613Q7.8125-68.2617 7.8125-65.3809ZM34.6191-0.292969Q34.6191 3.36914 37.2314 5.93262Q39.8438 8.49609 43.4082 8.49609Q47.0703 8.49609 49.6338 5.93262Q52.1973 3.36914 52.1973-0.292969Q52.1973-3.90625 49.6338-6.49414Q47.0703-9.08203 43.4082-9.08203Q39.8438-9.08203 37.2314-6.49414Q34.6191-3.90625 34.6191-0.292969ZM67.9688-0.292969Q67.9688 3.36914 70.5566 5.93262Q73.1445 8.49609 76.7578 8.49609Q80.3711 8.49609 82.9346 5.93262Q85.498 3.36914 85.498-0.292969Q85.498-3.90625 82.9346-6.49414Q80.3711-9.08203 76.7578-9.08203Q73.1445-9.08203 70.5566-6.49414Q67.9688-3.90625 67.9688-0.292969Z"/>
  </g>
  <g id="Heavy-S" transform="matrix(1 0 0 1 2582.37 696)">
   <path d="M7.8125-65.7845Q7.8125-63.2721 9.64699-61.4376Q11.4815-59.6031 13.945-59.6031L22.7402-59.6031L27.951-24.2462Q28.7468-19.0796 31.6185-16.1861Q34.4902-13.2927 39.6423-13.2927L83.6945-13.2927Q85.8589-13.2927 87.5385-14.711Q89.2181-16.1293 89.2181-18.5783Q89.2181-21.0022 87.5385-22.4018Q85.8589-23.8014 83.6945-23.8014L41.2094-23.8014Q40.7036-23.8014 40.3912-24.1741Q40.0787-24.5468 39.9841-25.0763L39.447-28.7552L84.7816-28.7552Q89.8735-28.7552 92.77-31.617Q95.6665-34.4788 96.4127-39.7087L98.645-55.2658Q98.7312-55.7312 98.7988-56.258Q98.8663-56.7848 98.8663-57.3273Q98.8663-59.9228 97.2195-61.6154Q95.5727-63.308 92.2226-63.308L34.6642-63.308L34.4139-65.0223Q33.9493-68.4937 32.0068-70.2293Q30.0644-71.965 25.8858-71.965L13.945-71.965Q11.4815-71.965 9.64699-70.1305Q7.8125-68.2961 7.8125-65.7845ZM34.7923-0.453949Q34.7923 2.96555 37.2257 5.36194Q39.6591 7.75833 43.0046 7.75833Q46.4363 7.75833 48.827 5.36194Q51.2177 2.96555 51.2177-0.453949Q51.2177-3.83682 48.827-6.25191Q46.4363-8.66699 43.0046-8.66699Q39.6591-8.66699 37.2257-6.25191Q34.7923-3.83682 34.7923-0.453949ZM68.8103-0.453949Q68.8103 2.96555 71.2254 5.36194Q73.6404 7.75833 77.0348 7.75833Q80.4169 7.75833 82.8133 5.36194Q85.2097 2.96555 85.2097-0.453949Q85.2097-3.83682 82.8133-6.25191Q80.4169-8.66699 77.0348-8.66699Q73.6404-8.66699 71.2254-6.25191Q68.8103-3.83682 68.8103-0.453949Z"/>
  </g>
  <g id="Bold-S" transform="matrix(1 0 0 1 2286.02 696)">
   <path d="M7.8125-66.2354Q7.8125-64.1357 9.35059-62.5977Q10.8887-61.0596 12.9395-61.0596L22.998-61.0596L28.4668-23.7305Q29.2236-18.8477 31.9214-16.0767Q34.6191-13.3057 39.5264-13.3057L83.6426-13.3057Q85.498-13.3057 86.9263-14.563Q88.3545-15.8203 88.3545-17.8955Q88.3545-19.9707 86.9263-21.2158Q85.498-22.4609 83.6426-22.4609L40.7715-22.4609Q39.917-22.4609 39.3921-23.0591Q38.8672-23.6572 38.7207-24.5605L38.1836-28.1494L84.4727-28.1494Q89.3066-28.1494 92.0288-30.9082Q94.751-33.667 95.459-38.5742L97.9492-55.6396Q98.0225-56.0791 98.0835-56.5674Q98.1445-57.0557 98.1445-57.4951Q98.1445-59.7168 96.7041-61.145Q95.2637-62.5732 92.4805-62.5732L33.3496-62.5732L32.9834-65.1123Q32.5439-68.2617 30.8594-69.8364Q29.1748-71.4111 25.293-71.4111L12.9395-71.4111Q10.8887-71.4111 9.35059-69.873Q7.8125-68.335 7.8125-66.2354ZM34.9854-0.634766Q34.9854 2.51465 37.2192 4.72412Q39.4531 6.93359 42.5537 6.93359Q45.7275 6.93359 47.9248 4.72412Q50.1221 2.51465 50.1221-0.634766Q50.1221-3.75977 47.9248-5.98145Q45.7275-8.20312 42.5537-8.20312Q39.4531-8.20312 37.2192-5.98145Q34.9854-3.75977 34.9854-0.634766ZM69.751-0.634766Q69.751 2.51465 71.9727 4.72412Q74.1943 6.93359 77.3438 6.93359Q80.4688 6.93359 82.6782 4.72412Q84.8877 2.51465 84.8877-0.634766Q84.8877-3.75977 82.6782-5.98145Q80.4688-8.20312 77.3438-8.20312Q74.1943-8.20312 71.9727-5.98145Q69.751-3.75977 69.751-0.634766Z"/>
  </g>
  <g id="Semibold-S" transform="matrix(1 0 0 1 1989.56 696)">
   <path d="M7.8125-66.5466Q7.8125-64.7308 9.14612-63.3972Q10.4797-62.0636 12.2459-62.0636L23.1758-62.0636L28.8223-23.3749Q29.5525-18.6874 32.1301-16.0011Q34.7076-13.3148 39.4463-13.3148L83.6067-13.3148Q85.2493-13.3148 86.5044-14.4608Q87.7594-15.6067 87.7594-17.4248Q87.7594-19.2596 86.5044-20.3983Q85.2493-21.537 83.6067-21.537L40.4694-21.537Q39.3745-21.537 38.7032-22.2904Q38.0318-23.0438 37.8494-24.205L37.3123-27.7321L84.259-27.7321Q88.9153-27.7321 91.5176-30.4195Q94.12-33.107 94.8013-37.7922L97.4693-55.8975Q97.5334-56.3194 97.5903-56.781Q97.6471-57.2426 97.6471-57.6103Q97.6471-59.5749 96.3486-60.8208Q95.05-62.0667 92.6582-62.0667L32.4432-62.0667L31.9969-65.1749Q31.575-68.1015 30.0682-69.5652Q28.5614-71.0289 24.884-71.0289L12.2459-71.0289Q10.4797-71.0289 9.14612-69.6953Q7.8125-68.3617 7.8125-66.5466ZM35.1189-0.759125Q35.1189 2.20337 37.215 4.28429Q39.3112 6.3652 42.2424 6.3652Q45.2385 6.3652 47.3026 4.28429Q49.3668 2.20337 49.3668-0.759125Q49.3668-3.70636 47.3026-5.79491Q45.2385-7.88345 42.2424-7.88345Q39.3112-7.88345 37.215-5.79491Q35.1189-3.70636 35.1189-0.759125ZM70.3995-0.759125Q70.3995 2.20337 72.488 4.28429Q74.5766 6.3652 77.5574 6.3652Q80.5046 6.3652 82.5851 4.28429Q84.6657 2.20337 84.6657-0.759125Q84.6657-3.70636 82.5851-5.79491Q80.5046-7.88345 77.5574-7.88345Q74.5766-7.88345 72.488-5.79491Q70.3995-3.70636 70.3995-0.759125Z"/>
  </g>
  <g id="Medium-S" transform="matrix(1 0 0 1 1693.04 696)">
   <path d="M7.8125-66.7824Q7.8125-65.1825 8.99124-64.0038Q10.17-62.825 11.721-62.825L23.3109-62.825L29.0916-23.1056Q29.8019-18.5661 32.2887-15.9435Q34.7755-13.3209 39.386-13.3209L83.58-13.3209Q85.0609-13.3209 86.1843-14.3829Q87.3077-15.4449 87.3077-17.0677Q87.3077-18.721 86.1843-19.7784Q85.0609-20.8359 83.58-20.8359L40.2405-20.8359Q38.9641-20.8359 38.1813-21.7075Q37.3985-22.5792 37.1895-23.9357L36.6524-27.4147L84.0973-27.4147Q88.6192-27.4147 91.1304-30.0488Q93.6417-32.6828 94.3024-37.1994L97.1054-56.0928Q97.1634-56.501 97.2164-56.9424Q97.2694-57.3837 97.2694-57.6981Q97.2694-59.4666 96.0789-60.5747Q94.8883-61.6829 92.7933-61.6829L31.7558-61.6829L31.2492-65.2214Q30.8411-67.9802 29.4689-69.3596Q28.0968-70.739 24.5743-70.739L11.721-70.739Q10.17-70.739 8.99124-69.5602Q7.8125-68.3815 7.8125-66.7824ZM35.2196-0.853729Q35.2196 1.96762 37.2112 3.9505Q39.2029 5.93338 42.0067 5.93338Q44.8685 5.93338 46.8311 3.9505Q48.7938 1.96762 48.7938-0.853729Q48.7938-3.66592 46.8311-5.65338Q44.8685-7.64084 42.0067-7.64084Q39.2029-7.64084 37.2112-5.65338Q35.2196-3.66592 35.2196-0.853729ZM70.8916-0.853729Q70.8916 1.96762 72.879 3.9505Q74.8665 5.93338 77.7191 5.93338Q80.5313 5.93338 82.5142 3.9505Q84.4971 1.96762 84.4971-0.853729Q84.4971-3.66592 82.5142-5.65338Q80.5313-7.64084 77.7191-7.64084Q74.8665-7.64084 72.879-5.65338Q70.8916-3.66592 70.8916-0.853729Z"/>
  </g>
  <g id="Regular-S" transform="matrix(1 0 0 1 1396.57 696)">
   <path d="M7.8125-67.0898Q7.8125-65.7715 8.78906-64.7949Q9.76562-63.8184 11.0352-63.8184L23.4863-63.8184L29.4434-22.7539Q30.127-18.4082 32.4951-15.8691Q34.8633-13.3301 39.3066-13.3301L83.5449-13.3301Q84.8145-13.3301 85.7666-14.2822Q86.7188-15.2344 86.7188-16.6016Q86.7188-18.0176 85.7666-18.9697Q84.8145-19.9219 83.5449-19.9219L39.9414-19.9219Q38.4277-19.9219 37.5-20.9473Q36.5723-21.9727 36.3281-23.584L35.791-27.002L83.8867-27.002Q88.2324-27.002 90.625-29.5654Q93.0176-32.1289 93.6523-36.4258L96.6309-56.3477Q96.6797-56.7383 96.7285-57.1533Q96.7773-57.5684 96.7773-57.8125Q96.7773-59.3262 95.7275-60.2539Q94.6777-61.1816 92.9688-61.1816L30.8594-61.1816L30.2734-65.2832Q29.8828-67.8223 28.6865-69.0918Q27.4902-70.3613 24.1699-70.3613L11.0352-70.3613Q9.76562-70.3613 8.78906-69.3848Q7.8125-68.4082 7.8125-67.0898ZM35.3516-0.976562Q35.3516 1.66016 37.207 3.51562Q39.0625 5.37109 41.6992 5.37109Q44.3848 5.37109 46.2158 3.51562Q48.0469 1.66016 48.0469-0.976562Q48.0469-3.61328 46.2158-5.46875Q44.3848-7.32422 41.6992-7.32422Q39.0625-7.32422 37.207-5.46875Q35.3516-3.61328 35.3516-0.976562ZM71.5332-0.976562Q71.5332 1.66016 73.3887 3.51562Q75.2441 5.37109 77.9297 5.37109Q80.5664 5.37109 82.4219 3.51562Q84.2773 1.66016 84.2773-0.976562Q84.2773-3.61328 82.4219-5.46875Q80.5664-7.32422 77.9297-7.32422Q75.2441-7.32422 73.3887-5.46875Q71.5332-3.61328 71.5332-0.976562Z"/>
  </g>
  <g id="Light-S" transform="matrix(1 0 0 1 1100.48 696)">
   <path d="M7.8125-67.3775Q7.8125-66.362 8.55446-65.6048Q9.29642-64.8476 10.2936-64.8476L23.5924-64.8476L29.8676-21.9818Q30.4596-18.1358 32.5554-15.892Q34.6512-13.6482 38.6101-13.6482L83.5602-13.6482Q84.5421-13.6482 85.2749-14.3883Q86.0077-15.1283 86.0077-16.1774Q86.0077-17.276 85.2749-18.0084Q84.5421-18.7408 83.5602-18.7408L39.2303-18.7408Q37.5198-18.7408 36.4861-19.812Q35.4523-20.8832 35.1624-22.7211L34.4589-27.2293L83.4625-27.2293Q87.4756-27.2293 89.5805-29.5128Q91.6855-31.7963 92.2752-35.7147L95.3896-56.2721Q95.4384-56.6017 95.4872-57.0095Q95.536-57.4173 95.536-57.6309Q95.536-58.9478 94.6529-59.7469Q93.7698-60.5461 92.2722-60.5461L29.5731-60.5461L28.775-65.9798Q28.4752-67.9283 27.5288-68.9178Q26.5823-69.9074 23.9883-69.9074L10.2936-69.9074Q9.29642-69.9074 8.55446-69.1502Q7.8125-68.3929 7.8125-67.3775ZM35.9871-1.23367Q35.9871 1.297 37.7594 3.06931Q39.5317 4.84161 42.0776 4.84161Q44.6419 4.84161 46.3974 3.06931Q48.1529 1.297 48.1529-1.23367Q48.1529-3.76434 46.3974-5.54428Q44.6419-7.32422 42.0776-7.32422Q39.5317-7.32422 37.7594-5.54428Q35.9871-3.76434 35.9871-1.23367ZM71.4272-1.23367Q71.4272 1.297 73.2071 3.06931Q74.987 4.84161 77.5513 4.84161Q80.0972 4.84161 81.8695 3.06931Q83.6418 1.297 83.6418-1.23367Q83.6418-3.76434 81.8695-5.54428Q80.0972-7.32422 77.5513-7.32422Q74.987-7.32422 73.2071-5.54428Q71.4272-3.76434 71.4272-1.23367Z"/>
  </g>
  <g id="Thin-S" transform="matrix(1 0 0 1 804.592 696)">
   <path d="M7.8125-67.7574Q7.8125-67.1425 8.24432-66.6756Q8.67615-66.2086 9.31244-66.2086L23.7328-66.2086L30.4276-20.961Q30.9006-17.7757 32.6359-15.9222Q34.3712-14.0686 37.6892-14.0686L83.58-14.0686Q84.182-14.0686 84.6241-14.5283Q85.0662-14.9879 85.0662-15.6174Q85.0662-16.2949 84.6241-16.7374Q84.182-17.1799 83.58-17.1799L38.2889-17.1799Q36.3182-17.1799 35.1444-18.3105Q33.9706-19.4412 33.6212-21.5805L32.6973-27.5291L82.9025-27.5291Q86.4746-27.5291 88.1992-29.4422Q89.9239-31.3553 90.4533-34.7733L93.7485-56.1722Q93.7973-56.4217 93.8461-56.8192Q93.895-57.2166 93.895-57.3906Q93.895-58.4473 93.2316-59.0763Q92.5682-59.7054 91.3513-59.7054L27.8709-59.7054L26.7929-66.9006Q26.6136-68.0687 25.9972-68.6878Q25.3807-69.3069 23.748-69.3069L9.31244-69.3069Q8.67615-69.3069 8.24432-68.84Q7.8125-68.3731 7.8125-67.7574ZM36.8279-1.57394Q36.8279 0.816345 38.4899 2.47841Q40.152 4.14047 42.5781 4.14047Q44.9821 4.14047 46.6377 2.47841Q48.2933 0.816345 48.2933-1.57394Q48.2933-3.965 46.6377-5.64461Q44.9821-7.32422 42.5781-7.32422Q40.152-7.32422 38.4899-5.64461Q36.8279-3.965 36.8279-1.57394ZM71.2868-1.57394Q71.2868 0.816345 72.9668 2.47841Q74.6468 4.14047 77.0508 4.14047Q79.4769 4.14047 81.139 2.47841Q82.8011 0.816345 82.8011-1.57394Q82.8011-3.965 81.139-5.64461Q79.4769-7.32422 77.0508-7.32422Q74.6468-7.32422 72.9668-5.64461Q71.2868-3.965 71.2868-1.57394Z"/>
  </g>
  <g id="Ultralight-S" transform="matrix(1 0 0 1 508.301 696)">
   <path d="M7.8125-67.9527Q7.8125-67.5423 8.08525-67.2241Q8.358-66.906 8.81042-66.906L23.8045-66.906L30.7152-20.4384Q31.1256-17.5911 32.6767-15.9374Q34.2278-14.2838 37.2177-14.2838L83.5907-14.2838Q83.9973-14.2838 84.2911-14.6Q84.5848-14.9162 84.5848-15.3297Q84.5848-15.7928 84.2911-16.0862Q83.9973-16.3795 83.5907-16.3795L37.8075-16.3795Q35.7033-16.3795 34.4578-17.5415Q33.2123-18.7035 32.8316-20.9953L31.7947-27.6833L82.6149-27.6833Q85.9619-27.6833 87.4916-29.4067Q89.0213-31.1302 89.5203-34.2918L92.907-56.1203Q92.9558-56.3293 93.0046-56.7219Q93.0534-57.1144 93.0534-57.2678Q93.0534-58.1909 92.5034-58.7326Q91.9533-59.2743 90.8798-59.2743L26.9997-59.2743L25.7782-67.3721Q25.6599-68.1404 25.2129-68.5696Q24.7658-68.9987 23.6252-68.9987L8.81042-68.9987Q8.358-68.9987 8.08525-68.6806Q7.8125-68.3624 7.8125-67.9527ZM37.2589-1.74866Q37.2589 0.570679 38.8645 2.17628Q40.4701 3.78189 42.8345 3.78189Q45.1569 3.78189 46.7609 2.17628Q48.365 0.570679 48.365-1.74866Q48.365-4.06723 46.7609-5.69572Q45.1569-7.32422 42.8345-7.32422Q40.4701-7.32422 38.8645-5.69572Q37.2589-4.06723 37.2589-1.74866ZM71.2151-1.74866Q71.2151 0.570679 72.8436 2.17628Q74.472 3.78189 76.7944 3.78189Q79.1588 3.78189 80.7644 2.17628Q82.37 0.570679 82.37-1.74866Q82.37-4.06723 80.7644-5.69572Q79.1588-7.32422 76.7944-7.32422Q74.472-7.32422 72.8436-5.69572Q71.2151-4.06723 71.2151-1.74866Z"/>
  </g>
 </g>
</svg>
