<?xml version="1.0" encoding="UTF-8"?>
<!--Generator: Apple Native CoreSVG 149-->
<!DOCTYPE svg
PUBLIC "-//W3C//DTD SVG 1.1//EN"
       "http://www.w3.org/Graphics/SVG/1.1/DTD/svg11.dtd">
<svg version="1.1" xmlns="http://www.w3.org/2000/svg" xmlns:xlink="http://www.w3.org/1999/xlink" width="3300" height="2200">
 <!--glyph: "uni100ED3.medium", point size: 100.0, font version: "17.0d9e1", template writer version: "59"-->
 <g id="Notes">
  <rect height="2200" id="artboard" style="fill:white;opacity:1" width="3300" x="0" y="0"/>
  <line style="fill:none;stroke:black;opacity:1;stroke-width:0.5;" x1="263" x2="3036" y1="292" y2="292"/>
  <text style="stroke:none;fill:black;font-family:sans-serif;font-size:13;font-weight:bold;" transform="matrix(1 0 0 1 263 322)">Weight/Scale Variations</text>
  <text style="stroke:none;fill:black;font-family:sans-serif;font-size:13;text-anchor:middle;" transform="matrix(1 0 0 1 559.711 322)">Ultralight</text>
  <text style="stroke:none;fill:black;font-family:sans-serif;font-size:13;text-anchor:middle;" transform="matrix(1 0 0 1 856.422 322)">Thin</text>
  <text style="stroke:none;fill:black;font-family:sans-serif;font-size:13;text-anchor:middle;" transform="matrix(1 0 0 1 1153.13 322)">Light</text>
  <text style="stroke:none;fill:black;font-family:sans-serif;font-size:13;text-anchor:middle;" transform="matrix(1 0 0 1 1449.84 322)">Regular</text>
  <text style="stroke:none;fill:black;font-family:sans-serif;font-size:13;text-anchor:middle;" transform="matrix(1 0 0 1 1746.56 322)">Medium</text>
  <text style="stroke:none;fill:black;font-family:sans-serif;font-size:13;text-anchor:middle;" transform="matrix(1 0 0 1 2043.27 322)">Semibold</text>
  <text style="stroke:none;fill:black;font-family:sans-serif;font-size:13;text-anchor:middle;" transform="matrix(1 0 0 1 2339.98 322)">Bold</text>
  <text style="stroke:none;fill:black;font-family:sans-serif;font-size:13;text-anchor:middle;" transform="matrix(1 0 0 1 2636.69 322)">Heavy</text>
  <text style="stroke:none;fill:black;font-family:sans-serif;font-size:13;text-anchor:middle;" transform="matrix(1 0 0 1 2933.4 322)">Black</text>
  <line style="fill:none;stroke:black;opacity:1;stroke-width:0.5;" x1="263" x2="3036" y1="1903" y2="1903"/>
  <g transform="matrix(1 0 0 1 263 1933)">
   <path d="M9.24805 0.830078Q10.8691 0.830078 12.2949 0.214844Q13.7207-0.400391 14.8096-1.49414Q15.8984-2.58789 16.5186-4.01367Q17.1387-5.43945 17.1387-7.05078Q17.1387-8.66211 16.5186-10.0879Q15.8984-11.5137 14.8047-12.6074Q13.7109-13.7012 12.2852-14.3164Q10.8594-14.9316 9.23828-14.9316Q7.62695-14.9316 6.20117-14.3164Q4.77539-13.7012 3.69141-12.6074Q2.60742-11.5137 1.9873-10.0879Q1.36719-8.66211 1.36719-7.05078Q1.36719-5.43945 1.9873-4.01367Q2.60742-2.58789 3.69629-1.49414Q4.78516-0.400391 6.21094 0.214844Q7.63672 0.830078 9.24805 0.830078ZM9.24805-0.654297Q7.91992-0.654297 6.7627-1.14746Q5.60547-1.64062 4.73145-2.51953Q3.85742-3.39844 3.36426-4.56055Q2.87109-5.72266 2.87109-7.05078Q2.87109-8.37891 3.35938-9.54102Q3.84766-10.7031 4.72168-11.582Q5.5957-12.4609 6.75293-12.9541Q7.91016-13.4473 9.23828-13.4473Q10.5762-13.4473 11.7334-12.9541Q12.8906-12.4609 13.7695-11.582Q14.6484-10.7031 15.1465-9.54102Q15.6445-8.37891 15.6445-7.05078Q15.6445-5.72266 15.1514-4.56055Q14.6582-3.39844 13.7842-2.51953Q12.9102-1.64062 11.748-1.14746Q10.5859-0.654297 9.24805-0.654297ZM5.83984-7.04102Q5.83984-6.71875 6.04492-6.51855Q6.25-6.31836 6.5918-6.31836L8.50586-6.31836L8.50586-4.39453Q8.50586-4.0625 8.70605-3.85742Q8.90625-3.65234 9.22852-3.65234Q9.56055-3.65234 9.76562-3.85742Q9.9707-4.0625 9.9707-4.39453L9.9707-6.31836L11.8945-6.31836Q12.2266-6.31836 12.4316-6.51855Q12.6367-6.71875 12.6367-7.04102Q12.6367-7.37305 12.4316-7.57812Q12.2266-7.7832 11.8945-7.7832L9.9707-7.7832L9.9707-9.69727Q9.9707-10.0391 9.76562-10.2441Q9.56055-10.4492 9.22852-10.4492Q8.90625-10.4492 8.70605-10.2441Q8.50586-10.0391 8.50586-9.69727L8.50586-7.7832L6.5918-7.7832Q6.25-7.7832 6.04492-7.57812Q5.83984-7.37305 5.83984-7.04102Z"/>
  </g>
  <g transform="matrix(1 0 0 1 281.867 1933)">
   <path d="M11.709 2.91016Q13.75 2.91016 15.5518 2.12891Q17.3535 1.34766 18.7305-0.0292969Q20.1074-1.40625 20.8887-3.20801Q21.6699-5.00977 21.6699-7.05078Q21.6699-9.0918 20.8887-10.8936Q20.1074-12.6953 18.7305-14.0723Q17.3535-15.4492 15.5469-16.2305Q13.7402-17.0117 11.6992-17.0117Q9.6582-17.0117 7.85645-16.2305Q6.05469-15.4492 4.68262-14.0723Q3.31055-12.6953 2.5293-10.8936Q1.74805-9.0918 1.74805-7.05078Q1.74805-5.00977 2.5293-3.20801Q3.31055-1.40625 4.6875-0.0292969Q6.06445 1.34766 7.86621 2.12891Q9.66797 2.91016 11.709 2.91016ZM11.709 1.25Q9.98047 1.25 8.47656 0.605469Q6.97266-0.0390625 5.83496-1.17676Q4.69727-2.31445 4.05762-3.81836Q3.41797-5.32227 3.41797-7.05078Q3.41797-8.7793 4.05762-10.2832Q4.69727-11.7871 5.83008-12.9297Q6.96289-14.0723 8.4668-14.7119Q9.9707-15.3516 11.6992-15.3516Q13.4277-15.3516 14.9316-14.7119Q16.4355-14.0723 17.5781-12.9297Q18.7207-11.7871 19.3652-10.2832Q20.0098-8.7793 20.0098-7.05078Q20.0098-5.32227 19.3701-3.81836Q18.7305-2.31445 17.5928-1.17676Q16.4551-0.0390625 14.9463 0.605469Q13.4375 1.25 11.709 1.25ZM7.39258-7.04102Q7.39258-6.68945 7.62695-6.46484Q7.86133-6.24023 8.23242-6.24023L10.8789-6.24023L10.8789-3.57422Q10.8789-3.21289 11.1035-2.9834Q11.3281-2.75391 11.6797-2.75391Q12.0508-2.75391 12.2852-2.9834Q12.5195-3.21289 12.5195-3.57422L12.5195-6.24023L15.1758-6.24023Q15.5371-6.24023 15.7715-6.46484Q16.0059-6.68945 16.0059-7.04102Q16.0059-7.41211 15.7715-7.6416Q15.5371-7.87109 15.1758-7.87109L12.5195-7.87109L12.5195-10.5176Q12.5195-10.8984 12.2852-11.1279Q12.0508-11.3574 11.6797-11.3574Q11.3281-11.3574 11.1035-11.1279Q10.8789-10.8984 10.8789-10.5176L10.8789-7.87109L8.23242-7.87109Q7.85156-7.87109 7.62207-7.6416Q7.39258-7.41211 7.39258-7.04102Z"/>
  </g>
  <g transform="matrix(1 0 0 1 305.646 1933)">
   <path d="M14.9707 5.66406Q17.0605 5.66406 18.96 5.01465Q20.8594 4.36523 22.4512 3.19336Q24.043 2.02148 25.2197 0.429688Q26.3965-1.16211 27.0459-3.06641Q27.6953-4.9707 27.6953-7.05078Q27.6953-9.14062 27.0459-11.04Q26.3965-12.9395 25.2197-14.5312Q24.043-16.123 22.4512-17.2998Q20.8594-18.4766 18.9551-19.126Q17.0508-19.7754 14.9609-19.7754Q12.8711-19.7754 10.9717-19.126Q9.07227-18.4766 7.48535-17.2998Q5.89844-16.123 4.72168-14.5312Q3.54492-12.9395 2.90039-11.04Q2.25586-9.14062 2.25586-7.05078Q2.25586-4.9707 2.90527-3.06641Q3.55469-1.16211 4.72656 0.429688Q5.89844 2.02148 7.49023 3.19336Q9.08203 4.36523 10.9814 5.01465Q12.8809 5.66406 14.9707 5.66406ZM14.9707 3.84766Q13.1641 3.84766 11.5283 3.2959Q9.89258 2.74414 8.53516 1.74805Q7.17773 0.751953 6.17676-0.610352Q5.17578-1.97266 4.62891-3.6084Q4.08203-5.24414 4.08203-7.05078Q4.08203-8.86719 4.62891-10.5029Q5.17578-12.1387 6.17188-13.501Q7.16797-14.8633 8.52539-15.8594Q9.88281-16.8555 11.5186-17.4023Q13.1543-17.9492 14.9609-17.9492Q16.7773-17.9492 18.4131-17.4023Q20.0488-16.8555 21.4111-15.8594Q22.7734-14.8633 23.7695-13.501Q24.7656-12.1387 25.3174-10.5029Q25.8691-8.86719 25.8691-7.05078Q25.8789-5.24414 25.332-3.6084Q24.7852-1.97266 23.7842-0.610352Q22.7832 0.751953 21.4209 1.74805Q20.0586 2.74414 18.4229 3.2959Q16.7871 3.84766 14.9707 3.84766ZM9.45312-7.04102Q9.45312-6.66016 9.71191-6.41113Q9.9707-6.16211 10.3711-6.16211L14.0625-6.16211L14.0625-2.46094Q14.0625-2.06055 14.3115-1.80664Q14.5605-1.55273 14.9414-1.55273Q15.3516-1.55273 15.6055-1.80664Q15.8594-2.06055 15.8594-2.46094L15.8594-6.16211L19.5605-6.16211Q19.9609-6.16211 20.2148-6.41113Q20.4688-6.66016 20.4688-7.04102Q20.4688-7.45117 20.2148-7.70508Q19.9609-7.95898 19.5605-7.95898L15.8594-7.95898L15.8594-11.6504Q15.8594-12.0605 15.6055-12.3145Q15.3516-12.5684 14.9414-12.5684Q14.5605-12.5684 14.3115-12.3096Q14.0625-12.0508 14.0625-11.6504L14.0625-7.95898L10.3711-7.95898Q9.96094-7.95898 9.70703-7.70508Q9.45312-7.45117 9.45312-7.04102Z"/>
  </g>
  <text style="stroke:none;fill:black;font-family:sans-serif;font-size:13;font-weight:bold;" transform="matrix(1 0 0 1 263 1953)">Design Variations</text>
  <text style="stroke:none;fill:black;font-family:sans-serif;font-size:13;" transform="matrix(1 0 0 1 263 1971)">Symbols are supported in up to nine weights and three scales.</text>
  <text style="stroke:none;fill:black;font-family:sans-serif;font-size:13;" transform="matrix(1 0 0 1 263 1989)">For optimal layout with text and other symbols, vertically align</text>
  <text style="stroke:none;fill:black;font-family:sans-serif;font-size:13;" transform="matrix(1 0 0 1 263 2007)">symbols with the adjacent text.</text>
  <line style="fill:none;stroke:#00AEEF;stroke-width:0.5;opacity:1.0;" x1="776" x2="776" y1="1919" y2="1933"/>
  <g transform="matrix(1 0 0 1 776 1933)">
   <path d="M3.31055 0.15625Q3.70117 0.15625 3.91602-0.00976562Q4.13086-0.175781 4.26758-0.585938L5.52734-4.0332L11.2891-4.0332L12.5488-0.585938Q12.6855-0.175781 12.9004-0.00976562Q13.1152 0.15625 13.4961 0.15625Q13.8867 0.15625 14.1162-0.0585938Q14.3457-0.273438 14.3457-0.644531Q14.3457-0.869141 14.2383-1.17188L9.6582-13.3691Q9.48242-13.8184 9.17969-14.043Q8.87695-14.2676 8.4082-14.2676Q7.5-14.2676 7.17773-13.3789L2.59766-1.16211Q2.49023-0.859375 2.49023-0.634766Q2.49023-0.263672 2.70996-0.0537109Q2.92969 0.15625 3.31055 0.15625ZM6.00586-5.51758L8.37891-12.0898L8.42773-12.0898L10.8008-5.51758Z"/>
  </g>
  <line style="fill:none;stroke:#00AEEF;stroke-width:0.5;opacity:1.0;" x1="793.197" x2="793.197" y1="1919" y2="1933"/>
  <text style="stroke:none;fill:black;font-family:sans-serif;font-size:13;font-weight:bold;" transform="matrix(1 0 0 1 776 1953)">Margins</text>
  <text style="stroke:none;fill:black;font-family:sans-serif;font-size:13;" transform="matrix(1 0 0 1 776 1971)">Leading and trailing margins on the left and right side of each symbol</text>
  <text style="stroke:none;fill:black;font-family:sans-serif;font-size:13;" transform="matrix(1 0 0 1 776 1989)">can be adjusted by modifying the x-location of the margin guidelines.</text>
  <text style="stroke:none;fill:black;font-family:sans-serif;font-size:13;" transform="matrix(1 0 0 1 776 2007)">Modifications are automatically applied proportionally to all</text>
  <text style="stroke:none;fill:black;font-family:sans-serif;font-size:13;" transform="matrix(1 0 0 1 776 2025)">scales and weights.</text>
  <g transform="matrix(1 0 0 1 1289 1933)">
   <path d="M2.8418 1.86523L4.54102 3.57422Q5.18555 4.22852 5.90332 4.17969Q6.62109 4.13086 7.31445 3.35938L18.0078-8.42773L17.041-9.4043L6.42578 2.27539Q6.16211 2.57812 5.89355 2.61719Q5.625 2.65625 5.27344 2.30469L4.10156 1.14258Q3.75 0.791016 3.79395 0.522461Q3.83789 0.253906 4.14062-0.0195312L15.6152-10.8203L14.6387-11.7871L3.04688-0.898438Q2.30469-0.214844 2.25098 0.498047Q2.19727 1.21094 2.8418 1.86523ZM9.25781-16.3281Q8.94531-16.0254 8.90625-15.6348Q8.86719-15.2441 9.04297-14.9512Q9.21875-14.6777 9.55566-14.541Q9.89258-14.4043 10.3809-14.5215Q11.4746-14.7754 12.5977-14.7314Q13.7207-14.6875 14.7949-13.9844L14.209-12.5293Q13.9551-11.9043 14.0674-11.4404Q14.1797-10.9766 14.5801-10.5664L16.875-8.25195Q17.2363-7.88086 17.5781-7.82227Q17.9199-7.76367 18.3398-7.8418L19.4043-8.03711L20.0684-7.36328L20.0293-6.80664Q20-6.43555 20.1221-6.12305Q20.2441-5.81055 20.6055-5.44922L21.3672-4.70703Q21.7285-4.3457 22.1533-4.33105Q22.5781-4.31641 22.9297-4.66797L25.8398-7.58789Q26.1914-7.93945 26.1816-8.35449Q26.1719-8.76953 25.8105-9.13086L25.0391-9.89258Q24.6875-10.2539 24.3799-10.3857Q24.0723-10.5176 23.7109-10.4883L23.1348-10.4395L22.4902-11.0742L22.7344-12.1973Q22.832-12.6172 22.6953-12.9834Q22.5586-13.3496 22.1191-13.7891L19.9219-15.9766Q18.6719-17.2168 17.2607-17.8369Q15.8496-18.457 14.4189-18.4814Q12.9883-18.5059 11.665-17.959Q10.3418-17.4121 9.25781-16.3281ZM10.752-15.957Q11.6602-16.6211 12.7002-16.9043Q13.7402-17.1875 14.8047-17.085Q15.8691-16.9824 16.8701-16.5137Q17.8711-16.0449 18.7012-15.2051L21.1328-12.793Q21.3086-12.6172 21.3525-12.4512Q21.3965-12.2852 21.3379-12.0312L21.0156-10.5469L22.5195-9.0625L23.5059-9.12109Q23.6914-9.13086 23.7891-9.09668Q23.8867-9.0625 24.0332-8.91602L24.6094-8.33984L22.168-5.89844L21.5918-6.47461Q21.4453-6.62109 21.4062-6.71875Q21.3672-6.81641 21.377-7.01172L21.4453-7.98828L19.9512-9.47266L18.4277-9.21875Q18.1836-9.16992 18.042-9.2041Q17.9004-9.23828 17.7148-9.41406L15.7129-11.416Q15.5176-11.5918 15.4932-11.7529Q15.4688-11.9141 15.5859-12.1875L16.4648-14.2773Q15.293-15.3711 13.8281-15.791Q12.3633-16.2109 10.8398-15.7617Q10.7227-15.7324 10.6885-15.8057Q10.6543-15.8789 10.752-15.957Z"/>
  </g>
  <text style="stroke:none;fill:black;font-family:sans-serif;font-size:13;font-weight:bold;" transform="matrix(1 0 0 1 1289 1953)">Exporting</text>
  <text style="stroke:none;fill:black;font-family:sans-serif;font-size:13;" transform="matrix(1 0 0 1 1289 1971)">Symbols should be outlined when exporting to ensure the</text>
  <text style="stroke:none;fill:black;font-family:sans-serif;font-size:13;" transform="matrix(1 0 0 1 1289 1989)">design is preserved when submitting to Xcode.</text>
  <text id="template-version" style="stroke:none;fill:black;font-family:sans-serif;font-size:13;text-anchor:end;" transform="matrix(1 0 0 1 3036 1933)">Template v.3.0</text>
  <text style="stroke:none;fill:black;font-family:sans-serif;font-size:13;text-anchor:end;" transform="matrix(1 0 0 1 3036 1951)">Requires Xcode 13 or greater</text>
  <text id="descriptive-name" style="stroke:none;fill:black;font-family:sans-serif;font-size:13;text-anchor:end;" transform="matrix(1 0 0 1 3036 1969)">Generated from menucard.fill</text>
  <text style="stroke:none;fill:black;font-family:sans-serif;font-size:13;text-anchor:end;" transform="matrix(1 0 0 1 3036 1987)">Typeset at 100 points</text>
  <text style="stroke:none;fill:black;font-family:sans-serif;font-size:13;" transform="matrix(1 0 0 1 263 726)">Small</text>
  <text style="stroke:none;fill:black;font-family:sans-serif;font-size:13;" transform="matrix(1 0 0 1 263 1156)">Medium</text>
  <text style="stroke:none;fill:black;font-family:sans-serif;font-size:13;" transform="matrix(1 0 0 1 263 1586)">Large</text>
 </g>
 <g id="Guides">
  <g id="H-reference" style="fill:#27AAE1;stroke:none;" transform="matrix(1 0 0 1 339 696)">
   <path d="M0.993347 0L3.6377 0L29.3282-67.1326L30.0301-67.1326L30.0301-70.459L28.1227-70.459ZM11.6882-24.4797L46.9818-24.4797L46.2311-26.7288L12.4382-26.7288ZM55.1193 0L57.7637 0L30.6381-70.459L29.4327-70.459L29.4327-67.1326Z"/>
  </g>
  <line id="Baseline-S" style="fill:none;stroke:#27AAE1;opacity:1;stroke-width:0.5;" x1="263" x2="3036" y1="696" y2="696"/>
  <line id="Capline-S" style="fill:none;stroke:#27AAE1;opacity:1;stroke-width:0.5;" x1="263" x2="3036" y1="625.541" y2="625.541"/>
  <g id="H-reference" style="fill:#27AAE1;stroke:none;" transform="matrix(1 0 0 1 339 1126)">
   <path d="M0.993347 0L3.6377 0L29.3282-67.1326L30.0301-67.1326L30.0301-70.459L28.1227-70.459ZM11.6882-24.4797L46.9818-24.4797L46.2311-26.7288L12.4382-26.7288ZM55.1193 0L57.7637 0L30.6381-70.459L29.4327-70.459L29.4327-67.1326Z"/>
  </g>
  <line id="Baseline-M" style="fill:none;stroke:#27AAE1;opacity:1;stroke-width:0.5;" x1="263" x2="3036" y1="1126" y2="1126"/>
  <line id="Capline-M" style="fill:none;stroke:#27AAE1;opacity:1;stroke-width:0.5;" x1="263" x2="3036" y1="1055.54" y2="1055.54"/>
  <g id="H-reference" style="fill:#27AAE1;stroke:none;" transform="matrix(1 0 0 1 339 1556)">
   <path d="M0.993347 0L3.6377 0L29.3282-67.1326L30.0301-67.1326L30.0301-70.459L28.1227-70.459ZM11.6882-24.4797L46.9818-24.4797L46.2311-26.7288L12.4382-26.7288ZM55.1193 0L57.7637 0L30.6381-70.459L29.4327-70.459L29.4327-67.1326Z"/>
  </g>
  <line id="Baseline-L" style="fill:none;stroke:#27AAE1;opacity:1;stroke-width:0.5;" x1="263" x2="3036" y1="1556" y2="1556"/>
  <line id="Capline-L" style="fill:none;stroke:#27AAE1;opacity:1;stroke-width:0.5;" x1="263" x2="3036" y1="1485.54" y2="1485.54"/>
  <line id="left-margin-Regular-M" style="fill:none;stroke:#00AEEF;stroke-width:0.5;opacity:1.0;" x1="1398.38" x2="1398.38" y1="1030.79" y2="1150.12"/>
  <line id="right-margin-Regular-M" style="fill:none;stroke:#00AEEF;stroke-width:0.5;opacity:1.0;" x1="1501.31" x2="1501.31" y1="1030.79" y2="1150.12"/>
 </g>
 <g id="Symbols">
  <g id="Black-L" transform="matrix(1 0 0 1 2860.06 1556)">
   <path d="M32.9102 29.4922L104.199 42.0898Q112.207 43.5059 118.164 40.9912Q124.121 38.4766 127.368 32.5684Q130.615 26.6602 130.615 17.9688L130.615-58.0078Q130.615-66.0645 128.149-71.3379Q125.684-76.6113 120.386-79.6875Q115.088-82.7637 106.641-84.2285L37.7441-96.3867Q31.4941-97.5098 26.5869-95.4834Q21.6797-93.457 18.8721-88.9648Q16.0645-84.4727 16.0645-78.125L16.0645 9.96094Q16.0645 17.9199 20.459 22.998Q24.8535 28.0762 32.9102 29.4922ZM49.5117-49.6094Q46.9727-50 45.5566-51.8066Q44.1406-53.6133 44.1406-56.2988Q44.1406-59.4238 46.4355-61.2793Q48.7305-63.1348 52.0996-62.5488L95.8984-54.7852Q101.318-53.7109 101.318-48.1445Q101.318-44.9707 99.1211-43.0664Q96.9238-41.1621 93.6523-41.748ZM49.5117-21.9727Q47.1191-22.4121 45.6299-24.1943Q44.1406-25.9766 44.1406-28.5645Q44.1406-31.7383 46.4355-33.5693Q48.7305-35.4004 52.0996-34.8145L95.8984-27.0508Q101.318-26.0254 101.318-20.5566Q101.318-17.334 99.1211-15.4053Q96.9238-13.4766 93.6523-14.0137ZM58.8867-102.441L108.35-93.75Q118.652-91.8945 125.586-87.793L125.537-89.4043Q125-96.9238 120.996-101.782Q116.992-106.641 110.181-108.472Q103.369-110.303 94.3848-108.691Z"/>
  </g>
  <g id="Heavy-L" transform="matrix(1 0 0 1 2565.06 1556)">
   <path d="M31.6193 28.0289L102.378 40.5342Q109.937 41.8694 115.525 39.5275Q121.113 37.1857 124.153 31.6521Q127.193 26.1185 127.193 17.9344L127.193-58.1924Q127.193-65.7188 124.836-70.612Q122.48-75.5051 117.487-78.3451Q112.495-81.1852 104.636-82.5577L36.1305-94.6465Q30.2841-95.6886 25.7515-93.8583Q21.2189-92.028 18.6417-87.9047Q16.0645-83.7814 16.0645-77.8946L16.0645 9.99527Q16.0645 17.4011 20.0901 22.0589Q24.1158 26.7166 31.6193 28.0289ZM46.8842-50.8774Q44.6098-51.2329 43.338-52.8439Q42.0662-54.4548 42.0662-56.8634Q42.0662-59.6542 44.1132-61.314Q46.1601-62.9738 49.1951-62.4451L94.677-54.4167Q99.5552-53.4462 99.5552-48.4673Q99.5552-45.639 97.5998-43.9308Q95.6444-42.2226 92.6727-42.7505ZM46.8842-23.8861Q44.722-24.279 43.3941-25.8713Q42.0662-27.4635 42.0662-29.7974Q42.0662-32.6141 44.1132-34.2552Q46.1601-35.8963 49.1951-35.3676L94.677-27.3392Q99.5552-26.4175 99.5552-21.5134Q99.5552-18.6363 97.5998-16.9094Q95.6444-15.1825 92.6727-15.6731ZM55.3833-100.586L106.264-91.6412Q115.887-89.9124 122.394-86.1221L122.356-88.736Q121.946-95.9671 118.253-100.624Q114.561-105.281 108.164-107.031Q101.767-108.781 93.2205-107.251Z"/>
  </g>
  <g id="Bold-L" transform="matrix(1 0 0 1 2270.26 1556)">
   <path d="M30.1758 26.3916L100.342 38.7939Q107.397 40.0391 112.573 37.8906Q117.749 35.7422 120.557 30.6274Q123.364 25.5127 123.364 17.8955L123.364-58.3984Q123.364-65.332 121.13-69.7998Q118.896-74.2676 114.246-76.8433Q109.595-79.4189 102.393-80.6885L34.3262-92.7002Q28.9307-93.6523 24.8169-92.041Q20.7031-90.4297 18.3838-86.7188Q16.0645-83.0078 16.0645-77.6367L16.0645 10.0342Q16.0645 16.8213 19.6777 21.0083Q23.291 25.1953 30.1758 26.3916ZM43.9453-52.2949Q41.9678-52.6123 40.8569-54.0039Q39.7461-55.3955 39.7461-57.4951Q39.7461-59.9121 41.5161-61.3525Q43.2861-62.793 45.9473-62.3291L93.3105-54.0039Q97.583-53.1494 97.583-48.8281Q97.583-46.3867 95.8984-44.8975Q94.2139-43.4082 91.5771-43.8721ZM43.9453-26.0254Q42.041-26.3672 40.8936-27.7466Q39.7461-29.126 39.7461-31.1768Q39.7461-33.5938 41.5161-35.022Q43.2861-36.4502 45.9473-35.9863L93.3105-27.6611Q97.583-26.8555 97.583-22.583Q97.583-20.0928 95.8984-18.5913Q94.2139-17.0898 91.5771-17.5293ZM51.4648-98.5107L103.931-89.2822Q112.793-87.6953 118.823-84.2529L118.799-87.9883Q118.53-94.8975 115.186-99.3286Q111.841-103.76 105.908-105.42Q99.9756-107.08 91.9189-105.64Z"/>
  </g>
  <g id="Semibold-L" transform="matrix(1 0 0 1 1974.87 1556)">
   <path d="M29.1801 25.2632L98.938 37.5938Q105.647 38.7772 110.538 36.7619Q115.43 34.7466 118.077 29.921Q120.724 25.0954 120.724 17.8688L120.724-58.5403Q120.724-65.0658 118.575-69.2402Q116.426-73.4146 112.011-75.808Q107.595-78.2013 100.846-79.3999L33.0818-91.3582Q27.9976-92.2485 24.1726-90.7883Q20.3476-89.328 18.206-85.9013Q16.0645-82.4745 16.0645-77.459L16.0645 10.0609Q16.0645 16.4215 19.3935 20.2839Q22.7226 24.1463 29.1801 25.2632ZM41.9189-53.2722Q40.1459-53.5629 39.146-54.8035Q38.1462-56.044 38.1462-57.9308Q38.1462-60.0899 39.7251-61.3792Q41.304-62.6686 43.708-62.249L92.3683-53.7193Q96.2234-52.9449 96.2234-49.0768Q96.2234-46.9025 94.7254-45.5643Q93.2274-44.2261 90.8218-44.6449ZM41.9189-27.5009Q40.1924-27.8069 39.1693-29.0398Q38.1462-30.2727 38.1462-32.1274Q38.1462-34.269 39.7251-35.5507Q41.304-36.8324 43.708-36.4128L92.3683-27.8831Q96.2234-27.1576 96.2234-23.3208Q96.2234-21.0968 94.7254-19.751Q93.2274-18.4052 90.8218-18.8087ZM48.7633-97.0802L102.322-87.6556Q110.66-86.1664 116.361-82.9643L116.346-87.4725Q116.175-94.1597 113.07-98.4352Q109.966-102.711 104.353-104.309Q98.7404-105.907 91.0217-104.529Z"/>
  </g>
  <g id="Medium-L" transform="matrix(1 0 0 1 1679.16 1556)">
   <path d="M28.4256 24.4072L97.8729 36.6844Q104.319 37.8204 108.995 35.9062Q113.671 33.992 116.197 29.385Q118.723 24.778 118.723 17.849L118.723-58.6487Q118.723-64.8636 116.638-68.8156Q114.552-72.7676 110.316-75.0229Q106.079-77.2781 99.6735-78.4225L32.1388-90.3404Q27.2903-91.1835 23.6843-89.8376Q20.0783-88.4918 18.0714-85.281Q16.0645-82.0702 16.0645-77.3239L16.0645 10.0807Q16.0645 16.1179 19.1776 19.7346Q22.2908 23.3513 28.4256 24.4072ZM40.3824-54.0138Q38.765-54.2839 37.8494-55.41Q36.9339-56.5361 36.9339-58.2611Q36.9339-60.2249 38.3678-61.3995Q39.8018-62.574 42.0097-62.1887L91.6542-53.5042Q95.192-52.7901 95.192-49.2653Q95.192-47.2931 93.8358-46.0693Q92.4797-44.8456 90.2489-45.2316ZM40.3824-28.6194Q38.7909-28.8986 37.8624-30.0201Q36.9339-31.1417 36.9339-32.8484Q36.9339-34.7816 38.3678-35.952Q39.8018-37.1223 42.0097-36.7363L91.6542-28.0518Q95.192-27.3865 95.192-23.88Q95.192-21.8582 93.8358-20.6303Q92.4797-19.4023 90.2489-19.7792ZM46.7148-95.9953L101.102-86.4227Q109.043-85.0075 114.495-81.987L114.486-87.0819Q114.39-93.6005 111.467-97.7581Q108.544-101.916 103.174-103.467Q97.8035-105.018 90.3404-103.687Z"/>
  </g>
  <g id="Regular-L" transform="matrix(1 0 0 1 1383.76 1556)">
   <path d="M27.4414 23.291L96.4844 35.498Q102.588 36.5723 106.982 34.79Q111.377 33.0078 113.745 28.6865Q116.113 24.3652 116.113 17.8223L116.113-58.7891Q116.113-64.5996 114.111-68.2617Q112.109-71.9238 108.105-73.999Q104.102-76.0742 98.1445-77.1484L30.9082-89.0137Q26.3672-89.7949 23.0469-88.5986Q19.7266-87.4023 17.8955-84.4727Q16.0645-81.543 16.0645-77.1484L16.0645 10.1074Q16.0645 15.7227 18.8965 19.0186Q21.7285 22.3145 27.4414 23.291ZM38.3789-54.9805Q36.9629-55.2246 36.1572-56.2012Q35.3516-57.1777 35.3516-58.6914Q35.3516-60.4004 36.5967-61.4258Q37.8418-62.4512 39.7949-62.1094L90.7227-53.2227Q93.8477-52.5879 93.8477-49.5117Q93.8477-47.8027 92.6758-46.7285Q91.5039-45.6543 89.502-45.9961ZM38.3789-30.0781Q36.9629-30.3223 36.1572-31.2988Q35.3516-32.2754 35.3516-33.7891Q35.3516-35.4492 36.5967-36.4746Q37.8418-37.5 39.7949-37.1582L90.7227-28.2715Q93.8477-27.6855 93.8477-24.6094Q93.8477-22.8516 92.6758-21.7773Q91.5039-20.7031 89.502-21.0449ZM44.043-94.5801L99.5117-84.8145Q106.934-83.4961 112.061-80.7129L112.061-86.5723Q112.061-92.8711 109.375-96.875Q106.689-100.879 101.636-102.368Q96.582-103.857 89.4531-102.588Z"/>
  </g>
  <g id="Light-L" transform="matrix(1 0 0 1 1087.47 1556)">
   <path d="M26.7601 22.7463L95.9694 34.9533Q101.907 36.0123 106.233 34.3132Q110.56 32.6141 112.913 28.4668Q115.266 24.3195 115.266 18.0344L115.266-59.3185Q115.266-64.6904 113.377-68.1934Q111.489-71.6965 107.682-73.7568Q103.874-75.8171 98.1293-76.8608L30.439-88.7863Q26.004-89.5676 22.7898-88.485Q19.5755-87.4023 17.82-84.6542Q16.0645-81.9061 16.0645-77.7237L16.0645 10.244Q16.0645 15.5861 18.6996 18.7004Q21.3348 21.8147 26.7601 22.7463ZM37.1223-55.9944Q35.9489-56.1935 35.2947-56.958Q34.6405-57.7225 34.6405-58.9188Q34.6405-60.2493 35.6052-61.0855Q36.57-61.9217 38.1302-61.6402L90.6166-52.4658Q93.1816-51.9676 93.1816-49.5422Q93.1816-48.2269 92.252-47.3568Q91.3223-46.4867 89.7141-46.7682ZM37.1223-31.6826Q35.9489-31.8817 35.2947-32.6462Q34.6405-33.4106 34.6405-34.6214Q34.6405-35.9032 35.6052-36.7393Q36.57-37.5755 38.1302-37.2948L90.6166-28.1204Q93.1816-27.655 93.1816-25.2296Q93.1816-23.8808 92.252-23.011Q91.3223-22.1413 89.7141-22.422ZM42.514-93.4143L99.2844-83.4221Q105.965-82.2395 110.622-79.744L110.622-86.9659Q110.622-92.7803 108.126-96.4813Q105.63-100.182 100.924-101.558Q96.2189-102.934 89.5897-101.74Z"/>
  </g>
  <g id="Thin-L" transform="matrix(1 0 0 1 791.318 1556)">
   <path d="M25.8591 22.0253L95.2888 34.2323Q101.006 35.2715 105.242 33.6826Q109.479 32.0938 111.812 28.1769Q114.145 24.2599 114.145 18.3144L114.145-60.0197Q114.145-64.8102 112.407-68.1034Q110.668-71.3966 107.121-73.4367Q103.574-75.4768 98.1094-76.4809L29.8187-88.4865Q25.5234-89.2677 22.4491-88.335Q19.3748-87.4023 17.7197-84.8946Q16.0645-82.3868 16.0645-78.4843L16.0645 10.424Q16.0645 15.406 18.4395 18.28Q20.8145 21.154 25.8591 22.0253ZM35.4614-57.3357Q34.6077-57.4745 34.1534-57.959Q33.699-58.4435 33.699-59.2186Q33.699-60.0487 34.2937-60.6346Q34.8885-61.2206 35.9276-61.0199L90.4762-51.4648Q92.3012-51.1467 92.3012-49.5819Q92.3012-48.7869 91.6916-48.1873Q91.082-47.5876 89.994-47.789ZM35.4614-33.8043Q34.6077-33.9432 34.1534-34.4276Q33.699-34.9121 33.699-35.7224Q33.699-36.5036 34.2937-37.0895Q34.8885-37.6755 35.9276-37.4748L90.4762-27.9198Q92.3012-27.6154 92.3012-26.0506Q92.3012-25.2419 91.6916-24.6422Q91.082-24.0425 89.994-24.2439ZM40.4922-91.8732L98.9845-81.5804Q104.684-80.5786 108.721-78.463L108.721-87.4863Q108.721-92.6605 106.475-95.961Q104.229-99.2615 99.9836-100.487Q95.7382-101.713 89.7697-100.62Z"/>
  </g>
  <g id="Ultralight-L" transform="matrix(1 0 0 1 494.894 1556)">
   <path d="M25.3983 21.656L94.9402 33.8631Q100.545 34.8923 104.735 33.3595Q108.925 31.8268 111.248 28.0277Q113.57 24.2287 113.57 18.4578L113.57-60.3783Q113.57-64.872 111.909-68.0573Q110.248-71.2425 106.834-73.2723Q103.42-75.3021 98.0988-76.2856L29.5006-88.3324Q25.2777-89.1136 22.2752-88.258Q19.2726-87.4023 17.6685-85.0174Q16.0645-82.6324 16.0645-78.8742L16.0645 10.5164Q16.0645 15.3137 18.306 18.0649Q20.5475 20.816 25.3983 21.656ZM34.61-58.0231Q33.9203-58.1306 33.569-58.4717Q33.2176-58.8127 33.2176-59.3727Q33.2176-59.9464 33.6224-60.4042Q34.0271-60.862 34.8-60.7018L90.4045-50.9521Q91.8495-50.7263 91.8495-49.6025Q91.8495-49.0746 91.4043-48.6134Q90.9592-48.1522 90.1375-48.3116ZM34.61-34.8915Q33.9203-34.9998 33.569-35.3405Q33.2176-35.6812 33.2176-36.2869Q33.2176-36.8118 33.6224-37.2696Q34.0271-37.7274 34.8-37.5671L90.4045-27.8175Q91.8495-27.5948 91.8495-26.4709Q91.8495-25.9392 91.4043-25.478Q90.9592-25.0168 90.1375-25.177ZM39.4569-91.0835L98.8304-80.6366Q104.028-79.7272 107.747-77.8069L107.747-87.7533Q107.747-92.5987 105.629-95.6944Q103.511-98.79 99.5018-99.9386Q95.4926-101.087 89.8621-100.045Z"/>
  </g>
  <g id="Black-M" transform="matrix(1 0 0 1 2875.22 1126)">
   <path d="M26.416 16.0156L82.1289 25.8789Q88.6719 27.002 93.5791 24.9268Q98.4863 22.8516 101.196 17.9932Q103.906 13.1348 103.906 6.10352L103.906-52.8809Q103.906-62.7441 99.3408-67.749Q94.7754-72.7539 84.375-74.5605L30.4688-84.0332Q25.3418-84.9609 21.2646-83.2764Q17.1875-81.5918 14.8193-77.8564Q12.4512-74.1211 12.4512-68.8477L12.4512-0.195312Q12.4512 6.39648 16.0889 10.5957Q19.7266 14.7949 26.416 16.0156ZM40.1855-45.6055Q38.0859-45.9473 36.9141-47.4609Q35.7422-48.9746 35.7422-51.123Q35.7422-53.7598 37.6465-55.2734Q39.5508-56.7871 42.334-56.2988L75.3418-50.4395Q79.834-49.6094 79.834-44.9707Q79.834-42.334 78.0029-40.7715Q76.1719-39.209 73.4863-39.6973ZM40.1855-23.8281Q38.2324-24.2188 36.9873-25.6836Q35.7422-27.1484 35.7422-29.2969Q35.7422-31.8848 37.6465-33.4229Q39.5508-34.9609 42.334-34.4727L75.3418-28.6133Q79.834-27.7344 79.834-23.2422Q79.834-20.5566 78.0029-18.9697Q76.1719-17.3828 73.4863-17.8711ZM48.0957-88.5254L85.6445-81.8848Q93.9941-80.4199 99.5605-77.0996L99.5117-77.8809Q98.7305-86.8164 91.8457-90.918Q84.9609-95.0195 74.1699-93.1152Z"/>
  </g>
  <g id="Heavy-M" transform="matrix(1 0 0 1 2580.09 1126)">
   <path d="M25.2983 14.7018L80.4695 24.4614Q86.5974 25.5272 91.1591 23.6073Q95.7207 21.6873 98.2288 17.1574Q100.737 12.6274 100.737 6.02264L100.737-52.9503Q100.737-62.1796 96.3905-66.7408Q92.0441-71.302 82.4158-72.982L28.994-82.3853Q24.2355-83.2321 20.4983-81.7089Q16.761-80.1857 14.6061-76.7731Q12.4512-73.3604 12.4512-68.502L12.4512-0.195312Q12.4512 5.91278 15.7776 9.74884Q19.104 13.5849 25.2983 14.7018ZM37.8922-46.6309Q35.9886-46.9383 34.9319-48.3078Q33.8753-49.6773 33.8753-51.6304Q33.8753-54.0131 35.5892-55.3829Q37.3032-56.7528 39.8445-56.3103L74.1661-50.2434Q78.2433-49.4713 78.2433-45.282Q78.2433-42.8986 76.6026-41.4803Q74.9619-40.062 72.4838-40.5037ZM37.8922-25.3609Q36.1-25.7057 34.9876-27.0378Q33.8753-28.3699 33.8753-30.3223Q33.8753-32.6569 35.5892-34.045Q37.3032-35.4332 39.8445-34.9915L74.1661-28.9246Q78.2433-28.138 78.2433-24.0486Q78.2433-21.6171 76.6026-20.1797Q74.9619-18.7424 72.4838-19.1849ZM45.0073-86.9583L83.6624-80.1331Q91.4932-78.7491 96.7598-75.6592L96.7224-77.1545Q96.1258-85.8025 89.7137-89.7541Q83.3015-93.7057 73.0057-91.8938Z"/>
  </g>
  <g id="Bold-M" transform="matrix(1 0 0 1 2285.16 1126)">
   <path d="M24.0479 13.2324L78.6133 22.876Q84.2773 23.877 88.4521 22.1313Q92.627 20.3857 94.9097 16.2231Q97.1924 12.0605 97.1924 5.93262L97.1924-53.0273Q97.1924-61.5479 93.0908-65.6128Q88.9893-69.6777 80.2246-71.2158L27.3438-80.542Q22.998-81.2988 19.6411-79.9561Q16.2842-78.6133 14.3677-75.5615Q12.4512-72.5098 12.4512-68.1152L12.4512-0.195312Q12.4512 5.37109 15.4297 8.80127Q18.4082 12.2314 24.0479 13.2324ZM35.3271-47.7783Q33.6426-48.0469 32.7148-49.2554Q31.7871-50.4639 31.7871-52.1973Q31.7871-54.2969 33.2886-55.5054Q34.79-56.7139 37.0605-56.3232L72.8516-50.0244Q76.4648-49.3164 76.4648-45.6299Q76.4648-43.5303 75.0366-42.2729Q73.6084-41.0156 71.3623-41.4062ZM35.3271-27.0752Q33.7158-27.3682 32.7515-28.5522Q31.7871-29.7363 31.7871-31.4697Q31.7871-33.5205 33.2886-34.7412Q34.79-35.9619 37.0605-35.5713L72.8516-29.2725Q76.4648-28.5889 76.4648-24.9512Q76.4648-22.8027 75.0366-21.5332Q73.6084-20.2637 71.3623-20.6543ZM41.5527-85.2051L81.4453-78.1738Q88.6963-76.8799 93.6279-74.0479L93.6035-76.3428Q93.2129-84.668 87.3291-88.4521Q81.4453-92.2363 71.7041-90.5273Z"/>
  </g>
  <g id="Semibold-M" transform="matrix(1 0 0 1 1989.67 1126)">
   <path d="M23.1857 12.2192L77.3338 21.7827Q82.6775 22.7394 86.5856 21.114Q90.4938 19.4885 92.6212 15.5788Q94.7487 11.6692 94.7487 5.87006L94.7487-53.0807Q94.7487-61.1122 90.8157-64.835Q86.8828-68.5577 78.714-69.9982L26.2062-79.2709Q22.1451-79.966 19.0502-78.7476Q15.9554-77.5291 14.2033-74.7261Q12.4512-71.9231 12.4512-67.849L12.4512-0.195312Q12.4512 4.99802 15.1897 8.14819Q17.9283 11.2984 23.1857 12.2192ZM33.5587-48.5695Q32.0251-48.8113 31.1863-49.9088Q30.3474-51.0063 30.3474-52.5887Q30.3474-54.4922 31.7024-55.5897Q33.0574-56.6872 35.141-56.3324L71.9452-49.8734Q75.2388-49.2096 75.2388-45.8702Q75.2388-43.9659 73.9571-42.8196Q72.6753-41.6733 70.5894-42.028ZM33.5587-28.257Q32.0717-28.5149 31.2096-29.5967Q30.3474-30.6786 30.3474-32.2609Q30.3474-34.1156 31.7024-35.2211Q33.0574-36.3266 35.141-35.9711L71.9452-29.5128Q75.2388-28.9001 75.2388-25.573Q75.2388-23.6206 73.9571-22.4667Q72.6753-21.3127 70.5894-21.6675ZM39.1708-83.9966L79.9164-76.8227Q86.7676-75.5913 91.468-72.937L91.4528-75.7828Q91.2041-83.886 85.685-87.5546Q80.1659-91.2231 70.8069-89.5851Z"/>
  </g>
  <g id="Medium-M" transform="matrix(1 0 0 1 1693.88 1126)">
   <path d="M22.5319 11.451L76.3634 20.9541Q81.4651 21.8773 85.1711 20.3423Q88.8771 18.8072 90.8863 15.0902Q92.8955 11.3731 92.8955 5.82352L92.8955-53.1212Q92.8955-60.7819 89.0907-64.2452Q85.2859-67.7086 77.5681-69.075L25.3441-78.3073Q21.4981-78.9551 18.602-77.8309Q15.7059-76.7067 14.0785-74.0925Q12.4512-71.4783 12.4512-67.6468L12.4512-0.195312Q12.4512 4.71497 15.0078 7.65305Q17.5644 10.5911 22.5319 11.451ZM32.2174-49.1692Q30.7991-49.3904 30.0274-50.4036Q29.2557-51.4168 29.2557-52.8847Q29.2557-54.641 30.4993-55.6541Q31.7429-56.6673 33.6853-56.3385L71.2578-49.7589Q74.3088-49.1287 74.3088-46.0518Q74.3088-44.2963 73.1384-43.2343Q71.9681-42.1722 70.0027-42.5003ZM32.2174-29.1534Q30.825-29.3839 30.0404-30.3883Q29.2557-31.3927 29.2557-32.8606Q29.2557-34.5673 30.4993-35.585Q31.7429-36.6028 33.6853-36.2747L71.2578-29.6944Q74.3088-29.1359 74.3088-26.0452Q74.3088-24.2401 73.1384-23.1739Q71.9681-22.1077 70.0027-22.4358ZM37.365-83.0803L78.7575-75.7988Q85.3058-74.614 89.8308-72.0947L89.8224-75.3586Q89.6812-83.2932 84.4383-86.874Q79.1954-90.4549 70.1256-88.871Z"/>
  </g>
  <g id="Regular-M" transform="matrix(1 0 0 1 1398.38 1126)">
   <path d="M21.6797 10.4492L75.0977 19.873Q79.8828 20.752 83.3252 19.3359Q86.7676 17.9199 88.623 14.4531Q90.4785 10.9863 90.4785 5.76172L90.4785-53.1738Q90.4785-60.3516 86.8408-63.4766Q83.2031-66.6016 76.0742-67.8711L24.2188-77.0508Q20.6543-77.6367 18.0176-76.6357Q15.3809-75.6348 13.916-73.2666Q12.4512-70.8984 12.4512-67.3828L12.4512-0.195312Q12.4512 4.3457 14.7705 7.00684Q17.0898 9.66797 21.6797 10.4492ZM30.4688-49.9512Q29.1992-50.1465 28.5156-51.0498Q27.832-51.9531 27.832-53.2715Q27.832-54.834 28.9307-55.7373Q30.0293-56.6406 31.7871-56.3477L70.3613-49.6094Q73.0957-49.0234 73.0957-46.2891Q73.0957-44.7266 72.0703-43.7744Q71.0449-42.8223 69.2383-43.1152ZM30.4688-30.3223Q29.1992-30.5176 28.5156-31.4209Q27.832-32.3242 27.832-33.6426Q27.832-35.1562 28.9307-36.0596Q30.0293-36.9629 31.7871-36.6699L70.3613-29.9316Q73.0957-29.4434 73.0957-26.6602Q73.0957-25.0488 72.0703-24.0967Q71.0449-23.1445 69.2383-23.4375ZM35.0098-81.8848L77.2461-74.4629Q83.3984-73.3398 87.6953-70.9961L87.6953-74.8047Q87.6953-82.5195 82.8125-85.9863Q77.9297-89.4531 69.2383-87.9395Z"/>
  </g>
  <g id="Light-M" transform="matrix(1 0 0 1 1102.05 1126)">
   <path d="M21.0594 9.94949L74.6284 19.3886Q79.277 20.237 82.6591 18.8969Q86.0413 17.5568 87.8815 14.2487Q89.7217 10.9406 89.7217 5.9433L89.7217-53.6583Q89.7217-60.215 86.3033-63.3022Q82.885-66.3895 76.059-67.614L23.7946-76.8539Q20.3217-77.4399 17.783-76.5373Q15.2443-75.6348 13.8477-73.4329Q12.4512-71.2311 12.4512-67.8978L12.4512-0.0587463Q12.4512 4.2244 14.5889 6.71921Q16.7267 9.21402 21.0594 9.94949ZM29.3488-50.8591Q28.3058-51.0246 27.7435-51.7311Q27.1812-52.4376 27.1812-53.4836Q27.1812-54.6829 28.0376-55.4195Q28.894-56.1562 30.304-55.9235L70.2705-48.9281Q72.5052-48.4634 72.5052-46.3043Q72.5052-45.105 71.6919-44.342Q70.8786-43.5791 69.4199-43.8118ZM29.3488-31.7604Q28.3058-31.9252 27.7435-32.6317Q27.1812-33.3382 27.1812-34.3842Q27.1812-35.5499 28.0376-36.2865Q28.894-37.0232 30.304-36.7912L70.2705-29.7951Q72.5052-29.3976 72.5052-27.2049Q72.5052-25.972 71.6919-25.2014Q70.8786-24.4308 69.4199-24.6788ZM33.6327-80.8403L77.0493-73.2216Q82.5356-72.2198 86.3937-70.1485L86.3937-75.1526Q86.3937-82.2166 81.8893-85.4034Q77.3849-88.5902 69.3596-87.1674Z"/>
  </g>
  <g id="Thin-M" transform="matrix(1 0 0 1 805.836 1126)">
   <path d="M20.2385 9.28879L74.0082 18.7485Q78.4767 19.5564 81.7783 18.3163Q85.08 17.0761 86.9003 13.9786Q88.7207 10.881 88.7207 6.18362L88.7207-54.2992Q88.7207-60.0349 85.5927-63.0722Q82.4646-66.1095 76.0391-67.2737L23.2346-76.5938Q19.8807-77.1797 17.4725-76.4072Q15.0642-75.6348 13.7577-73.6534Q12.4512-71.6721 12.4512-68.5783L12.4512 0.121307Q12.4512 4.06418 14.3486 6.33888Q16.246 8.61359 20.2385 9.28879ZM27.8671-52.0607Q27.1248-52.1858 26.7227-52.6321Q26.3206-53.0785 26.3206-53.7636Q26.3206-54.4823 26.8566-54.9992Q27.3926-55.5161 28.3417-55.3635L70.1508-48.027Q71.7247-47.7226 71.7247-46.3242Q71.7247-45.6055 71.1914-45.0928Q70.6581-44.5801 69.6602-44.7327ZM27.8671-33.6617Q27.1248-33.7868 26.7227-34.2331Q26.3206-34.6794 26.3206-35.3653Q26.3206-36.0703 26.8566-36.5868Q27.3926-37.1033 28.3417-36.9514L70.1508-29.615Q71.7247-29.3381 71.7247-27.9259Q71.7247-27.1935 71.1914-26.6632Q70.6581-26.133 69.6602-26.3199ZM31.8108-79.4594L76.7891-71.5805Q81.395-70.7382 84.6718-69.0277L84.6718-75.6134Q84.6718-81.8161 80.6679-84.6329Q76.664-87.4496 69.5198-86.1465Z"/>
  </g>
  <g id="Ultralight-M" transform="matrix(1 0 0 1 509.382 1126)">
   <path d="M19.8181 8.95081L73.69 18.4196Q78.0663 19.2078 81.3271 18.0191Q84.5879 16.8304 86.3979 13.8401Q88.208 10.8498 88.208 6.30646L88.208-54.6272Q88.208-59.9426 85.2287-62.9543Q82.2495-65.966 76.0284-67.099L22.9469-76.4603Q19.6556-77.0462 17.3138-76.3405Q14.9719-75.6348 13.7115-73.7659Q12.4512-71.8971 12.4512-68.927L12.4512 0.213623Q12.4512 3.98254 14.2258 6.14395Q16.0004 8.30536 19.8181 8.95081ZM27.1088-52.6756Q26.5198-52.7802 26.1997-53.0933Q25.8797-53.4065 25.8797-53.907Q25.8797-54.38 26.2516-54.7836Q26.6235-55.1872 27.3369-55.0758L70.089-47.5662Q71.3249-47.3434 71.3249-46.3348Q71.3249-45.8618 70.9351-45.4773Q70.5452-45.0928 69.783-45.2042ZM27.1088-34.6359Q26.5198-34.7404 26.1997-35.0536Q25.8797-35.3668 25.8797-35.8673Q25.8797-36.3373 26.2516-36.7409Q26.6235-37.1445 27.3369-37.0331L70.089-29.5227Q71.3249-29.3068 71.3249-28.2951Q71.3249-27.8191 70.9351-27.4117Q70.5452-27.0042 69.783-27.1614ZM30.8777-78.7514L76.6556-70.739Q80.8098-69.9799 83.7898-68.4532L83.7898-75.8492Q83.7898-81.6116 80.0423-84.2381Q76.2947-86.8645 69.6014-85.6239Z"/>
  </g>
  <g id="Black-S" transform="matrix(1 0 0 1 2887.36 696)">
   <path d="M20.9961 5.27344L64.8438 13.0371Q72.7051 14.4043 77.5146 10.0342Q82.3242 5.66406 82.3242-2.83203L82.3242-49.0723Q82.3242-56.9336 78.7109-60.9863Q75.0977-65.0391 66.6992-66.5039L24.3164-73.9746Q20.166-74.707 16.8701-73.3398Q13.5742-71.9727 11.6699-68.9697Q9.76562-65.9668 9.76562-61.7188L9.76562-7.76367Q9.76562-2.49023 12.7197 0.90332Q15.6738 4.29688 20.9961 5.27344ZM32.1289-43.1152Q30.4688-43.3594 29.5166-44.5801Q28.5645-45.8008 28.5645-47.5586Q28.5645-49.6582 30.0781-50.8789Q31.5918-52.0996 33.8379-51.709L59.375-47.168Q62.9883-46.4844 62.9883-42.7734Q62.9883-40.6738 61.5234-39.4043Q60.0586-38.1348 57.9102-38.5254ZM32.1289-25.9277Q30.5664-26.2207 29.5654-27.417Q28.5645-28.6133 28.5645-30.3223Q28.5645-32.4219 30.0781-33.6426Q31.5918-34.8633 33.8379-34.4727L59.375-29.9316Q62.9883-29.248 62.9883-25.6348Q62.9883-23.4863 61.5234-22.2168Q60.0586-20.9473 57.9102-21.2891ZM38.5742-77.3926L67.7246-72.2656Q74.3652-71.0938 78.8086-68.4082L78.7598-68.8965Q78.0762-75.9277 72.583-79.1748Q67.0898-82.4219 58.4961-80.9082Z"/>
  </g>
  <g id="Heavy-S" transform="matrix(1 0 0 1 2591.95 696)">
   <path d="M20.1202 4.21295L63.4842 11.8843Q70.8382 13.1714 75.2789 9.11827Q79.7195 5.06516 79.7195-2.9129L79.7195-49.0723Q79.7195-56.4728 76.2619-60.1509Q72.8043-63.829 65.0284-65.1901L23.1064-72.58Q19.2673-73.2552 16.2479-72.0146Q13.2286-70.7741 11.4971-68.0248Q9.76562-65.2756 9.76562-61.3617L9.76562-7.78656Q9.76562-2.89383 12.4718 0.211716Q15.1779 3.31726 20.1202 4.21295ZM30.3078-43.8759Q28.7865-44.1086 27.9148-45.2255Q27.0432-46.3425 27.0432-47.9622Q27.0432-49.9001 28.4302-51.017Q29.8172-52.1339 31.9016-51.7784L58.3839-47.0871Q61.7088-46.4386 61.7088-43.0382Q61.7088-41.1003 60.371-39.9345Q59.0332-38.7688 57.0343-39.1243ZM30.3078-27.0569Q28.8605-27.3155 27.9518-28.4138Q27.0432-29.512 27.0432-31.0944Q27.0432-33.033 28.4302-34.1442Q29.8172-35.2554 31.9016-34.8991L58.3839-30.22Q61.7088-29.5937 61.7088-26.2573Q61.7088-24.2699 60.371-23.1041Q59.0332-21.9383 57.0343-22.2572ZM36.1076-76.194L66.0423-70.9175Q72.3366-69.8029 76.5732-67.2905L76.5358-68.2281Q76.0132-75.0977 70.8717-78.2528Q65.7303-81.4079 57.4821-79.9629Z"/>
  </g>
  <g id="Bold-S" transform="matrix(1 0 0 1 2296.69 696)">
   <path d="M19.1406 3.02734L61.9629 10.5957Q68.75 11.792 72.7783 8.09326Q76.8066 4.39453 76.8066-3.00293L76.8066-49.0723Q76.8066-55.957 73.5229-59.2163Q70.2393-62.4756 63.1592-63.7207L21.7529-71.0205Q18.2617-71.6309 15.5518-70.5322Q12.8418-69.4336 11.3037-66.9678Q9.76562-64.502 9.76562-60.9619L9.76562-7.8125Q9.76562-3.34473 12.1948-0.561523Q14.624 2.22168 19.1406 3.02734ZM28.2715-44.7266Q26.9043-44.9463 26.123-45.9473Q25.3418-46.9482 25.3418-48.4131Q25.3418-50.1709 26.5869-51.1719Q27.832-52.1729 29.7363-51.8555L57.2754-46.9971Q60.2783-46.3867 60.2783-43.335Q60.2783-41.5771 59.082-40.5273Q57.8857-39.4775 56.0547-39.7949ZM28.2715-28.3203Q26.9531-28.54 26.1475-29.5288Q25.3418-30.5176 25.3418-31.958Q25.3418-33.7158 26.5869-34.7046Q27.832-35.6934 29.7363-35.376L57.2754-30.542Q60.2783-29.9805 60.2783-26.9531Q60.2783-25.1465 59.082-24.0967Q57.8857-23.0469 56.0547-23.3398ZM33.3496-74.8535L64.1602-69.4092Q70.0684-68.3594 74.0723-66.04L74.0479-67.4805Q73.7061-74.1699 68.9575-77.2217Q64.209-80.2734 56.3477-78.9062Z"/>
  </g>
  <g id="Semibold-S" transform="matrix(1 0 0 1 2000.98 696)">
   <path d="M18.4654 2.20947L60.9138 9.70688Q67.3103 10.8414 71.0541 7.38678Q74.7978 3.93219 74.7978-3.06549L74.7978-49.0723Q74.7978-55.6015 71.6343-58.572Q68.4708-61.5425 61.8706-62.7075L20.8199-69.9455Q17.5682-70.5109 15.0719-69.5103Q12.5755-68.5097 11.1706-66.2392Q9.76562-63.9687 9.76562-60.6865L9.76562-7.83005Q9.76562-3.65601 12.0037-1.09482Q14.2418 1.46637 18.4654 2.20947ZM26.8677-45.3133Q25.6065-45.5238 24.8875-46.4447Q24.1684-47.3656 24.1684-48.7244Q24.1684-50.3578 25.3159-51.2787Q26.4633-52.1996 28.2433-51.9089L56.5109-46.9345Q59.2918-46.3509 59.2918-43.5394Q59.2918-41.906 58.1932-40.9363Q57.0946-39.9666 55.3795-40.2573ZM26.8677-29.1916Q25.6378-29.3846 24.9031-30.2979Q24.1684-31.2111 24.1684-32.5531Q24.1684-34.1866 25.3159-35.091Q26.4633-35.9955 28.2433-35.7048L56.5109-30.764Q59.2918-30.2467 59.2918-27.433Q59.2918-25.7507 58.1932-24.781Q57.0946-23.8113 55.3795-24.086ZM31.4476-73.9296L62.8624-68.3693Q68.5043-67.3637 72.348-65.1779L72.3328-66.9647Q72.1153-73.5298 67.6376-76.5106Q63.1599-79.4914 55.5656-78.1776Z"/>
  </g>
  <g id="Medium-S" transform="matrix(1 0 0 1 1705.04 696)">
   <path d="M17.9527 1.58997L60.1189 9.0332Q66.2186 10.1204 69.7468 6.8512Q73.275 3.582 73.275-3.11203L73.275-49.0723Q73.275-55.3322 70.2023-58.0837Q67.1295-60.8353 60.8932-61.9392L20.1126-69.1299Q17.0433-69.6617 14.7083-68.7351Q12.3734-67.8085 11.0695-65.6864Q9.76562-63.5643 9.76562-60.4774L9.76562-7.84378Q9.76562-3.89175 11.8587-1.49918Q13.9519 0.893402 17.9527 1.58997ZM25.8026-45.7581Q24.6231-45.9618 23.9513-46.8224Q23.2796-47.683 23.2796-48.9601Q23.2796-50.499 24.3526-51.3592Q25.4257-52.2194 27.1111-51.9493L55.9319-46.888Q58.5442-46.3242 58.5442-43.6943Q58.5442-42.1555 57.5195-41.246Q56.4949-40.3366 54.8668-40.6075ZM25.8026-29.8515Q24.6407-30.0247 23.9601-30.8804Q23.2796-31.736 23.2796-33.0048Q23.2796-34.5436 24.3526-35.384Q25.4257-36.2244 27.1111-35.9543L55.9319-30.9326Q58.5442-30.4489 58.5442-27.7969Q58.5442-26.2093 57.5195-25.2998Q56.4949-24.3904 54.8668-24.6521ZM30.0056-73.2285L61.879-67.5812Q67.318-66.6092 71.0411-64.5241L71.032-66.5741Q70.9091-73.0446 66.637-75.9716Q62.365-78.8986 54.9728-77.6253Z"/>
  </g>
  <g id="Regular-S" transform="matrix(1 0 0 1 1409.32 696)">
   <path d="M17.2852 0.78125L59.082 8.1543Q64.7949 9.17969 68.042 6.15234Q71.2891 3.125 71.2891-3.17383L71.2891-49.0723Q71.2891-54.9805 68.335-57.4463Q65.3809-59.9121 59.6191-60.9375L19.1895-68.0664Q16.3574-68.5547 14.2334-67.7246Q12.1094-66.8945 10.9375-64.9658Q9.76562-63.0371 9.76562-60.2051L9.76562-7.86133Q9.76562-4.19922 11.6699-2.02637Q13.5742 0.146484 17.2852 0.78125ZM24.4141-46.3379Q23.3398-46.5332 22.7295-47.3145Q22.1191-48.0957 22.1191-49.2676Q22.1191-50.6836 23.0957-51.4648Q24.0723-52.2461 25.6348-52.002L55.1758-46.8262Q57.5684-46.2891 57.5684-43.8965Q57.5684-42.4805 56.6406-41.6504Q55.7129-40.8203 54.1992-41.0645ZM24.4141-30.7129Q23.3398-30.8594 22.7295-31.6406Q22.1191-32.4219 22.1191-33.5938Q22.1191-35.0098 23.0957-35.7666Q24.0723-36.5234 25.6348-36.2793L55.1758-31.1523Q57.5684-30.7129 57.5684-28.2715Q57.5684-26.8066 56.6406-25.9766Q55.7129-25.1465 54.1992-25.3906ZM28.125-72.3145L60.5957-66.5527Q65.7715-65.625 69.3359-63.6719L69.3359-66.0645Q69.3359-72.4121 65.332-75.2686Q61.3281-78.125 54.1992-76.9043Z"/>
  </g>
  <g id="Light-S" transform="matrix(1 0 0 1 1112.95 696)">
   <path d="M16.7404 0.34256L58.6578 7.7301Q64.1891 8.72574 67.3985 5.84984Q70.6078 2.97394 70.6078-3.02277L70.6078-49.4965Q70.6078-54.8592 67.8505-57.2948Q65.0932-59.7305 59.6039-60.7101L18.811-67.9001Q16.0698-68.3731 14.0289-67.6338Q11.9881-66.8945 10.8768-65.1096Q9.76562-63.3247 9.76562-60.659L9.76562-7.74002Q9.76562-4.29001 11.5108-2.2686Q13.2561-0.247192 16.7404 0.34256ZM23.4299-47.1405Q22.5372-47.3053 22.0406-47.9126Q21.5439-48.5199 21.5439-49.4492Q21.5439-50.547 22.3087-51.1845Q23.0736-51.8219 24.3179-51.6083L55.1003-46.2204Q57.0389-45.8046 57.0389-43.9117Q57.0389-42.8131 56.3076-42.1497Q55.5763-41.4864 54.3503-41.6847ZM23.4299-31.9847Q22.5372-32.1007 22.0406-32.7152Q21.5439-33.3298 21.5439-34.2598Q21.5439-35.3577 22.3087-35.9707Q23.0736-36.5837 24.3179-36.3853L55.1003-31.031Q57.0389-30.6824 57.0389-28.756Q57.0389-27.6237 56.3076-26.9527Q55.5763-26.2817 54.3503-26.4954ZM26.899-71.3913L60.4294-65.448Q64.9994-64.6408 68.1854-62.915L68.1854-66.3673Q68.1854-72.155 64.5145-74.754Q60.8437-77.3529 54.3053-76.223Z"/>
  </g>
  <g id="Thin-S" transform="matrix(1 0 0 1 816.686 696)">
   <path d="M16.0194-0.238037L58.0978 7.1701Q63.3888 8.12531 66.5478 5.4493Q69.7067 2.77328 69.7067-2.82211L69.7067-50.0565Q69.7067-54.6989 67.21-57.0946Q64.7133-59.4902 59.584-60.4103L18.3105-67.6796Q15.6898-68.1328 13.7589-67.5137Q11.8279-66.8945 10.7967-65.2996Q9.76562-63.7047 9.76562-61.2595L9.76562-7.5798Q9.76562-4.40979 11.3007-2.58865Q12.8357-0.767517 16.0194-0.238037ZM22.1291-48.201Q21.4767-48.3261 21.13-48.703Q20.7832-49.0799 20.7832-49.6895Q20.7832-50.367 21.2677-50.8144Q21.7522-51.2619 22.5761-51.088L55.0003-45.4201Q56.3377-45.1645 56.3377-43.9316Q56.3377-43.2541 55.867-42.8104Q55.3963-42.3668 54.5509-42.5056ZM22.1291-33.6662Q21.4767-33.7418 21.13-34.1366Q20.7832-34.5314 20.7832-35.1402Q20.7832-35.8185 21.2677-36.2411Q21.7522-36.6638 22.5761-36.5257L55.0003-30.8708Q56.3377-30.6427 56.3377-29.3968Q56.3377-28.7048 55.867-28.244Q55.3963-27.7832 54.5509-27.9572ZM25.2777-70.1698L60.2089-63.9862Q63.9786-63.34 66.6641-61.9141L66.6641-66.7679Q66.6641-71.8147 63.4338-74.0734Q60.2036-76.3321 54.4456-75.322Z"/>
  </g>
  <g id="Ultralight-S" transform="matrix(1 0 0 1 520.205 696)">
   <path d="M15.6502-0.535583L57.8102 6.88248Q62.9784 7.81708 66.1121 5.24406Q69.2459 2.67105 69.2459-2.71988L69.2459-50.3441Q69.2459-54.6173 66.8819-56.9923Q64.518-59.3674 59.5734-60.2562L18.0542-67.5667Q15.4945-68.0099 13.6204-67.4522Q11.7462-66.8945 10.7559-65.3973Q9.76562-63.9 9.76562-61.5677L9.76562-7.49817Q9.76562-4.47159 11.1931-2.75307Q12.6205-1.03455 15.6502-0.535583ZM21.4622-48.745Q20.9328-48.8487 20.6631-49.1081Q20.3934-49.3675 20.3934-49.8123Q20.3934-50.2747 20.7344-50.6245Q21.0754-50.9743 21.6843-50.8209L54.9484-45.0096Q55.9792-44.8357 55.9792-43.9423Q55.9792-43.4792 55.6416-43.1488Q55.304-42.8185 54.6532-42.926ZM21.4622-34.5276Q20.9328-34.5833 20.6631-34.8648Q20.3934-35.1463 20.3934-35.5919Q20.3934-36.0542 20.7344-36.3796Q21.0754-36.705 21.6843-36.5974L54.9484-30.7892Q55.9792-30.6221 55.9792-29.7249Q55.9792-29.2587 55.6416-28.9055Q55.304-28.5522 54.6532-28.7056ZM24.4469-69.5442L60.096-63.2378Q63.456-62.6732 65.8852-61.4014L65.8852-66.9724Q65.8852-71.64 62.8799-73.7247Q59.8747-75.8095 54.5174-74.8611Z"/>
  </g>
 </g>
</svg>
